<?xml version="1.0" standalone="no"?>
<!DOCTYPE svg PUBLIC "-//W3C//DTD SVG 1.1//EN" "http://www.w3.org/Graphics/SVG/1.1/DTD/svg11.dtd" >
<svg>
<metadata>
Created by FontForge 20090914 at Wed Jul 15 11:11:47 2015
 By www-data
</metadata>
<defs>
<font id="Helena'sHand" horiz-adv-x="872" >
  <font-face 
    font-family="Helena's Hand"
    font-weight="400"
    font-stretch="normal"
    units-per-em="2048"
    panose-1="2 11 6 3 5 3 2 2 2 4"
    ascent="1638"
    descent="-410"
    x-height="668"
    cap-height="1189"
    bbox="-533.524 -1356.25 2160.32 1779.78"
    underline-thickness="0"
    underline-position="0"
    unicode-range="U+0008-U+2265"
  />
<missing-glyph horiz-adv-x="2048" 
d="M417 737c97.333 0 180.666 -34.667 249.999 -104s104 -153 104 -251s-34.667 -181.667 -104 -251s-152.666 -104 -249.999 -104c-98 0 -181.667 34.667 -251 104s-104 153 -104 251s34.667 181.667 104 251s153 104 251 104z" />
    <glyph glyph-name=".notdef" unicode="&#xff;" horiz-adv-x="2048" 
d="M417 737c97.333 0 180.666 -34.667 249.999 -104s104 -153 104 -251s-34.667 -181.667 -104 -251s-152.666 -104 -249.999 -104c-98 0 -181.667 34.667 -251 104s-104 153 -104 251s34.667 181.667 104 251s153 104 251 104z" />
    <glyph glyph-name=".notdef" unicode="&#xe01e;" horiz-adv-x="2048" 
d="M417 737c97.333 0 180.666 -34.667 249.999 -104s104 -153 104 -251s-34.667 -181.667 -104 -251s-152.666 -104 -249.999 -104c-98 0 -181.667 34.667 -251 104s-104 153 -104 251s34.667 181.667 104 251s153 104 251 104z" />
    <glyph glyph-name=".notdef" unicode="&#x25ca;" horiz-adv-x="2048" 
d="M417 737c97.333 0 180.666 -34.667 249.999 -104s104 -153 104 -251s-34.667 -181.667 -104 -251s-152.666 -104 -249.999 -104c-98 0 -181.667 34.667 -251 104s-104 153 -104 251s34.667 181.667 104 251s153 104 251 104z" />
    <glyph glyph-name=".notdef" unicode="&#x2248;" horiz-adv-x="2048" 
d="M417 737c97.333 0 180.666 -34.667 249.999 -104s104 -153 104 -251s-34.667 -181.667 -104 -251s-152.666 -104 -249.999 -104c-98 0 -181.667 34.667 -251 104s-104 153 -104 251s34.667 181.667 104 251s153 104 251 104z" />
    <glyph glyph-name=".notdef" unicode="&#x221a;" horiz-adv-x="2048" 
d="M417 737c97.333 0 180.666 -34.667 249.999 -104s104 -153 104 -251s-34.667 -181.667 -104 -251s-152.666 -104 -249.999 -104c-98 0 -181.667 34.667 -251 104s-104 153 -104 251s34.667 181.667 104 251s153 104 251 104z" />
    <glyph glyph-name=".notdef" unicode="&#x20ac;" horiz-adv-x="2048" 
d="M417 737c97.333 0 180.666 -34.667 249.999 -104s104 -153 104 -251s-34.667 -181.667 -104 -251s-152.666 -104 -249.999 -104c-98 0 -181.667 34.667 -251 104s-104 153 -104 251s34.667 181.667 104 251s153 104 251 104z" />
    <glyph glyph-name=".notdef" unicode="&#x2044;" horiz-adv-x="2048" 
d="M417 737c97.333 0 180.666 -34.667 249.999 -104s104 -153 104 -251s-34.667 -181.667 -104 -251s-152.666 -104 -249.999 -104c-98 0 -181.667 34.667 -251 104s-104 153 -104 251s34.667 181.667 104 251s153 104 251 104z" />
    <glyph glyph-name=".notdef" unicode="&#x2030;" horiz-adv-x="2048" 
d="M417 737c97.333 0 180.666 -34.667 249.999 -104s104 -153 104 -251s-34.667 -181.667 -104 -251s-152.666 -104 -249.999 -104c-98 0 -181.667 34.667 -251 104s-104 153 -104 251s34.667 181.667 104 251s153 104 251 104z" />
    <glyph glyph-name=".notdef" unicode="&#x2026;" horiz-adv-x="2048" 
d="M417 737c97.333 0 180.666 -34.667 249.999 -104s104 -153 104 -251s-34.667 -181.667 -104 -251s-152.666 -104 -249.999 -104c-98 0 -181.667 34.667 -251 104s-104 153 -104 251s34.667 181.667 104 251s153 104 251 104z" />
    <glyph glyph-name=".notdef" unicode="&#x394;" horiz-adv-x="2048" 
d="M417 737c97.333 0 180.666 -34.667 249.999 -104s104 -153 104 -251s-34.667 -181.667 -104 -251s-152.666 -104 -249.999 -104c-98 0 -181.667 34.667 -251 104s-104 153 -104 251s34.667 181.667 104 251s153 104 251 104z" />
    <glyph glyph-name=".notdef" unicode="&#x192;" horiz-adv-x="2048" 
d="M417 737c97.333 0 180.666 -34.667 249.999 -104s104 -153 104 -251s-34.667 -181.667 -104 -251s-152.666 -104 -249.999 -104c-98 0 -181.667 34.667 -251 104s-104 153 -104 251s34.667 181.667 104 251s153 104 251 104z" />
    <glyph glyph-name=".notdef" unicode="&#x178;" horiz-adv-x="2048" 
d="M417 737c97.333 0 180.666 -34.667 249.999 -104s104 -153 104 -251s-34.667 -181.667 -104 -251s-152.666 -104 -249.999 -104c-98 0 -181.667 34.667 -251 104s-104 153 -104 251s34.667 181.667 104 251s153 104 251 104z" />
    <glyph glyph-name=".notdef" unicode="&#x131;" horiz-adv-x="2048" 
d="M417 737c97.333 0 180.666 -34.667 249.999 -104s104 -153 104 -251s-34.667 -181.667 -104 -251s-152.666 -104 -249.999 -104c-98 0 -181.667 34.667 -251 104s-104 153 -104 251s34.667 181.667 104 251s153 104 251 104z" />
    <glyph glyph-name="uni001D" horiz-adv-x="0" 
 />
    <glyph glyph-name="uni001D" horiz-adv-x="0" 
 />
    <glyph glyph-name="uni001D" horiz-adv-x="0" 
 />
    <glyph glyph-name="space" unicode="&#x9;" horiz-adv-x="788" 
 />
    <glyph glyph-name="space" unicode=" " horiz-adv-x="788" 
 />
    <glyph glyph-name="uni00A0" unicode="&#xd;" horiz-adv-x="2048" 
 />
    <glyph glyph-name="uni00A0" unicode="&#xa0;" horiz-adv-x="2048" 
 />
    <glyph glyph-name="exclam" unicode="!" horiz-adv-x="720" 
d="M237 158c13.333 13.333 30.498 20.333 51.498 21s37.167 -4 48.5 -14c14 -13.333 19.833 -26 17.5 -38s-5.5 -24 -9.5 -36c-10 -30.667 -29.667 -55 -59 -73c-25.333 -15.333 -44.666 -9 -57.999 19c-8 16 -12.167 36.5 -12.5 61.5s6.83398 44.833 21.501 59.5z
M372.998 507c-16.667 -5.33301 -32.166 -4.66699 -46.499 2s-20.5 28.667 -18.5 66c1.33301 31.333 3.66602 62.166 6.99902 92.499s9.33301 60.5 18 90.5l42 153.5c15.333 58.333 27.666 108.5 36.999 150.5c12 56 23 117.167 33 183.5s16.667 116.5 20 150.5
c2.66699 34 14 49.833 34 47.5s38 -9.83301 54 -22.5c34 -29.333 47.667 -66 41 -110c-18 -108 -39.833 -203 -65.5 -285l-69.5 -222c-12 -35.333 -22.667 -68.5 -32 -99.5s-15 -61.5 -17 -91.5c-1.33301 -17.333 -2.16602 -37.666 -2.49902 -60.999
s-11.833 -38.333 -34.5 -45z" />
    <glyph glyph-name="quotedbl" unicode="&#x22;" horiz-adv-x="1150" 
d="M861 1342c8 -12 14.665 -22.834 19.998 -32.501s4.33301 -35.5 -3 -77.5s-33.333 -101 -78 -177s-75.667 -122.667 -93 -140c-18 -18 -33.667 -27.833 -47 -29.5s-25 -1.5 -35 0.5c-10 0.666992 -22.5 6.83398 -37.5 18.501s-22.833 25.5 -23.5 41.5
c-1.33301 17.333 11.334 38.333 38.001 63c12 10 34.333 38.667 67 86s54 95.666 64 144.999c10.667 50.667 19.667 80.334 27 89.001s18 16.667 32 24c12.667 6 27.334 5.66699 44.001 -1zM509.998 1320c6.66699 -16.667 5.66309 -34.834 -3.00391 -54.501
s-19 -41.5 -31 -65.5c-16 -34 -39.667 -74.167 -71 -120.5s-60.333 -85.5 -87 -117.5c-13.333 -16 -28.666 -26.333 -45.999 -31s-30 5 -38 29c-19.333 51.333 -19 101 1 149c6.66699 16.667 17.834 33.5 33.501 50.5s30.834 35.833 45.501 56.5
c18 24 34.833 49.333 50.5 76s27.5 42.334 35.5 47.001c19.333 11.333 40.333 16 63 14s38.334 -13 47.001 -33z" />
    <glyph glyph-name="numbersign" unicode="#" horiz-adv-x="1706" 
d="M908 1379c38.667 0.666992 59.333 -16.3369 62 -51.0039c1.33301 -18.667 -1.33398 -43.167 -8.00098 -73.5s-13 -55.166 -19 -74.499l-64.5 -179.5l-64.5 -178.5c50 8.66699 104.333 20 163 34c12.667 3.33301 25.5 6.5 38.5 9.5s25.833 6.16699 38.5 9.5l38 154.5
l27 111.5c10 46.667 17.167 79.334 21.5 98.001s13.166 32.667 26.499 42c10.667 7.33301 25.5 7 44.5 -1s32.167 -20.333 39.5 -37c9.33301 -24 9.83301 -58.167 1.5 -102.5s-15.5 -85.166 -21.5 -122.499c-6 -27.333 -15.667 -64 -29 -110c44 8.66699 87.333 16 130 22
c45.333 4.66699 78 -2.66602 98 -21.999c7.33301 -8.66699 8.83301 -25.834 4.5 -51.501s-8.16602 -43.5 -11.499 -53.5c-7.33301 -21.333 -23.333 -21 -48 1c-11.333 10 -30 13 -56 9c-6.66699 -1.33301 -24.167 -5.16602 -52.5 -11.499l-101.5 -22.5l-62.5 -206.5
c-20.333 -66.333 -32.5 -107.166 -36.5 -122.499c-1.33301 -4 -2.33301 -7.33301 -3 -10l90.5 15c24.333 4 40.166 6.66699 47.499 8c104 16 190.5 28.167 259.5 36.5s157.833 18.5 266.5 30.5c108 11.333 146.667 5 116 -19s-70.334 -40 -119.001 -48
c-205.333 -34 -353 -62.667 -443 -86s-175 -43.333 -255 -60l-54.5 -181.5c-19 -63 -30.833 -103.5 -35.5 -121.5c-14 -46.667 -33.667 -75.334 -59 -86.001c-33.333 -12 -57 -5.66699 -71 19c-7.33301 12 -5.66602 32 5.00098 60s17.334 51 20.001 69
c0.666992 8 7.5 32.667 20.5 74l45.5 143c-12 -1.33301 -21 -2.66602 -27 -3.99902c-44 -6 -87 -12.333 -129 -19s-87.333 -13 -136 -19c-2 -4 -3.66699 -8.16699 -5 -12.5l-4 -12.5c-18 -51.333 -23.667 -83.166 -17 -95.499s10 -23.166 10 -32.499s0.666992 -22.333 2 -39
s-5 -31.667 -19 -45c-16.667 -15.333 -38 -25 -64 -29s-44.667 -1.66699 -56 7c-17.333 12.667 -19 43.667 -5 93c6.66699 26 14.334 52 23.001 78l26 76c-58.667 -5.33301 -121.667 -10.333 -189 -15c-65.333 -4.66699 -108.333 0.666016 -129 15.999
c-12.667 8.66699 -17.167 20.5 -13.5 35.5s11.5 26.5 23.5 34.5c11.333 8 24.833 13.5 40.5 16.5s45.834 6.5 90.501 10.5c78.667 8 151 16 217 24c0.666992 2.66699 2 8.33398 4 17.001c6 25.333 20 68.5 42 129.5l66 181.5
c-99.333 -8.66699 -210.5 -11.834 -333.5 -9.50098s-207.833 24.833 -254.5 67.5c-26 23.333 -25.333 46.333 2 69c18.667 15.333 45.667 17 81 5c41.333 -16 85.666 -26 132.999 -30s97 -6 149 -6c81.333 -1.33301 169 4.66699 263 18c10 27.333 18 51.666 24 72.999
c8.66699 35.333 30.167 108.666 64.5 219.999s55.5 182 63.5 212s19 49.333 33 58s25.667 13 35 13zM650.999 376.996c50.667 6.66699 100.333 13.667 149 21l137 21l39.5 129.5c11.667 39.667 19.5 69.167 23.5 88.5c6.66699 36 14.667 73 24 111l-125.5 -26
c-40.333 -8 -73.833 -13.333 -100.5 -16c-4 -0.666992 -8.5 -1.5 -13.5 -2.5s-9.83301 -1.5 -14.5 -1.5z" />
    <glyph glyph-name="dollar" unicode="$" horiz-adv-x="1289" 
d="M643 1606c28 23.333 54.9961 16 80.9961 -22c8 -13.333 14.833 -32.833 20.5 -58.5s8.83398 -67.834 9.50098 -126.501c0 -16.667 -0.333008 -42 -1 -76c128 16 232.333 7.66699 313 -25c28 -12 41.167 -27.667 39.5 -47s-5.5 -38 -11.5 -56c-10 -30 -36 -36.333 -78 -19
c-34 13.333 -81.333 24.333 -142 33c-39.333 5.33301 -82.333 5.66602 -129 0.999023c-9.33301 -96.667 -23.5 -191.5 -42.5 -284.5s-36.5 -173.5 -52.5 -241.5c58.667 22 113.667 46.167 165 72.5s95 46.5 131 60.5c50.667 20 87 29.833 109 29.5s43.333 -7.5 64 -21.5
c20 -15.333 31.5 -31.166 34.5 -47.499s-6.5 -47.166 -28.5 -92.499c-34 -70 -94 -155.5 -180 -256.5s-179.667 -191.833 -281 -272.5c-52.667 -42 -107 -79 -163 -111l-12 -48c-25.333 -124 -34 -205.333 -26 -244c4 -20.667 19 -27 45 -19
c12.667 5.33301 21.334 3 26.001 -7s-1.66602 -26.667 -18.999 -50c-13.333 -17.333 -32 -28.666 -56 -33.999s-46 3.66699 -66 27c-19.333 22 -29 54.167 -29 96.5s3 85.5 9 129.5c2.66699 26 8 58.333 16 97c-26 -9.33301 -50.667 -16.333 -74 -21
c-58 -10 -84 -8.5 -78 4.5s28.333 26.5 67 40.5c31.333 10.667 64.333 27 99 49c4 20.667 7.83301 39 11.5 55s6.5 29 8.5 39c6 44.667 16.333 101.167 31 169.5s30 135.5 46 201.5c-52 -11.333 -103.833 -16.333 -155.5 -15s-97.167 16 -136.5 44
c-47.333 32 -82 77.5 -104 136.5s-27.667 120.5 -17 184.5c17.333 102 79.333 189.167 186 261.5s223.334 124.5 350.001 156.5c0.666992 24.667 1.16699 48.167 1.5 70.5s0.5 43.166 0.5 62.499c-1.33301 104 4.66699 162 18 174zM615.996 1184
c-88 -24 -167 -57.333 -237 -100c-65.333 -40 -113.333 -88.667 -144 -146s-42.667 -111 -36 -161s33.167 -89.833 79.5 -119.5s114.5 -36.5 204.5 -20.5c14.667 2 29.667 5 45 9c0.666992 4 1.5 8 2.5 12s2.16699 8 3.5 12c23.333 90.667 41.333 180 54 268s22 170 28 246z
M529.996 158c36.667 31.333 76.334 67.666 119.001 108.999c58.667 58 119.167 126.333 181.5 205s113.166 146.334 152.499 203.001c20 30 25.667 45.667 17 47s-20.667 -2.66699 -36 -12c-76.667 -48.667 -172 -91.667 -286 -129l-26.5 -8.5
c-9 -3 -18.167 -5.83301 -27.5 -8.5c-3.33301 -15.333 -5 -24 -5 -26c-6 -37.333 -18.167 -93.5 -36.5 -168.5z" />
    <glyph glyph-name="percent" unicode="%" horiz-adv-x="1466" 
d="M1203 1431c52.667 3.33301 84.667 -15.667 96 -57c5.33301 -20.667 -1.66699 -36.334 -21 -47.001s-39 -29.667 -59 -57l-322.5 -456l-346.5 -521l-211 -339c-57.333 -96.667 -87.666 -148 -90.999 -154c-26.667 -39.333 -20.334 -57 18.999 -53
c31.333 4 41.666 -4.66699 30.999 -26s-33.667 -34.666 -69 -39.999c-74 -9.33301 -111 4.66699 -111 42s14 80.333 42 129c4 8 28.667 52.5 74 133.5s86 150.5 122 208.5c122 198.667 248.833 395.167 380.5 589.5l398.5 581.5c30.667 42.667 53.334 64.667 68.001 66z
M1032 600c50 56 111.334 89.167 184.001 99.5s127 -31.167 163 -124.5c16 -45.333 24.667 -88.666 26 -129.999c2.66699 -79.333 -13.333 -152.833 -48 -220.5s-70 -123.834 -106 -168.501c-124 -154 -224.667 -194.167 -302 -120.5s-104 181.5 -80 323.5
c10.667 66 31.167 129 61.5 189s64.166 110.667 101.499 152zM1091 492c-38 -54 -67.832 -110.167 -89.499 -168.5s-30.5 -117.833 -26.5 -178.5c3.33301 -54.667 20.166 -89.834 50.499 -105.501s72.833 6.5 127.5 66.5c49.333 54 84.333 113.667 105 179
s32 119.333 34 162c2 80.667 -22.5 120.334 -73.5 119.001s-93.5 -26 -127.5 -74zM209.002 1241c35.333 56.667 84.165 95.3311 146.498 115.998s116.5 -7 162.5 -83c21.333 -37.333 36 -74 44 -110c14.667 -69.333 12.167 -136.333 -7.5 -201s-41.5 -119.667 -65.5 -165
c-85.333 -155.333 -167.666 -206.666 -246.999 -153.999s-119.666 143.334 -120.999 272.001c-1.33301 59.333 6.5 117.833 23.5 175.5s38.5 107.5 64.5 149.5zM285.001 1151c-23.333 -49.333 -39.833 -101.668 -49.5 -157.001s-8.5 -107 3.5 -155
c10.667 -44 29 -70.667 55 -80s57 14.334 93 71.001c32 51.333 52.667 107 62 167s11.333 107.333 6 142c-10 66 -35.667 95.5 -77 88.5s-72.333 -32.5 -93 -76.5z" />
    <glyph glyph-name="ampersand" unicode="&#x26;" horiz-adv-x="986" 
d="M355 909c28 24.667 62.6689 19.333 104.002 -16c24 -21.333 37.333 -49.333 40 -84c1.33301 -30 2 -59.167 2 -87.5s2 -57.5 6 -87.5c1.33301 -14 3.33301 -36.5 6 -67.5s6 -66.167 10 -105.5c91.333 16.667 183.333 39 276 67s173.334 56 242.001 84
c30.667 12.667 49.167 15 55.5 7s-5.5 -21 -35.5 -39c-74 -44 -149.5 -85.167 -226.5 -123.5s-177.5 -74.833 -301.5 -109.5c5.33301 -64 10 -124 14 -180s6 -92 6 -108c0 -28 -6.16699 -41.167 -18.5 -39.5l-18.5 2.5l-8 4.5c-5.33301 3 -12 6.5 -20 10.5
c-12 -20 -18.667 -31.333 -20 -34c-6 -7.33301 -14 -14.833 -24 -22.5s-23 -0.833984 -39 20.499c-16 22 -38.667 62 -68 120s-49 95.333 -59 112c-26.667 40 -48.334 66.333 -65.001 79l-75.5 50c-37.667 24.667 -59.5 41.667 -65.5 51l-20 32
c-7.33301 12 -7.66602 31 -0.999023 57c6.66699 25.333 17.5 43.5 32.5 54.5s35.833 4.5 62.5 -19.5c34.667 -32 82 -61 142 -87c24 -11.333 59.333 -14.333 106 -9c0.666992 0 1.66699 0.166992 3 0.5s2.66602 0.5 3.99902 0.5
c-10.667 66.667 -21.834 132.334 -33.501 197.001l-24.5 136c-8 39.333 -12.333 68 -13 86s7.66602 34 24.999 48zM419.002 316.999c-2 -0.666992 -3.83398 -1.16797 -5.50098 -1.50098s-3.5 -0.5 -5.5 -0.5c-24 -6.66699 -27 -20 -9 -40l14 -18
c4.66699 -6 9.33398 -11.667 14.001 -17c0 4.66699 -0.333008 8.33398 -1 11.001c-0.666992 8.66699 -3 30.667 -7 66z" />
    <glyph glyph-name="quotesingle" unicode="'" horiz-adv-x="543" 
d="M293 1012c12.667 5.33301 27.5 7.33203 44.5 5.99902s31.5 -12.333 43.5 -33c18.667 -34 20.5 -72.5 5.5 -115.5s-26.5 -74.167 -34.5 -93.5c-15.333 -38 -25 -78.333 -29 -121c-2 -17.333 -8.33301 -27.666 -19 -30.999s-23 10.334 -37 41.001
c-14 30 -23.167 69.667 -27.5 119s-4.5 93 -0.5 131c4.66699 51.333 22.667 83.666 54 96.999z" />
    <glyph glyph-name="parenleft" unicode="(" horiz-adv-x="884" 
d="M548 1321c31.333 26 76.335 44.666 135.002 55.999s75.334 -20 50.001 -94c-5.33301 -16 -37.5 -38.667 -96.5 -68s-116.5 -85 -172.5 -167c-90 -129.333 -165 -275 -225 -437s-83 -307 -69 -435c13.333 -126.667 64.666 -185.167 153.999 -175.5
s149.666 25.834 180.999 48.501c30.667 22 46.5 22.5 47.5 1.5s-9.16699 -44.167 -30.5 -69.5c-18 -20.667 -50 -43 -96 -67s-94 -34.667 -144 -32s-96.333 26 -139 70s-69.334 123.667 -80.001 239c-12 116.667 -3 233.167 27 349.5s70.5 225.333 121.5 327
s107 192 168 271s117.167 139.833 168.5 182.5z" />
    <glyph glyph-name="parenright" unicode=")" horiz-adv-x="809" 
d="M196 1343c-37.333 32.667 -56.335 63.668 -57.002 93.001c-1.33301 14.667 12.5 27.334 41.5 38.001s61.5 1.66699 97.5 -27c192 -158 318.833 -300.667 380.5 -428s89.834 -262 84.501 -404c-6 -145.333 -47.833 -283.5 -125.5 -414.5s-175.167 -285.5 -292.5 -463.5
c-23.333 -34.667 -46.166 -47.5 -68.499 -38.5s-35.5 23.5 -39.5 43.5c-4.66699 21.333 -3 42.666 5 63.999s16 36.666 24 45.999c152 201.333 255 374.333 309 519s72.333 273 55 385s-64 213.833 -140 305.5s-167.333 185.5 -274 281.5z" />
    <glyph glyph-name="asterisk" unicode="*" horiz-adv-x="1896" 
d="M1017 1526c-10 -58 -30.5 -138.167 -61.5 -240.5l-93.5 -294.5l166.5 12.5l166.5 13.5l-38.5 132l-41.5 145c-14.667 48.667 -31 92.5 -49 131.5s-34.333 72.5 -49 100.5zM109 947c-46 32 -60 65.002 -42 99.002c16.667 34 53.667 36.667 111 8
c30 -14.667 73.667 -41.334 131 -80.001c74 -2 150.5 -2 229.5 0s159.167 5.66699 240.5 11c14.667 41.333 23 65.333 25 72c7.33301 20.667 18.666 56.167 33.999 106.5l47 160.5c16 56.667 30.5 110.5 43.5 161.5s20.5 87.5 22.5 109.5c0 7.33301 0.5 14.333 1.5 21
s1.83301 13 2.5 19c-6 18 -9.5 37.667 -10.5 59s4.83301 36 17.5 44c43.333 24.667 83.333 4.66699 120 -60c62 -116 112.167 -231.833 150.5 -347.5s68.166 -216.5 89.499 -302.5l232 18.5c74.667 5.66699 145.667 9.83398 213 12.501
c21.333 0.666992 43.833 -3.66602 67.5 -12.999s17.167 -44 -19.5 -104c-10.667 -16 -30 -31.667 -58 -47s-60 -35 -96 -59l-275 -187c10.667 -114 17.834 -224.5 21.501 -331.5s6.5 -181.167 8.5 -222.5c1.33301 -54.667 -3 -91.667 -13 -111c-14 -26 -35 -38.333 -63 -37
s-49.667 12 -65 32l-181 233.5c-43.333 55.667 -85.666 104.5 -126.999 146.5l-38.5 -28l-30.5 -23c-48 -37.333 -89 -70.833 -123 -100.5s-63.333 -61.167 -88 -94.5c-38.667 -50 -61.334 -91.333 -68.001 -124c-8 -33.333 -23.333 -53.5 -46 -60.5s-37 -3.16699 -43 11.5
c-12.667 29.333 -11.667 67.666 3 114.999c8.66699 28 19.167 50.167 31.5 66.5s28.5 35.166 48.5 56.499c27.333 29.333 62 64.666 104 105.999s90 83 144 125c6 4 15 10.667 27 20c-50.667 40.667 -105 82 -163 124c-16 -71.333 -27.333 -129.5 -34 -174.5
s-14.667 -74.833 -24 -89.5c-42.667 -66.667 -75.667 -81 -99 -43c-10 14.667 -16.833 29.167 -20.5 43.5s-0.5 34.833 9.5 61.5l30.5 88l58.5 168l-120 84c-80 56 -157.667 104.167 -233 144.5s-136.666 77.5 -183.999 111.5zM1251 180.002
c22.667 -27.333 37.833 -35.167 45.5 -23.5s11.5 29.834 11.5 54.501c0 38.667 -1.66699 88.167 -5 148.5s-10.333 133.166 -21 218.499l-119 -82l-109 -75c37.333 -40 72 -81.667 104 -125s63 -82 93 -116zM974.999 495.001l289.001 211c-2 18 -5 36 -9 54
c-7.33301 40 -18 90 -32 150l-200.5 -21c-69.667 -7.33301 -136.834 -14 -201.501 -20l-27 -78l-20 -57c-4.66699 -15.333 -11.667 -40.333 -21 -75l103.5 -76.5l95.5 -69.5l11.5 -9.5c3.66699 -3 7.5 -5.83301 11.5 -8.5zM682 710.001l26.999 77l26 74
c-47.333 -5.33301 -90.666 -10 -129.999 -14l-99 -10l86.5 -62.5zM1347 922.001c8.66699 -42 16.666 -89.333 23.999 -142c76.667 52.667 144.334 97 203.001 133c30.667 19.333 27.667 29 -9 29c-10 0 -82.667 -6.66699 -218 -20z" />
    <glyph glyph-name="plus" unicode="+" horiz-adv-x="1554" 
d="M575 645c-2 30.667 -7.50098 88.8359 -16.501 174.503s-14.5 141.167 -16.5 166.5c-4 33.333 -4.66699 56 -2 68s9.33398 22.667 20.001 32c16 13.333 39.333 13.333 70 0s46 -36.333 46 -69c0 -16 1.83301 -62.5 5.5 -139.5s8.83398 -147.5 15.501 -211.5
c2 -36.667 3.66699 -70 5 -100c111.333 16 214.333 36.333 309 61s189 52.334 283 83.001c54 17.333 79 15.666 75 -5.00098s-18.667 -38 -44 -52c-82 -45.333 -178.833 -87 -290.5 -125s-222.5 -67 -332.5 -87c-0.666992 -48 -1.83398 -93.333 -3.50098 -136
s-3.16699 -76.334 -4.5 -101.001c-2.66699 -46.667 -9.83398 -72.334 -21.501 -77.001s-29.5 -10.667 -53.5 -18c-20 -6.66699 -32.333 0.666016 -37 21.999s-7.66699 45.666 -9 72.999c-0.666992 3.33301 -0.5 26.833 0.5 70.5l3.5 146.5
c-37.333 -5.33301 -80.666 -9 -129.999 -11c-77.333 -2 -134 18 -170 60c-17.333 18.667 -23 38.334 -17 59.001s35.667 31 89 31c44 0 81.667 -2 113 -6s70 -4.66699 116 -2c0 38 -1 69 -3 93z" />
    <glyph glyph-name="comma" unicode="," horiz-adv-x="455" 
d="M152 120c29.333 15.333 53.333 11.665 72 -11.002c20.667 -29.333 27 -60.333 19 -93c-6 -21.333 -23 -63.666 -51 -126.999s-47.667 -103.666 -59 -120.999c-12 -16 -28.5 -24.5 -49.5 -25.5s-31.5 12.833 -31.5 41.5c-0.666992 28.667 5.83301 75.167 19.5 139.5
l24.5 114.5c4 19.333 12.833 37 26.5 53s23.5 25.667 29.5 29z" />
    <glyph glyph-name="hyphen" unicode="-" horiz-adv-x="733" 
d="M118 412c26.667 14 55.667 22.1689 87 24.502s71 2.5 119 0.5c56 -2.66699 108.167 -11.5 156.5 -26.5s101.833 -26.167 160.5 -33.5c30 -4 44.5 -11.667 43.5 -23s-11.833 -20 -32.5 -26c-40.667 -12.667 -107 -20.834 -199 -24.501s-148 -6.5 -168 -8.5
c-20.667 -2 -48 -4.83301 -82 -8.5s-67 1.16602 -99 14.499c-38 14.667 -50.167 34.167 -36.5 58.5s30.5 41.833 50.5 52.5z" />
    <glyph glyph-name="period" unicode="." horiz-adv-x="467" 
d="M197 200c24 -2 45.998 -10.334 65.998 -25.001s30 -35 30 -61c-1.33301 -30 -7.16602 -51.667 -17.499 -65s-24.5 -27.666 -42.5 -42.999c-34 -26 -59 -28.333 -75 -7c-8 8.66699 -17.667 23 -29 43s-16.666 47.667 -15.999 83c0 34 11.5 55 34.5 63s39.5 12 49.5 12z
" />
    <glyph glyph-name="slash" unicode="/" horiz-adv-x="1327" 
d="M1388 1683c16 -5.33301 30.6699 -18.1699 44.0029 -38.5029s9.66602 -41.166 -11.001 -62.499c-24 -24 -45.333 -47 -64 -69s-39.667 -50 -63 -84c-10.667 -15.333 -61.667 -84.833 -153 -208.5l-298 -402.5l-298 -400.5
c-91.333 -122.333 -142.333 -190.166 -153 -203.499c-22 -27.333 -46.833 -62.833 -74.5 -106.5s-45.5 -79.5 -53.5 -107.5l-15 -56c-5.33301 -20 -25 -37 -59 -51c-26.667 -10.667 -42.167 -5.5 -46.5 15.5s-3.33301 47 3 78s15.166 61.667 26.499 92
s19.666 49.833 24.999 58.5c28 46 61.667 95.167 101 147.5l109 143.5l235 308.5l259 344.5l214.5 288l102.5 139c19.333 28 34.333 51.333 45 70s23 38 37 58c29.333 40.667 58.333 56.334 87 47.001z" />
    <glyph glyph-name="zero" unicode="0" horiz-adv-x="796" 
d="M204 999c95.333 138.667 179 211.333 251 218s129.667 -24.666 173 -93.999s71.5 -162.333 84.5 -279s8.5 -228 -13.5 -334c-9.33301 -44 -36 -116.833 -80 -218.5s-111 -188.167 -201 -259.5c-84.667 -66 -152 -80 -202 -42s-85.333 82.333 -106 133
c-50 118 -65.333 266.667 -46 446s66 322.666 140 429.999zM353 944.999c-30 -40.667 -57.501 -90.333 -82.501 -149s-41.833 -127.667 -50.5 -207c-6 -50 -9.33301 -111.167 -10 -183.5s6.33301 -129.166 21 -170.499c9.33301 -26.667 25.333 -52.667 48 -78
s57.334 -13 104.001 37c86 90.667 145 201.667 177 333s33 257.666 3 378.999c-40 160.667 -110 173.667 -210 39z" />
    <glyph glyph-name="one" unicode="1" horiz-adv-x="556" 
d="M229 1102c14 8 32.168 12.8311 54.501 14.498s39.166 -5.16602 50.499 -20.499c34 -50.667 51.667 -125.667 53 -225c0 -36 -3.83301 -92.667 -11.5 -170s-16.667 -158.333 -27 -243l-30 -238.5l-20.5 -156.5c-8.66699 -58.667 -20.334 -100.167 -35.001 -124.5
s-45 -40.166 -91 -47.499c-46.667 -6 -63 32.833 -49 116.5s29.333 192.167 46 325.5c16 132.667 26.833 265.167 32.5 397.5s7.83398 209.5 6.50098 231.5c-2 22 -2 49.333 0 82s9 52 21 58z" />
    <glyph glyph-name="two" unicode="2" horiz-adv-x="1365" 
d="M152 828c-14.667 14.667 -21.499 40.0029 -20.499 76.0029s23.833 58.667 68.5 68c90 18.667 207.833 29.834 353.5 33.501s269.5 -3.5 371.5 -21.5c69.333 -12 116.333 -35.333 141 -70s37 -71.667 37 -111c-0.666992 -66 -20.334 -116.667 -59.001 -152
s-82 -71.333 -130 -108l-340 -250c-128.667 -92.667 -202 -145 -220 -157c-24.667 -17.333 -32.667 -26.333 -24 -27s17.334 -0.666992 26.001 0c49.333 0.666992 98.666 -0.5 147.999 -3.5s97 -5.5 143 -7.5c44.667 -2.66699 89 -6 133 -10s86.667 -7.66699 128 -11
c114 -8.66699 222.667 -13.834 326 -15.501s206.333 8.16602 309 29.499c42 8 72 3.66699 90 -13s3.33301 -33 -44 -49c-135.333 -44.667 -284.333 -71.334 -447 -80.001c-90 -4 -182.5 -4 -277.5 0l-289.5 12c-78 3.33301 -157.167 5.33301 -237.5 6s-160.5 1 -240.5 1
c-51.333 0 -70 16.667 -56 50s27 56.666 39 69.999c14.667 16.667 59 52.834 133 108.501l244 182.5l255 191c81.333 61.333 137 105.666 167 132.999c52 47.333 58.333 88.666 19 123.999c-26 22.667 -98.167 32.334 -216.5 29.001s-201.166 -7 -248.499 -11
c-52.667 -4 -69.334 -18.667 -50.001 -44c9.33301 -14 11.833 -26.667 7.5 -38s-21.5 -15 -51.5 -11c-34 4 -69.5 13.167 -106.5 27.5s-63.833 30.5 -80.5 48.5z" />
    <glyph glyph-name="three" unicode="3" horiz-adv-x="948" 
d="M63 923c-21.333 24 -8.66504 44.1699 38.002 60.5029s129 37.833 247 64.5c68 14.667 135.5 19.667 202.5 15s131.5 -25 193.5 -61c142.667 -84.667 141.334 -168 -3.99902 -250c-38 -22 -78.167 -43.833 -120.5 -65.5l-93.5 -47.5
c-31.333 -16 -39.666 -27.667 -24.999 -35s27.334 -12 38.001 -14c11.333 -2 53 -9.83301 125 -23.5s126 -27.834 162 -42.501c28.667 -12 47.5 -31.333 56.5 -58s-2.5 -67.667 -34.5 -123c-42.667 -73.333 -100.167 -137.666 -172.5 -192.999
s-145.833 -101.833 -220.5 -139.5s-143.5 -66.5 -206.5 -86.5s-106.5 -31.333 -130.5 -34c-48.667 -4 -75 3.66699 -79 23s2.33301 42.666 19 69.999c14 22.667 39.5 39 76.5 49s70.5 21 100.5 33c83.333 32 174.5 78.167 273.5 138.5s161.167 109.166 186.5 146.499
c25.333 38 29.166 60.833 11.499 68.5s-42.167 14.5 -73.5 20.5l-127 20.5c-47.333 7.66699 -83 16.5 -107 26.5c-28.667 11.333 -53.334 28.166 -74.001 50.499s-31 43.5 -31 63.5c0 36.667 17.333 71 52 103c17.333 16 60.166 38.667 128.499 68s119.5 54 153.5 74
c32.667 20 30.667 37.833 -6 53.5s-75.334 24.5 -116.001 26.5c-28.667 1.33301 -74.334 -6 -137.001 -22s-110.334 -29.667 -143.001 -41c-33.333 -11.333 -64.666 -9 -93.999 7s-52.333 34 -69 54z" />
    <glyph glyph-name="four" unicode="4" horiz-adv-x="1074" 
d="M263 1029c36 9.33301 61.999 -0.665039 77.999 -29.998c14.667 -26 17.334 -59 8.00098 -99c-6 -22.667 -27.667 -68.5 -65 -137.5s-58 -125.167 -62 -168.5c-4 -38 1.5 -77.333 16.5 -118s38.167 -66.667 69.5 -78c54 -20 99.5 -25.833 136.5 -17.5
s70.167 20.166 99.5 35.499l61 186l39 118c16.667 48 34.667 115.667 54 203l47 214c4 21.333 16.667 36.166 38 44.499s38.333 9.5 51 3.5c18.667 -10 36.667 -23.833 54 -41.5s19.333 -50.834 6 -99.501c-7.33301 -25.333 -28.833 -91.333 -64.5 -198l-113.5 -339
l134.5 67c45.667 22 82.5 37.333 110.5 46c48 15.333 69.167 11.833 63.5 -10.5s-26.5 -44.166 -62.5 -65.499c-52 -30 -102.167 -65.833 -150.5 -107.5s-100.5 -79.5 -156.5 -113.5l-61 -192c-16.667 -54 -26 -88 -28 -102c-6 -40 -6.16699 -66.5 -0.5 -79.5l8.5 -19.5
l16.5 -21c11 -14 6.5 -33.333 -13.5 -58c-20.667 -24 -53.5 -48 -98.5 -72s-75.5 -21 -91.5 9c-27.333 49.333 -19.666 125 23.001 227c4.66699 12 14.334 40 29.001 84l51 153c-20 -5.33301 -35.667 -8.66602 -47 -9.99902c-70.667 -12 -132.334 -6.5 -185.001 16.5
s-95.334 57.167 -128.001 102.5c-36.667 50 -56 103.667 -58 161s3 102 15 134l45.5 133.5l49.5 139.5c21.333 57.333 48.333 90.666 81 99.999z" />
    <glyph glyph-name="five" unicode="5" horiz-adv-x="1061" 
d="M285 1094c64 -15.333 135.498 -24.002 214.498 -26.002s152.167 -1.66699 219.5 1c33.333 1.33301 56.5 0.333008 69.5 -3s24.5 -7 34.5 -11c18 -8.66699 27 -22.667 27 -42s-11 -36 -33 -50c-28.667 -19.333 -67.667 -29.333 -117 -30
c-70 -0.666992 -145 1.16602 -225 5.49902s-129 8.5 -147 12.5c-18 3.33301 -26 -3 -24 -19c2 -19.333 0.833008 -57.166 -3.5 -113.499s-9.16602 -103.833 -14.499 -142.5c-3.33301 -15.333 2 -21.666 16 -18.999c74 14 144.667 30 212 48s129.666 31 186.999 39
c26 3.33301 58.5 5.66602 97.5 6.99902s73.833 -4.83398 104.5 -18.501s51.834 -37.667 63.501 -72s3.16699 -85.5 -25.5 -153.5c-58.667 -138.667 -141.5 -265.167 -248.5 -379.5s-235.5 -190.166 -385.5 -227.499c-62.667 -15.333 -104 -11.166 -124 12.501
s-32.667 43.5 -38 59.5c-14 38 -1.33301 65.667 38 83c22.667 10.667 47 9.66699 73 -3c10.667 -5.33301 30.667 -5.33301 60 0s55 14 77 26c66.667 38 131.334 86.667 194.001 146s121 137 175 233c18.667 34 31.5 73.5 38.5 118.5s-22.833 58.5 -89.5 40.5
c-58 -16 -146.833 -38.833 -266.5 -68.5s-190.167 -45.5 -211.5 -47.5c-30 -3.33301 -60.833 -0.166016 -92.5 9.50098s-42.5 41.167 -32.5 94.5c10 58 16.5 102.667 19.5 134s7.16699 78 12.5 140c2.66699 34 0.5 64.167 -6.5 90.5s-11.833 50.5 -14.5 72.5
c-6 39.333 2.5 62 25.5 68s69.833 1 140.5 -15z" />
    <glyph glyph-name="six" unicode="6" horiz-adv-x="771" 
d="M266 622c38 30 89.999 43.835 155.999 41.502s120.667 -31.833 164 -88.5c53.333 -70 70.166 -162.5 50.499 -277.5s-58.167 -209.167 -115.5 -282.5c-50 -63.333 -113.167 -103.833 -189.5 -121.5s-142.166 18.166 -197.499 107.499
c-56 89.333 -79.333 190.166 -70 302.499s21 193.5 35 243.5c10 38.667 26.167 91.667 48.5 159s51.5 137.333 87.5 210s78.833 141.834 128.5 207.501s107.5 116.5 173.5 152.5c22.667 12.667 47.834 18.667 75.501 18s49.5 -4.33398 65.5 -11.001
c19.333 -8.66699 29.5 -26.5 30.5 -53.5s-20.5 -48.833 -64.5 -65.5c-50.667 -20 -114.5 -77.333 -191.5 -172s-139.167 -218 -186.5 -370zM241.999 425.002c-25.333 -48 -37.667 -104.499 -37 -169.499s14 -114.167 40 -147.5c62.667 -78.667 125 -71.334 187 21.999
c30 46 48.833 99.333 56.5 160s3.16699 114 -13.5 160c-16 42.667 -52.333 61.667 -109 57s-98 -32 -124 -82z" />
    <glyph glyph-name="seven" unicode="7" horiz-adv-x="1024" 
d="M85 867c0 50 -2.49609 93.999 -7.49609 131.999s-6.83301 71.667 -5.5 101c0 16 3.66699 33.167 11 51.5s30.666 20.5 69.999 6.5c30.667 -12 105 -37.5 223 -76.5s223.333 -64.5 316 -76.5c47.333 -6.66699 82.5 -10.5 105.5 -11.5s44.5 -0.5 64.5 1.5
c18 2 46 -3 84 -15s45 -41 21 -87c-15.333 -28 -54.833 -84.667 -118.5 -170l-203.5 -270l-198 -262.5c-60 -80.333 -93.333 -128.833 -100 -145.5c-24.667 -54.667 -17 -75.667 23 -63c15.333 6 32.666 8.83301 51.999 8.5s11 -18.833 -25 -55.5
c-16.667 -16 -35 -30.667 -55 -44s-45.667 -22.666 -77 -27.999c-22.667 -3.33301 -43.167 -0.666016 -61.5 8.00098s-25.5 36 -21.5 82c2.66699 34.667 10.167 68.5 22.5 101.5s39.166 80.5 80.499 142.5c57.333 86 136.666 195.5 237.999 328.5l227 301.5
c13.333 19.333 5.33301 30 -24 32c-82 3.33301 -165.833 15 -251.5 35s-146.5 37 -182.5 51c-24.667 10 -49.667 13 -75 9s-40.333 -17.333 -45 -40c-10 -43.333 -27 -73.833 -51 -91.5s-36 -2.83398 -36 44.499z" />
    <glyph glyph-name="eight" unicode="8" horiz-adv-x="1188" 
d="M806 980c-26 -8 -53.1719 -9.50391 -81.5049 -4.50391s-50.5 10.833 -66.5 17.5c-34 14.667 -81.5 26.5 -142.5 35.5s-127.167 -14.833 -198.5 -71.5c-55.333 -44 -89.666 -95.167 -102.999 -153.5s0.333984 -107.5 41.001 -147.5c44 -44 86.833 -70.333 128.5 -79
l62.5 -13c146.667 141.333 273.5 240.333 380.5 297l386.5 201c66 33.333 107.167 43 123.5 29s-9.5 -40.667 -77.5 -80c-85.333 -50 -199.333 -121.833 -342 -215.5s-251 -185.5 -325 -275.5c78 -9.33301 159.833 -27.166 245.5 -53.499s99.834 -99.5 42.501 -219.5
c-25.333 -52 -66.166 -114.833 -122.499 -188.5s-106.5 -124.5 -150.5 -152.5c-44 -27.333 -89.5 -37.166 -136.5 -29.499s-86.5 28.834 -118.5 63.501c-58 64 -79.167 149 -63.5 255s34.167 188.333 55.5 247l-54.5 14c-36.333 9.33301 -79.5 39 -129.5 89
s-82.667 117 -98 201s6 159 64 225c57.333 64.667 129.833 116 217.5 154s194.834 39 321.501 3c78 -23.333 129.667 -48.666 155 -75.999c12.667 -14.667 16 -29.667 10 -45s-14 -24.333 -24 -27zM496.995 404.996c-16 -20 -33.501 -60.832 -52.501 -122.499
s-23.167 -122.5 -12.5 -182.5c16 -96 52.5 -119.667 109.5 -71s97.167 90 120.5 124c33.333 46.667 58.333 86 75 118c16.667 30.667 17.834 56 3.50098 76s-35.833 32 -64.5 36l-91.5 10.5c-37 4.33301 -66.167 8.16602 -87.5 11.499z" />
    <glyph glyph-name="nine" unicode="9" horiz-adv-x="948" 
d="M793 1122c16 -8 30.332 -26 42.999 -54s15.334 -58 8.00098 -90c-4 -16.667 -11 -57.5 -21 -122.5s-20.667 -139.5 -32 -223.5s-22.333 -170.5 -33 -259.5s-19 -165.833 -25 -230.5c-6 -58 -6.83301 -100.5 -2.5 -127.5s11.833 -58.167 22.5 -93.5
c6.66699 -23.333 -1 -45.666 -23 -66.999c-23.333 -20.667 -49.333 -24.334 -78 -11.001s-50.667 69.333 -66 168c-16 101.333 14 348 90 740c-38 -63.333 -88.667 -132 -152 -206s-149 -128 -257 -162c-30.667 -10 -71.667 -13.167 -123 -9.5s-81 51.167 -89 142.5
c-10 101.333 4.16699 194.5 42.5 279.5s102.5 178.5 192.5 280.5c89.333 101.333 189 137.333 299 108s178 -50 204 -62zM682.999 1000c-8.66699 9.33301 -26.5 19.6699 -53.5 31.0029s-57.5 16.666 -91.5 15.999c-50.667 -2 -93.834 -21.333 -129.501 -58
s-67.5 -74.334 -95.5 -113.001c-32 -42.667 -59.5 -86.5 -82.5 -131.5s-36.5 -87.5 -40.5 -127.5c-3.33301 -30 0.5 -57.833 11.5 -83.5s46.5 -21.834 106.5 11.499c72 40 144.833 109.667 218.5 209s125.834 181.333 156.501 246z" />
    <glyph glyph-name="colon" unicode=":" horiz-adv-x="670" 
d="M205 834c-4 42 14.332 66.332 54.999 72.999c38 4.66699 61.333 -11.666 70 -48.999c10 -47.333 26.667 -90.333 50 -129c10 -16.667 19.333 -38.5 28 -65.5s-9.66602 -34.167 -54.999 -21.5c-18.667 5.33301 -46.5 20 -83.5 44s-58.5 73.333 -64.5 148zM280.999 224.999
c31.333 -2 59.168 -15.166 83.501 -39.499s44.5 -47.5 60.5 -69.5c22 -32 28.5 -56 19.5 -72s-30.167 -20 -63.5 -12c-30.667 7.33301 -60.167 20.166 -88.5 38.499s-46.5 38.5 -54.5 60.5c-15.333 37.333 -15.333 62.333 0 75s29.666 19 42.999 19z" />
    <glyph glyph-name="semicolon" unicode=";" horiz-adv-x="695" 
d="M316 790c-44 44.667 -49.168 82 -15.501 112s71.834 27 114.501 -9c42.667 -36.667 68.667 -76 78 -118c8.66699 -46 -11.333 -65.667 -60 -59c-32.667 3.33301 -71.667 28 -117 74zM448.999 290c32.667 -20 42.333 -52.999 29 -98.999
c-26 -90 -59.667 -161.833 -101 -215.5s-83 -100.834 -125 -141.501c-20.667 -20 -34.5 -23.667 -41.5 -11s-3.5 32 10.5 58c34 64.667 59.167 121.334 75.5 170.001s31.5 106 45.5 172c16 77.333 51.667 99.666 107 66.999z" />
    <glyph glyph-name="less" unicode="&#x3c;" horiz-adv-x="1441" 
d="M984 1490c57.333 -23.333 67 -62.3301 29 -116.997c-18 -26 -48 -63.333 -90 -112s-91 -100.667 -147 -156l-279.5 -260l-137.5 -122c-14.667 -20.667 -14.667 -37.334 0 -50.001c82 -74.667 176.167 -143.167 282.5 -205.5l310.5 -181.5
c100.667 -58.667 191 -117.667 271 -177s135 -123.333 165 -192c21.333 -48.667 25.5 -71.5 12.5 -68.5s-30.167 17.5 -51.5 43.5c-58 68 -129.333 123 -214 165l-276 141c-78 40 -164 88 -258 144s-192 120 -294 192c-16 11.333 -35.167 22.166 -57.5 32.499
s-42.166 21.166 -59.499 32.499c-24 14.667 -37.167 35.667 -39.5 63s6.5 52 26.5 74c15.333 16.667 33 32.5 53 47.5s39.667 30.833 59 47.5l171.5 148.5c58.333 50.333 113.166 102.5 164.499 156.5c66.667 70 124.5 137.5 173.5 202.5s76.167 101.5 81.5 109.5
c10 14 25.833 26 47.5 36s40.5 12 56.5 6z" />
    <glyph glyph-name="equal" unicode="=" horiz-adv-x="1656" 
d="M208 789c-2 11.333 -2.83398 28.333 -2.50098 51s30.5 39 90.5 49c66.667 11.333 149.334 13 248.001 5s197.167 -20 295.5 -36s189 -32.833 272 -50.5l180.5 -38.5c74 -17.333 99.333 -33.5 76 -48.5s-61 -22.5 -113 -22.5c-68.667 0 -175.5 10.333 -320.5 31
s-256.167 32.667 -333.5 36c-37.333 1.33301 -87.166 0.5 -149.499 -2.5s-108.5 -11.167 -138.5 -24.5c-30.667 -14 -54.834 -14 -72.501 0s-28.5 31 -32.5 51zM369.999 362c4 33.333 38.6641 44.666 103.997 33.999c76 -12.667 156.333 -19.5 241 -20.5
s171.334 0.5 260.001 4.5c74 3.33301 144.167 3 210.5 -1s129.833 -5 190.5 -3c58.667 1.33301 84.5 -6.66699 77.5 -24s-23.833 -31.666 -50.5 -42.999c-27.333 -12 -82.666 -20.5 -165.999 -25.5s-167.666 -14.5 -252.999 -28.5c-66 -10.667 -165.833 -16 -299.5 -16
s-227.5 11 -281.5 33c-22 8.66699 -34 20 -36 34s-1 32.667 3 56z" />
    <glyph glyph-name="greater" unicode="&#x3e;" horiz-adv-x="1441" 
d="M239 1553c5.33301 23.333 24.667 26.6689 58 10.002s64.333 -38 93 -64c38 -36 78.5 -72.5 121.5 -109.5s88.5 -72.833 136.5 -107.5c70.667 -52 138.167 -98.167 202.5 -138.5l192.5 -117.5c120 -72.667 210.667 -138.334 272 -197.001c38 -36.667 44.667 -62 20 -76
s-46 -28 -64 -42l-195.5 -141.5c-119 -86.333 -245.5 -184.5 -379.5 -294.5c-101.333 -83.333 -194.833 -166 -280.5 -248s-143.5 -147.333 -173.5 -196l-39.5 -62.5l-18.5 -29.5l-6 -26c-4 -17.333 -13 -33.333 -27 -48c-32 -31.333 -55.667 -26 -71 16
c-16 43.333 6 112.666 66 207.999c24 38 69.667 91.5 137 160.5s147.166 144.833 239.499 227.5s192.833 167.5 301.5 254.5s216.334 167.5 323.001 241.5c24 16 17 37 -21 63c-10 6 -54.833 35.167 -134.5 87.5l-262.5 174l-268 182c-83.333 57.667 -133 95.167 -149 112.5
c-26 26 -46.667 50.833 -62 74.5s-19 52.5 -11 86.5z" />
    <glyph glyph-name="question" unicode="?" horiz-adv-x="1226" 
d="M592 122c29.333 -20 32.667 -42.668 10 -68.001c-28.667 -34 -66.667 -51 -114 -51c-42.667 0 -70.334 19 -83.001 57c-5.33301 16 -3.66602 33.833 5.00098 53.5s19 33.834 31 42.501c34.667 24 68.5 24.333 101.5 1zM150.001 1211
c-27.333 -21.333 -55.0029 -22.335 -83.0029 -3.00195c-22.667 14 -29.667 35.667 -21 65c7.33301 24 27.833 42.833 61.5 56.5s66.834 25.5 99.501 35.5c76 22 200.667 28 374 18s321 -40 443 -90c46.667 -20 87 -48.667 121 -86s33 -85 -3 -143
c-43.333 -69.333 -121.166 -138.166 -233.499 -206.499s-223.833 -132.5 -334.5 -192.5l-131 -72.5c-42.667 -23.667 -79.667 -49.5 -111 -77.5c-27.333 -24 -46.666 -51.833 -57.999 -83.5s0.666992 -60.5 36 -86.5c17.333 -14 24.166 -25.833 20.499 -35.5
s-7.5 -16.5 -11.5 -20.5c-19.333 -15.333 -46.666 -8.66602 -81.999 20.001c-36 26.667 -55.5 63.667 -58.5 111s26.5 102 88.5 164c67.333 67.333 179.5 136.333 336.5 207s287.5 160 391.5 268c32 34 43.333 60.833 34 80.5s-27 35.5 -53 47.5
c-100 45.333 -226.833 72.5 -380.5 81.5s-274.5 -0.166992 -362.5 -27.5c-51.333 -17.333 -79 -27.333 -83 -30z" />
    <glyph glyph-name="at" unicode="@" horiz-adv-x="1858" 
d="M1095 840c-4 -14 -13.668 -29.6689 -29.001 -47.002s-38.666 -19 -69.999 -5c-8 3.33301 -16.167 7.33301 -24.5 12s-17.166 9.33398 -26.499 14.001c-29.333 -112 -49 -202.333 -59 -271s-14.667 -133.667 -14 -195c1.33301 -100.667 30.666 -138.5 87.999 -113.5
s95 44.5 113 58.5c188 143.333 291.333 294.333 310 453s-80.333 318 -297 478c-102 74 -195 104.333 -279 91s-172 -60.666 -264 -141.999c-50 -44 -104.5 -107.167 -163.5 -189.5s-114.5 -196.5 -166.5 -342.5s-71.5 -289.167 -58.5 -429.5s45.833 -241.5 98.5 -303.5
c50 -60.667 106 -100 168 -118s122.667 -25 182 -21s113.833 13.833 163.5 29.5s87.5 26.834 113.5 33.501c36 10 95 32.667 177 68s170.333 76.333 265 123s187.5 95.167 278.5 145.5s164.167 95.5 219.5 135.5c96.667 70 146.5 100.167 149.5 90.5
s-54.833 -59.167 -173.5 -148.5c-68 -50.667 -170.167 -119.5 -306.5 -206.5s-280.166 -164.833 -431.499 -233.5c-186.667 -83.333 -365.834 -127.166 -537.501 -131.499s-299.167 71.167 -382.5 226.5c-56 104 -83.667 218.833 -83 344.5s17 243.5 49 353.5
c34 116 79.167 225.833 135.5 329.5s120.833 192.5 193.5 266.5c98 100 191.167 162.167 279.5 186.5s170.666 25.833 246.999 4.5s146 -58.333 209 -111s118.167 -106 165.5 -160c85.333 -99.333 132.333 -197.833 141 -295.5s-8.16602 -189.834 -50.499 -276.501
s-103.666 -165.334 -183.999 -236.001s-166.5 -128.334 -258.5 -173.001c-106.667 -52 -171.334 -43.667 -194.001 25s-34 113 -34 133v10v11c-27.333 -33.333 -59.333 -62.666 -96 -87.999c-54 -37.333 -95 -50.666 -123 -39.999s-47.5 33.834 -58.5 69.501
s-15.667 78 -14 127s5.5 93.5 11.5 133.5c10 67.333 32.833 136.666 68.5 207.999s73.834 128 114.501 170c63.333 65.333 125 97.166 185 95.499s128 -21.5 204 -59.5c41.333 -22 57.666 -51.667 48.999 -89zM837.999 850.998c-34.667 2 -62.667 -9.33105 -84 -33.998
c-38 -42.667 -77 -97.5 -117 -164.5s-61.333 -147.833 -64 -242.5c-3.33301 -78.667 5.66699 -111.834 27 -99.501s43.333 29.166 66 50.499c26 24.667 58.667 64 98 118c13.333 121.333 38 245.333 74 372z" />
    <glyph glyph-name="A" unicode="A" horiz-adv-x="973" 
d="M326 687c57.333 4.66699 114.5 13.6631 171.5 26.9961s98.5 23.333 124.5 30c1.33301 0 2.66602 0.333008 3.99902 1s3 1.33398 5 2.00098c-6.66699 104.667 -12.167 199.334 -16.5 284.001s-7.16602 133.334 -8.49902 146.001
c-4.66699 32.667 -18.667 33.334 -42 2.00098c-5.33301 -6.66699 -32.833 -61.667 -82.5 -165zM539 1432c20.667 42 47.6621 60.666 80.9951 55.999c24 -4 41.333 -9.33301 52 -16s20 -27 28 -61c8 -36 16.167 -118.667 24.5 -248s14.833 -260 19.5 -392
c91.333 18 161 28 209 30c28 0.666992 44.667 -4 50 -14s-15 -19.333 -61 -28c-23.333 -4 -51.666 -11.333 -84.999 -22l-111 -35c2.66699 -91.333 6.16699 -182.833 10.5 -274.5s9.5 -182.834 15.5 -273.501c0.666992 -16 2.5 -30.5 5.5 -43.5s5.5 -22.5 7.5 -28.5
c8.66699 -33.333 1.66699 -56.333 -21 -69c-34.667 -18 -62.334 -10 -83.001 24c-4 6 -7.66699 15.5 -11 28.5s-5 38.5 -5 76.5c0 18 -3.33301 82.167 -10 192.5s-13 221.5 -19 333.5c-67.333 -22 -131.666 -41.833 -192.999 -59.5s-109.666 -27.167 -144.999 -28.5
c-10 0 -17.667 -0.333008 -23 -1l-83 -186.5c-27.333 -63.667 -44.666 -105.167 -51.999 -124.5c-18 -48 -21.667 -72.333 -11 -73s22 6 34 20c32.667 38 42.667 34 30 -12c-7.33301 -24 -12.5 -42.833 -15.5 -56.5s-16.5 -34.5 -40.5 -62.5
c-38 -44 -69.833 -65.667 -95.5 -65s-40.167 16.334 -43.5 47.001c-7.33301 60 12.667 145.667 60 257l96 225c2.66699 6 5.33398 12.5 8.00098 19.5s5.66699 13.833 9 20.5c-36.667 8 -64.667 23.667 -84 47c-13.333 15.333 -18.166 32.166 -14.499 50.499
s9.5 30.5 17.5 36.5c18 12.667 39.333 9.33398 64 -9.99902c12.667 -11.333 32.667 -19 60 -23l194 454.5c62 143.667 105.667 239.834 131 288.501z" />
    <glyph glyph-name="B" unicode="B" horiz-adv-x="1277" 
d="M128 1491l26.002 9.50488c17.333 6.33301 34.666 4.16602 51.999 -6.50098c10.667 -7.33301 19.834 -26.166 27.501 -56.499s13.5 -63.5 17.5 -99.5c122.667 -22.667 232.5 -35 329.5 -37s204.5 0 322.5 6c95.333 4 158.666 -13.667 189.999 -53
c13.333 -18 22.833 -36.5 28.5 -55.5s5.5 -45.167 -0.5 -78.5c-4.66699 -26 -29 -73 -73 -141s-108 -115 -192 -141c55.333 5.33301 107.5 8 156.5 8s92.5 -11.667 130.5 -35c36.667 -22.667 64.5 -68.667 83.5 -138s-5.5 -149.666 -73.5 -240.999
c-50 -67.333 -141.833 -151.666 -275.5 -252.999s-296.167 -152.666 -487.5 -153.999c-70 -1.33301 -105.333 26 -106 82c0 72.667 35.333 113.667 106 123c20 2.66699 30 -1.83301 30 -13.5s-1.33301 -25.167 -4 -40.5c-3.33301 -16 -3.66602 -27.833 -0.999023 -35.5
s15.334 -8.83398 38.001 -3.50098c113.333 26 206.333 56.833 279 92.5s139 82.167 199 139.5c25.333 24.667 56.166 59 92.499 103s59.666 85.5 69.999 124.5s-1.16699 69.667 -34.5 92s-106.333 24.166 -219 5.49902c-113.333 -19.333 -191.5 -33.333 -234.5 -42
s-72.667 -14.834 -89 -18.501s-31 -5.83398 -44 -6.50098l-98.5 -5c-34 -2 -60.333 16.667 -79 56c-7.33301 13.333 -11.5 27.666 -12.5 42.999s17.5 28 55.5 38c64 16 159.667 46.667 287 92s220 100 278 164c35.333 38.667 62.166 78.167 80.499 118.5
s-36.5 57.5 -164.5 51.5c-128 -6.66699 -238 -4.83398 -330 5.49902s-169.667 23.5 -233 39.5v-3v-2c-0.666992 -21.333 -1.5 -92.166 -2.5 -212.499s-2.16699 -250.5 -3.5 -390.5s-2.5 -269.833 -3.5 -389.5s-1.83301 -189.5 -2.5 -209.5c-2 -40 -4.33301 -67 -7 -81
s-11.667 -27.333 -27 -40c-34 -26 -61.333 -22 -82 12c-9.33301 16 -13.666 30.333 -12.999 43s5 37.667 13 75c2.66699 15.333 5.33398 74.666 8.00098 177.999s4.66699 221.166 6 353.499s2.16602 264.166 2.49902 395.499s-0.166992 233 -1.5 305
c-20.667 6.66699 -38.834 13.167 -54.501 19.5l-39.5 16.5c-26 10 -38.5 24 -37.5 42l1.5 27c0 14 5.16699 19.833 15.5 17.5l43.5 -9.5l62 -15c-14 38.667 -22 59.667 -24 63c-13.333 15.333 -7.33301 37.333 18 66z" />
    <glyph glyph-name="C" unicode="C" horiz-adv-x="1276" 
d="M1018 1263c0 15.333 -1.50098 30.4971 -4.50098 45.4971s-13.167 28.833 -30.5 41.5c-35.333 25.333 -84.5 40.5 -147.5 45.5s-116.833 -2.16699 -161.5 -21.5c-16 -7.33301 -49.5 -25.166 -100.5 -53.499s-105.833 -73.166 -164.5 -134.499
s-113.834 -141.833 -165.501 -241.5s-86.167 -223.834 -103.5 -372.501c-20 -172 -4.66699 -291 46 -357s109.334 -104.667 176.001 -116c100.667 -18 212.834 -0.833008 336.501 51.5s230.5 102.5 320.5 150.5c44 24 88.167 50.167 132.5 78.5s87.5 57.5 129.5 87.5
c78 54 110.333 64 97 30s-34.666 -63.667 -63.999 -89c-62 -54 -137.333 -111.667 -226 -173s-181.5 -115.166 -278.5 -161.499s-193.833 -79.666 -290.5 -99.999s-184 -16.5 -262 11.5c-82 28.667 -141 75.834 -177 141.501s-58.333 135 -67 208
s-9.33398 142.667 -2.00098 209s13.666 114.833 18.999 145.5c8.66699 52.667 27.167 117.834 55.5 195.501s66.5 155.5 114.5 233.5s106 150.5 174 217.5s147 116.5 237 148.5c116 41.333 210.333 48.666 283 21.999s132.334 -56.334 179.001 -89.001
c16 -12 33.167 -35.167 51.5 -69.5s16.5 -67.5 -5.5 -99.5s-44.333 -47.5 -67 -46.5s-34 21.5 -34 61.5z" />
    <glyph glyph-name="D" unicode="D" horiz-adv-x="1466" 
d="M124 985c0 13.333 -1 29.5029 -3 48.5029l-6 58.5c-50 9.33301 -81 20.333 -93 33l-12.5 34c-8.33301 22.667 -5.83301 39.667 7.5 51c16 12 51 13.667 105 5c7.33301 16 18 24 32 24c23.333 0.666992 38.666 -11 45.999 -35
c44.667 -4.66699 107.834 -10.334 189.501 -17.001s170.167 -16 265.5 -28s192 -27.333 290 -46s186 -42 264 -70c98.667 -36 157 -91.333 175 -166s9.66699 -152.667 -25 -234c-61.333 -140.667 -147.333 -259.667 -258 -357c-69.333 -60.667 -143.666 -111 -222.999 -151
s-173 -65 -281 -75c-66.667 -6 -126.334 -4.33301 -179.001 5s-89.667 27 -111 53c-35.333 39.333 -41.333 70.666 -18 93.999c11.333 11.333 25.333 15.5 42 12.5s30.667 -8.5 42 -16.5c70.667 -59.333 179.667 -68.333 327 -27c110.667 32 206.334 80.333 287.001 145
c47.333 38 92.166 81.833 134.499 131.5s74.5 99.5 96.5 149.5c29.333 68.667 44 139.167 44 211.5s-81.333 126.5 -244 162.5c-134 30 -280.167 51.333 -438.5 64s-265.5 22 -321.5 28c-23.333 1.33301 -38 2.66602 -44 3.99902c16 -212.667 19.5 -410.667 10.5 -594
s-19.167 -313.333 -30.5 -390c-4 -25.333 -6.5 -42.5 -7.5 -51.5s-6.5 -17.833 -16.5 -26.5c-27.333 -22.667 -53 -25.334 -77 -8.00098c-10 8 -14.5 19 -13.5 33s2.5 37 4.5 69l28 455.5c10 155.667 14 295.834 12 420.501z" />
    <glyph glyph-name="E" unicode="E" horiz-adv-x="1302" 
d="M58 1153c60 0.666992 115.661 2.66113 166.994 5.99414c-1.33301 20 -2 33.667 -2 41c-1.33301 12 3.33398 22.833 14.001 32.5s23 11.167 37 4.5c11.333 -6 23.333 -13.333 36 -22s22.667 -24.667 30 -48c77.333 7.33301 140.5 15.833 189.5 25.5
s87.5 18.834 115.5 27.501c64 18.667 127.167 30.834 189.5 36.501s104.166 2.5 125.499 -9.5c20 -12 30.5 -25.833 31.5 -41.5s1.5 -28.834 1.5 -39.501c-2 -43.333 -21.333 -50.666 -58 -21.999c-18.667 13.333 -44.667 17.333 -78 12
c-68.667 -11.333 -133 -28.333 -193 -51s-124 -40.334 -192 -53.001c-39.333 -8.66699 -80.666 -15 -123.999 -19c-1.33301 -43.333 -3.16602 -96.833 -5.49902 -160.5s-5.5 -132.5 -9.5 -206.5l63.5 14.5c22.333 5 45.166 10.5 68.499 16.5
c79.333 18 162.166 34.833 248.499 50.5s166.5 20.834 240.5 15.501c28.667 -2 47.334 -4.66699 56.001 -8s14 -16 16 -38c1.33301 -22 -1 -37.167 -7 -45.5s-24 -12.166 -54 -11.499c-59.333 0 -134.666 -6.66699 -225.999 -20s-174 -30.666 -248 -51.999
c-49.333 -14.667 -104 -28 -164 -40c-6 -86 -12.5 -172.333 -19.5 -259s-14.833 -167.334 -23.5 -242.001c10.667 0.666992 25.334 1.66699 44.001 3c124 10.667 246.333 31.334 367 62.001s241.667 68 363 112l187 67c60.667 22 120 31 178 27
c22.667 -2 33.334 -7.5 32.001 -16.5s-15 -16.167 -41 -21.5c-77.333 -16.667 -140.166 -36.167 -188.499 -58.5s-99.5 -44.833 -153.5 -67.5c-93.333 -39.333 -186.666 -76.666 -279.999 -111.999s-187.333 -61 -282 -77c-74.667 -12 -160.667 -17.667 -258 -17
c-8.66699 -6 -18.334 -8.66699 -29.001 -8c-18.667 2 -30 5 -34 9c-20 1.33301 -47 3 -81 5c-19.333 2 -34.333 9.33301 -45 22l-28 34c-20 26.667 -19 42.834 3 48.501l33 8.5c20.667 -10.667 59.334 -17 116.001 -19c4 41.333 8.5 105.666 13.5 192.999
s9.83301 182.666 14.5 285.999c-38 -7.33301 -59.333 -12 -64 -14c-31.333 -10.667 -52 -12 -62 -4s-17 23.333 -21 46c-6 34 10 53.667 48 59c8 0.666992 42.333 8.66699 103 24c5.33301 146 8 274.333 8 385c-31.333 -1.33301 -57.5 -1.83301 -78.5 -1.5
s-35.167 0.5 -42.5 0.5c-42 0 -74 19.333 -96 58c-18 30.667 -19 50.334 -3 59.001s33 13.334 51 14.001z" />
    <glyph glyph-name="F" unicode="F" horiz-adv-x="1112" 
d="M48 1462c16 2 30.1592 -2.83105 42.4922 -14.498s26.833 -18.834 43.5 -21.501c6.66699 -1.33301 25.334 -2 56.001 -2c-2 10 -3.5 18.333 -4.5 25l-1.5 10c0 26.667 9 44.334 27 53.001c27.333 14.667 55 12.667 83 -6c19.333 -14.667 28.666 -42.334 27.999 -83.001
c68 0 145.667 0.666992 233 2s171 3.33301 251 6s149.833 6.33398 209.5 11.001s95.834 10.334 108.501 17.001c34.667 18 53.834 15 57.501 -9s-4.5 -40 -24.5 -48c-7.33301 -3.33301 -40.333 -9 -99 -17s-129.667 -16.667 -213 -26s-172.5 -18.333 -267.5 -27
s-181.833 -14.667 -260.5 -18c-2 -52 -4 -122 -6 -210l-6 -276l206.5 9c89.667 4 180.334 7.83301 272.001 11.5s174.334 7.16699 248.001 10.5s118.834 6 135.501 8c38 3.33301 63.167 0 75.5 -10s-10.5 -22.333 -68.5 -37c-29.333 -7.33301 -87 -19.666 -173 -36.999
l-271.5 -53c-95 -18 -182.667 -33.833 -263 -47.5s-129.166 -20.834 -146.499 -21.501c-4 -0.666992 -10.333 -1 -19 -1c-2 -110 -3.66699 -205.833 -5 -287.5s-2 -126.5 -2 -134.5c0 -20 3.33301 -49.5 10 -88.5s10 -64.833 10 -77.5c0 -24 -15.667 -49.333 -47 -76
c-15.333 -13.333 -34.833 -22.833 -58.5 -28.5s-36.167 6.83301 -37.5 37.5c-1.33301 15.333 -0.833008 88.833 1.5 220.5s5.5 276.5 9.5 434.5c-29.333 4 -48.666 13 -57.999 27c-13.333 20 -17.166 38.833 -11.499 56.5l8.5 26.5c14 17.333 35.333 30.666 64 39.999
c2 108 4.16699 207.667 6.5 299s3.83301 158.666 4.5 201.999c-80 0 -126 6 -138 18c-33.333 32 -48.833 49.667 -46.5 53s3.5 13.666 3.5 30.999c0 16 5.5 28.167 16.5 36.5z" />
    <glyph glyph-name="G" unicode="G" horiz-adv-x="1163" 
d="M670 1323c-4.66699 16 -21.167 25.835 -49.5 29.502s-56.833 -1.16602 -85.5 -14.499c-70.667 -32.667 -132.834 -87 -186.501 -163s-98.167 -159 -133.5 -249s-61 -179.167 -77 -267.5s-21.333 -160.833 -16 -217.5c15.333 -182.667 58.166 -301.667 128.499 -357
s161.5 -56 273.5 -2c90.667 44.667 180.334 115.5 269.001 212.5s140.334 159.167 155.001 186.5c10.667 20.667 19.5 41 26.5 61s-3.83301 48.667 -32.5 86c-15.333 19.333 -40.5 38.166 -75.5 56.499s-64.5 28.833 -88.5 31.5c-21.333 2 -36.5 -1.33301 -45.5 -10
s-18.5 -17 -28.5 -25c-52.667 -41.333 -93.667 -44.333 -123 -9c-10 11.333 -15.667 25.833 -17 43.5s16 40.834 52 69.501c30.667 24 69.334 37.667 116.001 41s91.667 -3 135 -19c30 -12 71.5 -39.667 124.5 -83s83.5 -77 91.5 -101c8 -24.667 13.333 -52.167 16 -82.5
s-16.666 -73.5 -57.999 -129.5c-53.333 -72.667 -128.5 -153.5 -225.5 -242.5s-187.5 -151.5 -271.5 -187.5c-75.333 -32.667 -155 -48.834 -239 -48.501s-148.667 38.5 -194 114.5c-85.333 146 -119.333 298.167 -102 456.5s40.666 288.5 69.999 390.5
c28.667 101.333 77.167 211.666 145.5 330.999s146.166 197 233.499 233c96 39.333 167.5 53.166 214.5 41.499s85.167 -28.5 114.5 -50.5c22 -18 37.5 -36.333 46.5 -55s2.83301 -43 -18.5 -73c-22 -30 -50.5 -41.667 -85.5 -35s-54.833 19 -59.5 37z" />
    <glyph glyph-name="H" unicode="H" horiz-adv-x="922" 
d="M164 1326c27.333 12 52.001 8.3291 74.001 -11.0039c18 -17.333 24.333 -57.333 19 -120c-2 -20 -12.5 -77.5 -31.5 -172.5s-35.167 -201.167 -48.5 -318.5c22 -4 43.333 -5.33301 64 -4c50 1.33301 109 10 177 26s135.667 33.667 203 53c2 40 3.83301 80 5.5 120
s3.16699 79.333 4.5 118c1.33301 56.667 -2.66699 109.667 -12 159s-20 91.333 -32 126c-10 27.333 -13.667 43.833 -11 49.5s6.33398 14.834 11.001 27.501l38 12c25.333 8 52.333 -7.33301 81 -46c19.333 -26 30 -78.167 32 -156.5s3 -169.5 3 -273.5
c-0.666992 -17.333 -1.16699 -34.5 -1.5 -51.5s-0.5 -33.833 -0.5 -50.5c65.333 18.667 114.666 31.334 147.999 38.001c39.333 7.33301 72.166 8.33301 98.499 3s3.5 -17 -68.5 -35c-54.667 -14 -114.667 -35 -180 -63c-4 -134.667 -10 -257.5 -18 -368.5
s-12 -171.167 -12 -180.5c0 -18.667 0.666992 -42.167 2 -70.5s3.66602 -50.166 6.99902 -65.499c5.33301 -25.333 -2.66699 -51.666 -24 -78.999c-22 -28.667 -47.667 -16.667 -77 36c-22.667 38.667 -34 102.667 -34 192c0 24 3.83301 81.5 11.5 172.5
s15.5 194.167 23.5 309.5l-157 -71c-52 -23.333 -103 -42 -153 -56c-21.333 -6 -42.666 -12.333 -63.999 -19s-47.666 -7 -78.999 -1c-5.33301 -84.667 -6.16602 -164.667 -2.49902 -240s8.5 -134 14.5 -176c3.33301 -24.667 9.66602 -36.834 18.999 -36.501
s17.333 4.5 24 12.5c6 8 13.5 11.833 22.5 11.5s12.5 -13.5 10.5 -39.5c-2 -19.333 -6.66699 -40 -14 -62s-23.333 -41.667 -48 -59c-48.667 -33.333 -85.334 -8.66602 -110.001 74.001c-14 47.333 -21.5 122.5 -22.5 225.5s1.5 212.5 7.5 328.5
c-26 16 -45.333 34.333 -58 55s-10 41 8 61c12 12.667 31.333 17.667 58 15c7.33301 118 15.5 225 24.5 321s15.167 157.333 18.5 184c3.33301 33.333 8.83301 56 16.5 68s18.5 21.333 32.5 28z" />
    <glyph glyph-name="I" unicode="I" horiz-adv-x="1011" 
d="M60 1186c6.66699 7.33301 30.6592 8.33691 71.9922 3.00391c62 -8.66699 125.333 -17 190 -25s125.667 -12.333 183 -13c64 -2 121.833 1.16699 173.5 9.5s89.834 14.833 114.501 19.5c20.667 4 40.834 0.666992 60.501 -10s20.834 -29.334 3.50098 -56.001
c-18 -28.667 -35.667 -45.167 -53 -49.5s-35.666 -8.5 -54.999 -12.5c-36 -6.66699 -82.333 -11.334 -139 -14.001c58 -150 79.833 -299.167 65.5 -447.5s-57.166 -287.166 -128.499 -416.499c-2 -2.66699 -3.66699 -5.16699 -5 -7.5s-2.66602 -4.5 -3.99902 -6.5l350.5 -24
c122.333 -8.66699 242.5 -3.66699 360.5 15c44 6.66699 71.667 3 83 -11s-17.667 -31.333 -87 -52c-84 -26 -187.333 -39.833 -310 -41.5s-245 -5.5 -367 -11.5c-44.667 -2.66699 -84.334 -11.167 -119.001 -25.5s-64 -29.5 -88 -45.5c-24.667 -16 -57.5 -40.667 -98.5 -74
s-95.833 -44 -164.5 -32c-51.333 10 -81.5 47.333 -90.5 112s15.167 115 72.5 151c26 16 57.333 25.833 94 29.5s69.334 7.16699 98.001 10.5c51.333 4 100.333 5.33301 147 4c22 29.333 45 76.166 69 140.499s40.167 135.5 48.5 213.5s3.83301 157.167 -13.5 237.5
s-56.333 151.166 -117 212.499c-22 21.333 -24 44 -6 68c-59.333 2 -116.166 6.66699 -170.499 14s-99.5 17.666 -135.5 30.999c-21.333 8 -34.166 14.833 -38.499 20.5s-7.16602 14.167 -8.49902 25.5c-4.66699 22.667 -0.333984 42 12.999 58z" />
    <glyph glyph-name="J" unicode="J" horiz-adv-x="1264" 
d="M34 1234c0.666992 8.66699 8.16992 17.335 22.5029 26.002s34.5 9.33398 60.5 2.00098l107 -30c61.333 -17.333 141.666 -32.333 240.999 -45c68.667 -10 152.667 -17.333 252 -22l-21 23l-14 16c-12 14 -18.667 30 -20 48l-2 27c1.33301 25.333 18 38 50 38
s59.667 -14.333 83 -43l32 -42.5l54 -72.5c33.333 -0.666992 67.5 -1.16699 102.5 -1.5s70.5 -0.5 106.5 -0.5c96 -0.666992 196 0.166016 300 2.49902s210.333 9.83301 319 22.5c42 4 69 -1 81 -15s-11.333 -25 -70 -33l-426 -56.5c-118 -15 -230 -24.833 -336 -29.5
c30 -46.667 48 -78.667 54 -96c35.333 -100.667 48.166 -185.834 38.499 -255.501s-40.5 -154.5 -92.5 -254.5c-50.667 -98 -124.667 -205.333 -222 -322s-202 -173.667 -314 -171c-88 2.66699 -160.167 32 -216.5 88s-98.833 116 -127.5 180
c-36.667 80 -58.667 183.333 -66 310s22.667 221.667 90 285c28 26 46.667 36.667 56 32s2 -21.667 -22 -51c-47.333 -58 -67.833 -125.833 -61.5 -203.5s20.5 -152.5 42.5 -224.5c22 -72.667 53.167 -132.5 93.5 -179.5s75.166 -77.833 104.499 -92.5
c88 -46 160.833 -46.833 218.5 -2.5s111.5 97.5 161.5 159.5c32.667 40.667 63.5 81.667 92.5 123s48.167 72.666 57.5 93.999c14.667 36 37 99.333 67 190s15.667 190.667 -43 300c-13.333 25.333 -32 55 -56 89c-133.333 0.666992 -284.333 11.667 -453 33
c-74.667 9.33301 -142.167 23.333 -202.5 42s-94.5 32 -102.5 40c-22 21.333 -30.667 38.833 -26 52.5z" />
    <glyph glyph-name="K" unicode="K" horiz-adv-x="1061" 
d="M35 1485l20.4971 4.5c13.667 3 28.834 2.5 45.501 -1.5c16 -4 30 -16.333 42 -37s19.667 -40 23 -58c10 -62 18.333 -138.333 25 -229s11.334 -169 14.001 -235c1.33301 -44.667 0.333008 -95.167 -3 -151.5s-7.66602 -113.833 -12.999 -172.5
c8.66699 20 20.334 43 35.001 69c26.667 50 73.334 106.667 140.001 170s135.667 124.333 207 183l194 155c58 44.667 91.667 73 101 85c18 24 39.5 35.833 64.5 35.5l37.5 -0.5c12 -4.66699 26 -15.834 42 -33.501s7.33301 -39.5 -26 -65.5l-94.5 -75.5
c-47.667 -38.333 -102.5 -79.833 -164.5 -124.5c-76 -55.333 -151.333 -117.5 -226 -186.5s-130 -138.167 -166 -207.5c-48.667 -91.333 -64.834 -164.166 -48.501 -218.499s49.833 -95.166 100.5 -122.499s111.167 -43.833 181.5 -49.5s135.5 -4.83398 195.5 2.49902
c52.667 6 107.667 13.833 165 23.5s108.333 15.834 153 18.501c77.333 4 99.333 -2 66 -18s-69 -29.667 -107 -41c-40 -12 -77.167 -26.5 -111.5 -43.5s-95.5 -30.5 -183.5 -40.5c-95.333 -10.667 -195 -6.16699 -299 13.5s-188 68.5 -252 146.5
c-17.333 20.667 -29.333 40.667 -36 60c-8 -60.667 -15.333 -113.167 -22 -157.5s-10.667 -74.166 -12 -89.499c-2 -20 2.5 -36.667 13.5 -50s16.5 -23 16.5 -29c1.33301 -32.667 -16.334 -59 -53.001 -79c-44.667 -23.333 -73.667 -11 -87 37c-8.66699 34 -8 97.5 2 190.5
l36 349.5l24.5 250c7 68 10.5 132.667 10.5 194s-4.5 125.666 -13.5 192.999s-23.833 149.666 -44.5 246.999c-10 39.333 -7.66699 69 7 89z" />
    <glyph glyph-name="L" unicode="L" horiz-adv-x="1188" 
d="M230 1253l32.502 13.498c21.667 9 41.5 7.83301 59.5 -3.5c39.333 -25.333 61 -91.666 65 -198.999c2 -63.333 -5.5 -139.166 -22.5 -227.499s-37.667 -179.166 -62 -272.499l-74 -272c-25 -88 -43.833 -163 -56.5 -225c-11.333 -50.667 -4.5 -86.167 20.5 -106.5
s57 -31.666 96 -33.999s79.5 1.16699 121.5 10.5s74.667 18 98 26c52 19.333 113.833 45.166 185.5 77.499l214 101l195 100c59 31.667 101.833 56.167 128.5 73.5c45.333 30 68.666 39.5 69.999 28.5s-12.334 -28.167 -41.001 -51.5
c-93.333 -75.333 -218.5 -158.166 -375.5 -248.499s-281.167 -158.5 -372.5 -204.5c-92 -46 -182.333 -60.333 -271 -43s-150 41.333 -184 72c-33.333 30.667 -45.333 82.667 -36 156c5.33301 44.667 18.833 112.667 40.5 204s50.5 187.666 86.5 288.999
c58.667 163.333 91.667 321.666 99 474.999c2 40.667 -0.833008 78.167 -8.5 112.5s-13.5 58.833 -17.5 73.5c-10.667 30.667 -7.66699 55.667 9 75z" />
    <glyph glyph-name="M" unicode="M" horiz-adv-x="1580" 
d="M6 6c-1.33301 19.333 8.66504 38.334 29.998 57.001c21.333 19.333 36.5 34.5 45.5 45.5s19.5 25.167 31.5 42.5c22.667 32.667 64.167 103.834 124.5 213.501l190.5 353l187 356l116 224.5c8.66699 17.333 24.5 33.5 47.5 48.5s45.833 2.16699 68.5 -38.5
c58 -104 78.833 -239.167 62.5 -405.5s-39.833 -294.5 -70.5 -384.5c-13.333 -38 -15.166 -51.333 -5.49902 -40s20.5 29 32.5 53c6.66699 13.333 28.667 55.166 66 125.499l127 233l141.5 246.5c47 79.333 83.833 135 110.5 167c16 19.333 32 31 48 35s36 -6.66699 60 -32
c14.667 -16.667 27.5 -37.5 38.5 -62.5s18.5 -70.5 22.5 -136.5c4.66699 -78.667 2.16699 -169.167 -7.5 -271.5s-21.5 -202.5 -35.5 -300.5s-27.667 -187.167 -41 -267.5s-21 -137.5 -23 -171.5c-4.66699 -74 21 -99 77 -75c20 8.66699 36.667 12.167 50 10.5
s8 -12.5 -16 -32.5c-34.667 -30 -68.167 -55.167 -100.5 -75.5s-63.166 -13.5 -92.499 20.5c-25.333 29.333 -38.333 65 -39 107s1.33301 80.333 6 115c1.33301 12.667 7.5 58.334 18.5 137.001s22.5 167 34.5 265s22 194.5 30 289.5s9.66699 165.5 5 211.5
c-4.66699 42 -10.5 64.5 -17.5 67.5s-18.5 -6.83301 -34.5 -29.5c-8.66699 -11.333 -32.334 -51.5 -71.001 -120.5l-124 -223.5l-120.5 -221.5c-36.333 -67.667 -56.166 -105.5 -59.499 -113.5c-8 -16.667 -25.5 -46.334 -52.5 -89.001s-52.167 -72 -75.5 -88
c-56 -37.333 -86 -24.333 -90 39c-4 64 -1.33301 119 8 165l27 128l41.5 184c19.667 86.667 20.167 193.667 1.5 321c-6.66699 45.333 -19 46.666 -37 3.99902c-7.33301 -16.667 -34.833 -69.334 -82.5 -158.001l-155.5 -287l-155.5 -284.5l-81.5 -148.5l-59 -113.5
c-23.333 -46.333 -50.333 -81.166 -81 -104.499c-20 -14 -36.5 -26.5 -49.5 -37.5s-26.5 -13.167 -40.5 -6.5c-20.667 12 -31 30 -31 54z" />
    <glyph glyph-name="N" unicode="N" horiz-adv-x="1213" 
d="M1447 1427c-3.33301 11.333 -10.5039 15.333 -21.5039 12s-21.5 -17 -31.5 -41l-113.5 -248.5l-187 -405l-176 -381.5c-52.333 -113.333 -79.166 -172.666 -80.499 -177.999c-4 -12 -8.33301 -29.167 -13 -51.5s-8 -39.166 -10 -50.499
c-5.33301 -38.667 -34.666 -67.334 -87.999 -86.001c-26 -10 -53.5 -14.333 -82.5 -13s-41.5 25 -37.5 71c20.667 258 34.334 454.833 41.001 590.5s-6.33301 287.834 -39 456.501c-4 21.333 -9.83301 27.166 -17.5 17.499s-14.5 -20.5 -20.5 -32.5
c-20 -34 -45.333 -86.167 -76 -156.5l-96.5 -231.5l-99.5 -256l-85 -230c-8.66699 -25.333 -21.667 -54 -39 -86s-36.333 -60.333 -57 -85c-50.667 -58 -89 -66.333 -115 -25c-11.333 18.667 -18.333 43.667 -21 75s7 47.333 29 48c29.333 0 49.166 6.5 59.499 19.5
s20.833 31.5 31.5 55.5c21.333 47.333 53.666 123.666 96.999 228.999l133 326.5l125 309c38 93.667 62.667 152.167 74 175.5c8.66699 18.667 21 37 37 55s38.667 23 68 15c20.667 -6.66699 37.334 -32.334 50.001 -77.001c58.667 -220 86.334 -399.167 83.001 -537.5
s-5.66602 -268.5 -6.99902 -390.5c0 -34.667 8 -34 24 2c111.333 256.667 224.5 503.834 339.5 741.501s191.5 391.834 229.5 462.501c12.667 24.667 32.834 45.667 60.501 63s49.5 6.66602 65.5 -32.001c6 -16 11.5 -37 16.5 -63s3.5 -57 -4.5 -93
c-6 -26 -13.833 -33.333 -23.5 -22s-16.834 27.333 -21.501 48z" />
    <glyph glyph-name="O" unicode="O" horiz-adv-x="1011" 
d="M946 1337c50.667 -90 75.0029 -187.168 73.0029 -291.501s-17 -205.5 -45 -303.5c-36 -124 -92.833 -261.833 -170.5 -413.5s-173.834 -262.5 -288.501 -332.5c-84 -51.333 -166.5 -69.166 -247.5 -53.499s-146.5 74.167 -196.5 175.5c-40 80.667 -62.333 178 -67 292
s2.16602 229.333 20.499 346s45.5 226.334 81.5 329.001s75.667 183 119 241c58 78.667 98.167 116 120.5 112s38.166 -9 47.499 -15c14 -11.333 17.167 -29.833 9.5 -55.5s-14.5 -45.167 -20.5 -58.5c76 75.333 167.5 136.666 274.5 183.999s203.5 -4.66699 289.5 -156z
M203.003 1006c-34.667 -96 -58.8301 -194.832 -72.4971 -296.499s-17.834 -194.834 -12.501 -279.501c4 -65.333 17 -136.833 39 -214.5s69.667 -124.834 143 -141.501c58.667 -14 115.167 -1.5 169.5 37.5s104 88.5 149 148.5s83.667 123 116 189
s56.166 119.333 71.499 160c52 142.667 83.667 273 95 391s-10 219 -64 303c-46 68.667 -94.333 95.167 -145 79.5s-99 -41.5 -145 -77.5c-40.667 -32.667 -85.334 -77 -134.001 -133s-85 -121.667 -109 -197c-14.667 -44 -35 -57.667 -61 -41
c-18 10.667 -29.167 25.334 -33.5 44.001z" />
    <glyph glyph-name="P" unicode="P" horiz-adv-x="1264" 
d="M250 1402c29.333 0 52.0068 -2.83008 68.0068 -8.49707s19.333 -42.5 10 -110.5c-1.33301 -10.667 -2.66602 -23.667 -3.99902 -39s-2.33301 -32.666 -3 -51.999c53.333 -2.66699 101 -3.33398 143 -2.00098c48 1.33301 138.333 9.66602 271 24.999s252 18.333 358 9
c148 -12.667 224 -69 228 -169c0.666992 -49.333 -14 -102.5 -44 -159.5s-98 -126.5 -204 -208.5c-70.667 -56 -151.834 -95.167 -243.501 -117.5s-171.5 -29.833 -239.5 -22.5c-48.667 4.66699 -90.334 15.667 -125.001 33s-55.667 44 -63 80
c-5.33301 23.333 -2.33301 40 9 50s25 4 41 -18c45.333 -64 125.666 -81.5 240.999 -52.5s200.666 58.5 255.999 88.5c69.333 38 124 82.5 164 133.5s63.333 83.833 70 98.5c40.667 95.333 19.167 145.833 -64.5 151.5s-164.5 7.16699 -242.5 4.5
c-38.667 -2 -80.334 -5.66699 -125.001 -11s-92.334 -10.666 -143.001 -15.999c-74 -8 -129.167 -13.333 -165.5 -16s-78.5 -6.66699 -126.5 -12c-2.66699 -120 -3.33398 -252 -2.00098 -396s5 -245.333 11 -304c4 -40 8.66699 -81.833 14 -125.5
s11.666 -83.834 18.999 -120.501c8 -41.333 10.167 -68.5 6.5 -81.5s-22.5 -30.833 -56.5 -53.5c-32 -20.667 -52 7.66602 -60 84.999c-3.33301 24 -7.5 72.167 -12.5 144.5s-10.333 156.333 -16 252s-11.167 196.167 -16.5 301.5s-9 203 -11 293c-39.333 2 -70 11 -92 27
c-40 27.333 -72.333 57.666 -97 90.999c-6 8 -4 18.833 6 32.5s36 16.834 78 9.50098c39.333 -6.66699 73.333 -11.334 102 -14.001c0 54.667 0.666992 92 2 112c1.33301 38 6.5 62.167 15.5 72.5s23.5 15.5 43.5 15.5z" />
    <glyph glyph-name="Q" unicode="Q" horiz-adv-x="1441" 
d="M415 1379c16.667 -14 23.9951 -32.0029 21.9951 -54.0029s-15 -37.333 -39 -46c-12 -4 -23.5 -10.667 -34.5 -20s-24.833 -29 -41.5 -59c-22 -38 -47.167 -93.833 -75.5 -167.5s-53.666 -154.667 -75.999 -243s-38.833 -179.166 -49.5 -272.499s-9 -178.333 5 -255
c27.333 -154.667 80 -252.667 158 -294s157 -41 237 1c139.333 73.333 287 194.666 443 363.999l-105 147l-57 80c-21.333 28 -19.333 55.333 6 82c8 8.66699 20 14.167 36 16.5s31.333 -3.83398 46 -18.501c8 -10 26.333 -35.833 55 -77.5l97 -142.5
c90 102.667 165.833 206.667 227.5 312s87.167 211 76.5 317c-8.66699 87.333 -37.5 170.333 -86.5 249s-119.167 127 -210.5 145c-88 16.667 -177.333 5.33398 -268 -33.999s-158 -94.666 -202 -165.999c-30 -47.333 -48.333 -95.166 -55 -143.499s5 -83.166 35 -104.499
c72 -53.333 68 -71.333 -12 -54c-43.333 8 -75.5 42.333 -96.5 103s-14.167 127.667 20.5 201c40 84 95 150.833 165 200.5s137.333 82.834 202 99.501c76.667 19.333 157.834 15.833 243.501 -10.5s155.5 -69.833 209.5 -130.5c90 -102 139.5 -217.833 148.5 -347.5
s-24.167 -259.834 -99.5 -390.501c-61.333 -105.333 -141 -216.666 -239 -333.999l104.5 -146.5c33.667 -45.667 61.834 -79.5 84.501 -101.5c21.333 -20.667 48.833 -39.667 82.5 -57s62.834 -14 87.501 10c20 20 30.667 14.333 32 -17
c0 -18.667 -11.5 -41.834 -34.5 -69.501s-64.5 -34.5 -124.5 -20.5c-33.333 8 -64.666 25.833 -93.999 53.5s-58 57.167 -86 88.5c-8 8 -23.667 28.333 -47 61l-80 112c-76.667 -85.333 -155.5 -162.333 -236.5 -231s-155.5 -118 -223.5 -148
c-104 -44.667 -209.333 -50 -316 -16s-180 162 -220 384c-19.333 106.667 -22 216.5 -8 329.5s35 218.833 63 317.5s58.333 185.334 91 260.001s58.667 127.667 78 159c57.333 93.333 111 119.666 161 78.999z" />
    <glyph glyph-name="R" unicode="R" horiz-adv-x="1479" 
d="M183 1385c25.333 6.66699 54.999 0.335938 88.999 -18.9971c22 -14 34.667 -60.667 38 -140c14.667 -2.66699 30.334 -5.33398 47.001 -8.00098l52 -8c122 -21.333 241.333 -37 358 -47s236.667 -18 360 -24c76 -4 137.167 -22.167 183.5 -54.5s47.5 -86.5 3.5 -162.5
c-54 -92.667 -160.5 -181.667 -319.5 -267s-324.5 -149 -496.5 -191c-28.667 -7.33301 -38.667 -17.333 -30 -30s25 -24.334 49 -35.001c52.667 -25.333 125.834 -46.333 219.501 -63s191 -31.334 292 -44.001s197.167 -24.167 288.5 -34.5s161.666 -21.166 210.999 -32.499
c110.667 -26 156.334 -44.5 137.001 -55.5s-62.666 -13.167 -129.999 -6.5l-166 13l-244.5 19l-247 19.5c-78.333 6.33301 -135.833 12.166 -172.5 17.499c-76 9.33301 -153 26.833 -231 52.5s-127.667 51.5 -149 77.5c-8.66699 10 -17 23.833 -25 41.5
s-10.667 34.167 -8 49.5c5.33301 28 19.5 47.667 42.5 59s46.833 21 71.5 29l103.5 34c58.333 19.333 125.5 45 201.5 77s153.167 69.5 231.5 112.5s143.166 89.5 194.499 139.5c33.333 32.667 51.166 60.667 53.499 84s-18.5 35.666 -62.5 36.999
c-100 2 -227.667 7.66699 -383 17s-296 20 -422 32c-4.66699 0 -8 0.333008 -10 1c-1.33301 -87.333 -7.5 -182 -18.5 -284s-23.333 -198.833 -37 -290.5s-26.5 -171.5 -38.5 -239.5s-19 -111.333 -21 -130c-8 -74 7.33301 -81.667 46 -23c10 16 19.167 25 27.5 27
s10.5 -9 6.5 -33c-6 -30 -13.833 -61 -23.5 -93s-32.5 -63 -68.5 -93c-56 -46 -88.5 -33.167 -97.5 38.5s-7.83301 137.834 3.5 198.501c14 80 34.167 215.333 60.5 406s37.5 367.334 33.5 530.001c-97.333 14 -150.333 30.333 -159 49s-16 38.667 -22 60
c-12.667 44 13 63.333 77 58c30 -2 60.333 -5 91 -9c-1.33301 9.33301 -4 22.666 -8 39.999c-12.667 58 -6.66699 90.667 18 98z" />
    <glyph glyph-name="S" unicode="S" horiz-adv-x="1163" 
d="M825 1149c-22 11.333 -66.5 22.3379 -133.5 33.0049s-137.5 5 -211.5 -17c-68 -20.667 -142.333 -61.667 -223 -123s-119 -135 -115 -221c4 -94 41.167 -147.667 111.5 -161s132.833 -17.333 187.5 -12c54 4 131.333 12.5 232 25.5s180 21.5 238 25.5
c52.667 2.66699 102.834 -9 150.501 -35s45.5 -90.333 -6.5 -193c-45.333 -86.667 -119.333 -178.334 -222 -275.001c-66 -62 -140.5 -118.333 -223.5 -169s-175.167 -84.667 -276.5 -102c-46 -8 -86.833 -7 -122.5 3s-57.5 33.333 -65.5 70
c-11.333 45.333 5.66699 87 51 125c28 24.667 44.833 31.667 50.5 21s7.5 -24.667 5.5 -42c-6 -40 0.5 -61.167 19.5 -63.5s36.167 -1.83301 51.5 1.5c110 18 218.333 69.667 325 155s193 171.666 259 258.999c32 43.333 45.5 75.666 40.5 96.999
s-41.833 27.666 -110.5 18.999c-94.667 -12.667 -199.667 -28.167 -315 -46.5s-217 -16.166 -305 6.50098c-114.667 29.333 -183.667 107 -207 233c-18.667 100 9.5 194.333 84.5 283s153.5 153 235.5 193c43.333 21.333 94 39 152 53s124.333 20.667 199 20
c54 -0.666992 97.167 -6.5 129.5 -17.5s58.5 -22.833 78.5 -35.5c28 -18.667 43.667 -34.334 47 -47.001s-7.33398 -33 -32.001 -61c-18 -20.667 -44.333 -21.334 -79 -2.00098z" />
    <glyph glyph-name="T" unicode="T" horiz-adv-x="1365" 
d="M721 1500c24.667 -2 43.165 -7.17188 55.498 -15.5049s20.5 -30.5 24.5 -66.5c0.666992 -4.66699 1.66699 -26.667 3 -66c179.333 12 344.333 32 495 60c150 26.667 250.333 43.834 301 51.501s111 9.83398 181 6.50098c48.667 -2.66699 69.334 -14.167 62.001 -34.5
s-27.333 -30.166 -60 -29.499c-54.667 0.666992 -114.5 -9.66602 -179.5 -30.999s-156.833 -44 -275.5 -68c-90 -18 -163.667 -34.167 -221 -48.5s-158 -27.5 -302 -39.5c-0.666992 -92 -2 -190.833 -4 -296.5s-4 -180.5 -6 -224.5c-4 -68 -6.33301 -163 -7 -285
s3 -200 11 -234c7.33301 -35.333 11.666 -66.833 12.999 -94.5s-9.66699 -50.167 -33 -67.5c-23.333 -16 -43.166 -28.333 -59.499 -37s-28.5 1 -36.5 29c-4 14 -6.83301 49.833 -8.5 107.5s-2.33398 120.834 -2.00098 189.501s1.33301 135.167 3 199.5
s4.16699 110.5 7.5 138.5c4 39.333 7 115.666 9 228.999s1 225.666 -3 336.999c-30 -2.66699 -58.333 -4.66699 -85 -6c-132.667 -8.66699 -247.5 -10.667 -344.5 -6s-152.5 8.33398 -166.5 11.001c-27.333 3.33301 -47.666 13 -60.999 29l-20 24
c-7.33301 17.333 -10.166 32.833 -8.49902 46.5s21.5 20.5 59.5 20.5c238.667 0 445 5 619 15c-2.66699 36.667 -5.66699 69 -9 97c-5.33301 40.667 10.667 60.334 48 59.001z" />
    <glyph glyph-name="U" unicode="U" horiz-adv-x="973" 
d="M48 1407c2 4 10.3369 10.8301 25.0039 20.4971s33 4.83398 55 -14.499c38.667 -38.667 54 -85.667 46 -141c-2 -14 -5.66699 -59.333 -11 -136s-10.5 -166 -15.5 -268s-9.33301 -206.833 -13 -314.5s-4.83398 -199.5 -3.50098 -275.5c0 -34 2 -72.667 6 -116
s11.5 -78 22.5 -104s26.333 -36.5 46 -31.5s45.167 39.5 76.5 103.5c132 268.667 248 549.334 348 842.001c14 42 19.667 88.333 17 139c-2 30.667 -4.83301 61.167 -8.5 91.5s-6.83398 61.5 -9.50098 93.5c-2 14 -2.66699 33.667 -2 59s8 44.333 22 57
c24.667 21.333 53.334 13 86.001 -25c10.667 -14 19.667 -35.333 27 -64s12 -56.334 14 -83.001c8 -162.667 7.5 -329 -1.5 -499s-11.5 -321.667 -7.5 -455c1.33301 -66.667 7.66602 -110.167 18.999 -130.5s24 -28.5 38 -24.5s27.333 14.167 40 30.5s21 27.833 25 34.5
c11.333 18 21.5 25.667 30.5 23s11.833 -11 8.5 -25c-8.66699 -32 -16.667 -55.167 -24 -69.5s-21.333 -34.833 -42 -61.5c-36.667 -44 -68.5 -64 -95.5 -60s-48.167 22 -63.5 54c-17.333 36 -28.5 81 -33.5 135s-7.5 98 -7.5 132c0 68.667 0.666992 136.167 2 202.5
s4 144.833 8 235.5c0 19.333 -3 20 -9 2c-14 -46 -38.833 -115.333 -74.5 -208s-74.5 -185.667 -116.5 -279l-95.5 -204.5c-41 -87 -87.5 -144.5 -139.5 -172.5c-30 -16 -62 -19.667 -96 -11s-62 44 -84 106c-16.667 46.667 -27.167 130.834 -31.5 252.501
s-5.83301 250.834 -4.5 387.501s4.16602 265.667 8.49902 387s7.16602 204.666 8.49902 249.999c0 18 -1.33301 39.833 -4 65.5s2 48.834 14 69.501z" />
    <glyph glyph-name="V" unicode="V" horiz-adv-x="859" 
d="M35 1377l32.501 3.49805c21.667 2.33301 42.5 -12.5 62.5 -44.5c137.333 -225.333 213 -432.5 227 -621.5s25.333 -334.5 34 -436.5c0.666992 -14 3.66699 -18 9 -12l8 9c30 112.667 66.833 228.5 110.5 347.5s87 230.333 130 334s82.5 193.834 118.5 270.501
s61.667 129.334 77 158.001c16 30 43.667 69 83 117s72 44.667 98 -10c14 -34 15 -67.667 3 -101c-10.667 -27.333 -18.334 -25.666 -23.001 5.00098c-2 8.66699 -8.16699 15.167 -18.5 19.5s-26.5 -14.5 -48.5 -56.5c-15.333 -27.333 -38.833 -77.833 -70.5 -151.5
l-102.5 -249l-109 -284.5c-36 -97.333 -65.667 -183.333 -89 -258c-26 -82 -43.333 -147.833 -52 -197.5s-23 -102.5 -43 -158.5c-12.667 -36 -31.334 -66.667 -56.001 -92c-32.667 -32 -57.167 -45.5 -73.5 -40.5s-30.833 20.833 -43.5 47.5
c-14.667 29.333 -25 72.833 -31 130.5s-8 120.5 -6 188.5c0.666992 33.333 -2.66602 89.833 -9.99902 169.5s-20 167 -38 262s-42.5 190.167 -73.5 285.5s-69.5 175.666 -115.5 240.999c-24 34 -31.333 61 -22 81s20 34.667 32 44z" />
    <glyph glyph-name="W" unicode="W" horiz-adv-x="1403" 
d="M38 1370c12 -4 21.333 -7.50293 28 -10.5029s15 -13.833 25 -32.5c29.333 -60 50.333 -122.333 63 -187s25 -139.334 37 -224.001c22 -162 39 -322.833 51 -482.5s18 -249.5 18 -269.5c0 -31.333 1.66699 -39.166 5 -23.499s7.33301 29.834 12 42.501
c66.667 190 144.334 347.5 233.001 472.5s143 211.5 163 259.5c8 20.667 12.167 33.334 12.5 38.001l0.5 7l5.5 10c3.66699 6.66699 10.167 12.667 19.5 18c18.667 10.667 44 7.66699 76 -9c30.667 -18 58.167 -57.333 82.5 -118s44.5 -125.167 60.5 -193.5
s28.167 -131.666 36.5 -189.999s12.166 -94.5 11.499 -108.5c-2 -28 0.666992 -40.667 8 -38s14 14.334 20 35.001c39.333 140 96 307.833 170 503.5s162 377.5 264 545.5c14 24 25.167 37.5 33.5 40.5s16.5 4.5 24.5 4.5c17.333 0 29 -6.66699 35 -20
c10.667 -26.667 7.33398 -57 -9.99902 -91c-68.667 -126 -146.834 -289.333 -234.501 -490s-162.167 -434.667 -223.5 -702c-6 -26 -9.33301 -49 -10 -69s-21.667 -42 -63 -66c-80 -46 -121.333 -33.333 -124 38c-1.33301 24.667 -4 69.167 -8 133.5
s-10.167 133.5 -18.5 207.5s-19.166 146 -32.499 216s-30 123 -50 159c-12.667 20.667 -23.667 23.334 -33 8.00098l-170.5 -254.5c-59 -89.667 -120.833 -220.834 -185.5 -393.501c-8 -21.333 -14.833 -46.166 -20.5 -74.499s-8.83398 -44.833 -9.50098 -49.5
c-8.66699 -29.333 -14.334 -51.333 -17.001 -66s-18 -33 -46 -55c-31.333 -24.667 -55.166 -37.834 -71.499 -39.501s-27.166 14.833 -32.499 49.5c-2 14 -5.66699 67.167 -11 159.5s-12 200.5 -20 324.5s-17.5 251.5 -28.5 382.5s-23.5 242.167 -37.5 333.5
c-6.66699 42 -16.834 80.5 -30.501 115.5s-23.5 58.5 -29.5 70.5c-14 27.333 -19 47.666 -15 60.999c4.66699 13.333 12 20.333 22 21z" />
    <glyph glyph-name="X" unicode="X" horiz-adv-x="1264" 
d="M1566 1543c18.667 -12 31.335 -27.001 38.002 -45.001s-2.33301 -36 -27 -54c-69.333 -50 -173.333 -144.667 -312 -284l-432 -449c48 -157.333 87 -298.166 117 -422.499s46 -193.5 48 -207.5c2.66699 -28 10.667 -41.667 24 -41s25 2 35 4
c9.33301 1.33301 18.666 0.666016 27.999 -2.00098s9.33301 -15.667 0 -39c-16.667 -38 -39.334 -67 -68.001 -87c-8 -4.66699 -20.333 -8 -37 -10s-31.334 3.66699 -44.001 17c-28 28.667 -46.833 82.167 -56.5 160.5s-31.834 182.833 -66.501 313.5
c-18 70.667 -38.667 145.667 -62 225l-314 -346l-239 -276c-16 -19.333 -23.5 -34.166 -22.5 -44.499s8.5 -12.833 22.5 -7.5c40 17.333 47 10.666 21 -20.001c-44.667 -52.667 -86.667 -82.834 -126 -90.501s-60.666 5.5 -63.999 39.5c-2 12 -3 26 -3 42s7 33.333 21 52
c33.333 46 108.333 135.667 225 269l387 431l28 30.5l29 31.5c-43.333 136 -92.666 267.667 -147.999 395s-116 231.666 -182 312.999c-22 26.667 -28.667 52.334 -20 77.001c4 14 12 21.5 24 22.5l18 1.5c18.667 0 31.667 -3.5 39 -10.5l29 -27.5
c56 -55.333 112 -147.166 168 -275.499s107.333 -264.166 154 -407.499l391.5 411.5c123 126.333 213.833 215.5 272.5 267.5c48 42 82.667 56.333 104 43z" />
    <glyph glyph-name="Y" unicode="Y" horiz-adv-x="809" 
d="M950 1548c26.667 37.333 55.3369 45.666 86.0039 24.999c7.33301 -6 13.166 -14 17.499 -24s0.833008 -26.667 -10.5 -50c-6 -12 -35 -56.833 -87 -134.5l-172 -258.5l-177.5 -271c-55.667 -86 -89.834 -142.667 -102.501 -170c-28 -59.333 -45.333 -114 -52 -164
l-35 -223.5c-16 -102.333 -27.333 -182.5 -34 -240.5c-2.66699 -22 2.83301 -30.833 16.5 -26.5s30.167 11.5 49.5 21.5c18 9.33301 27.333 11.333 28 6s-2.33301 -17 -9 -35c-7.33301 -18 -18.5 -36.667 -33.5 -56s-38.833 -36.333 -71.5 -51
c-18 -8 -38.333 -13.167 -61 -15.5s-38.667 15.167 -48 52.5c-8 32.667 -1.5 105 19.5 217l49.5 259c1.33301 6 3.33301 15.667 6 29c-24.667 9.33301 -37.667 29.333 -39 60c-2.66699 42 -28.334 156.333 -77.001 343s-113 359.667 -193 519
c-14.667 30.667 -16 57.667 -4 81l18 35c16 8.66699 33.5 13.334 52.5 14.001s34.5 -10.333 46.5 -33c5.33301 -11.333 19.5 -46.166 42.5 -104.499s48.5 -126.833 76.5 -205.5s55.167 -160.834 81.5 -246.501s45.166 -161.5 56.499 -227.5c7.33301 21.333 14.333 39 21 53
c20 39.333 52.667 95 98 167l148.5 229l160 236.5z" />
    <glyph glyph-name="Z" unicode="Z" horiz-adv-x="1984" 
d="M72 1111c-21.333 12.667 -34.501 22.9961 -39.501 30.9961s-6.5 25 -4.5 51c0.666992 23.333 32.334 27 95.001 11c217.333 -53.333 395 -80.333 533 -81s280 6 426 20c162.667 16 281 31.667 355 47s135.333 23 184 23c98.667 0 148.834 -22.333 150.501 -67
s-31.5 -91.334 -99.5 -140.001c-55.333 -40 -143.666 -95.333 -264.999 -166l-391 -227.5l-410 -243.5c-134 -81.333 -241 -152.666 -321 -213.999c-38.667 -30 -51.334 -47.667 -38.001 -53s25 -8.66602 35 -9.99902c10.667 -2 29.167 -3.5 55.5 -4.5
s83.166 3.5 170.499 13.5c96 10 255 32.833 477 68.5s526 52.834 912 51.501c188 -0.666992 275.333 -10.334 262 -29.001s-80.666 -31 -201.999 -37c-338 -18 -636.667 -46.5 -896 -85.5l-544 -82.5c-104 -16 -193.667 -21.167 -269 -15.5s-130 15.5 -164 29.5
c-29.333 12.667 -36.5 37.334 -21.5 74.001s41.167 72.334 78.5 107.001c45.333 42 141.833 110 289.5 204l463.5 288l438.5 263c131 77.333 203.167 120.333 216.5 129c25.333 16 35.666 26.833 30.999 32.5s-19 5.83398 -43 0.500977c-58 -14 -153 -29.833 -285 -47.5
s-273 -29.667 -423 -36s-295.167 -3.5 -435.5 8.5s-247.5 41 -321.5 87z" />
    <glyph glyph-name="underscore" unicode="_" horiz-adv-x="1175" 
d="M224 608c52.667 6 128.334 2.66797 227.001 -9.99902s268 -9.66699 508 9c32.667 2 52.5 -2.16699 59.5 -12.5s-10.833 -20.833 -53.5 -31.5c-62 -16 -148.5 -34.5 -259.5 -55.5s-266.5 -32.5 -466.5 -34.5c-45.333 -0.666992 -74.833 8.5 -88.5 27.5
s-19.834 36.5 -18.501 52.5c2 26.667 14.667 42.167 38 46.5s41.333 7.16602 54 8.49902z" />
    <glyph glyph-name="a" unicode="a" 
d="M681 741c30 -14 54.1631 -27.8311 72.4961 -41.498s24.166 -39.834 17.499 -78.501l-29 -149c-13.333 -67.333 -20.666 -134.333 -21.999 -201c-1.33301 -45.333 5.16699 -90.333 19.5 -135s43.833 -60.667 88.5 -48c28.667 8 41.167 8.5 37.5 1.5
s-14.5 -18.167 -32.5 -33.5c-30.667 -28 -67 -38.667 -109 -32c-75.333 10 -113.666 49.833 -114.999 119.5s-2 131.5 -2 185.5c0.666992 27.333 -6.66602 27 -21.999 -1c-24 -42 -65.333 -99.833 -124 -173.5s-131 -121.5 -217 -143.5
c-90.667 -22 -147.667 -2.66699 -171 58s-30.333 127 -21 199c18.667 159.333 115 305.666 289 438.999c64.667 49.333 127.834 71.833 189.501 67.5s111.834 -15.5 150.501 -33.5zM637.996 618.002c-16.667 14.667 -40.667 26.6641 -72 35.9971c-32 8 -60 7.66699 -84 -1
s-48.667 -21 -74 -37c-37.333 -23.333 -70.333 -51.666 -99 -84.999s-54 -68.333 -76 -105c-30 -48.667 -50 -105.667 -60 -171c-8 -46 -4 -81.667 12 -107s54 -24 114 4c32.667 14.667 63.5 40.334 92.5 77.001l88.5 116c26.667 36 57.5 83.333 92.5 142
s56.833 102.334 65.5 131.001z" />
    <glyph glyph-name="b" unicode="b" horiz-adv-x="1000" 
d="M289 484c40 46 104.666 94.502 193.999 145.502s162.333 81.167 219 90.5c190.667 30 269 -39 235 -207c-28 -136.667 -92.833 -257 -194.5 -361s-205.5 -158 -311.5 -162c-82 -2.66699 -142.333 18.5 -181 63.5l-58 67.5l-14.5 4.5c-9.66699 3 -19.5 5.5 -29.5 7.5
c-20 4 -30.333 54 -31 150c0 21.333 5.16699 81.166 15.5 179.499s9.16602 194.5 -3.50098 288.5c-11.333 81.333 -31.166 176.833 -59.499 286.5s-43.166 178.5 -44.499 206.5c-2 28 -0.666992 52.667 4 74s17 28 37 20c30 -11.333 50.167 -25.833 60.5 -43.5
s22.5 -51.167 36.5 -100.5c47.333 -164.667 76.833 -309.334 88.5 -434.001s16.167 -213.667 13.5 -267c-1.33301 -26.667 6.66699 -29.667 24 -9zM312.999 295.002c-26 -50 -23.667 -95.667 7 -137c32 -46 81.667 -59.667 149 -41c89.333 25.333 167.833 86.5 235.5 183.5
s107.5 170.5 119.5 220.5c10 43.333 1.5 69.833 -25.5 79.5s-56.167 9.5 -87.5 -0.5c-74.667 -23.333 -152.5 -66 -233.5 -128s-135.833 -121 -164.5 -177z" />
    <glyph glyph-name="c" unicode="c" horiz-adv-x="783" 
d="M596 661l-17 -12.001c-11.333 -8 -32 -8 -62 0c-8 1.33301 -19.167 10 -33.5 26s-38.833 16 -73.5 0c-74.667 -36 -128 -78.667 -160 -128c-27.333 -43.333 -51 -104 -71 -182c-33.333 -122 -23 -199.5 31 -232.5s103 -45.5 147 -37.5
c102 17.333 194.5 59.666 277.5 126.999s141.5 117 175.5 149c26 24 42.333 34.5 49 31.5s-9 -27.5 -47 -73.5c-60 -74 -145 -161.667 -255 -263s-233.333 -131 -370 -89c-50 15.333 -89.167 55.833 -117.5 121.5s-40.5 139.834 -36.5 222.501
c3.33301 74 21.5 148.667 54.5 224s81.167 137 144.5 185c104 78.667 190 102.834 258 72.501s108.333 -52.833 121 -67.5c22 -28 17 -52.667 -15 -74z" />
    <glyph glyph-name="d" unicode="d" horiz-adv-x="922" 
d="M828 1461c28.667 28.667 51.998 24.6709 69.998 -11.9961c8 -17.333 13.833 -33.833 17.5 -49.5s2.16699 -49.834 -4.5 -102.501c-10 -76.667 -22.833 -163.5 -38.5 -260.5l-46.5 -284.5c-4 -24 -13.333 -69.333 -28 -136s-25.834 -136.167 -33.501 -208.5
s-7.5 -138.666 0.5 -198.999s32.667 -95.833 74 -106.5c22.667 -6 38.667 -13.667 48 -23s0 -16.333 -28 -21s-60.667 -4.66699 -98 0s-65.666 29.667 -84.999 75c-23.333 53.333 -31.833 121.166 -25.5 203.499s15.5 159.833 27.5 232.5c-17.333 -40.667 -38 -82 -62 -124
c-56 -96.667 -115 -190.334 -177 -281.001s-122.667 -154.667 -182 -192c-56.667 -36 -105.834 -40.5 -147.501 -13.5s-65.167 68.833 -70.5 125.5c-9.33301 90.667 5.83398 181 45.501 271s82.834 167 129.501 231c54.667 75.333 118.667 115 192 119s120 1.66699 140 -7
c14.667 -6.66699 29.834 -15.167 45.501 -25.5l23.5 -15.5l44.5 110c29.667 73.333 57.5 158 83.5 254l23 171c7.33301 55.333 13 105.333 17 150c3.33301 37.333 9.33301 64.166 18 80.499s17.667 29.166 27 38.499zM563.998 560.004l-18.501 14.5
c-12.333 9.66699 -32.166 17.5 -59.499 23.5c-74.667 15.333 -142.667 -20 -204 -106c-40.667 -57.333 -74.5 -118.333 -101.5 -183s-36.833 -133 -29.5 -205c4 -38 19.667 -52 47 -42s51.333 25.667 72 47c46.667 48 104.667 126.167 174 234.5s109.333 180.5 120 216.5z
" />
    <glyph glyph-name="e" unicode="e" horiz-adv-x="709" 
d="M195 355c-32.667 -126.667 -21.999 -201.835 32.001 -225.502s107.667 -21.167 161 7.5c81.333 43.333 157.666 87.166 228.999 131.499s123 77.5 155 99.5c31.333 21.333 55.333 31.833 72 31.5s7 -17.166 -29 -50.499c-36.667 -34 -100.5 -88 -191.5 -162
s-170.167 -126.333 -237.5 -157c-94 -42 -176.5 -39.667 -247.5 7s-105.167 119.667 -102.5 219c0.666992 46 8.16699 96.833 22.5 152.5s30.5 105.5 48.5 149.5c21.333 52 44.166 94.833 68.499 128.5s43.5 57.834 57.5 72.501c34 35.333 72.5 51.5 115.5 48.5
s78.5 -26.5 106.5 -70.5c28 -44.667 25.333 -106.5 -8 -185.5s-71.333 -133.167 -114 -162.5c-29.333 -20.667 -54.166 -32.167 -74.499 -34.5s-41.5 -2.16602 -63.5 0.500977zM218.001 484.999c14 -7.33301 37.832 -2.5 71.499 14.5s57.167 54.833 70.5 113.5
c12 52 6.83301 73 -15.5 63s-43.166 -27.667 -62.499 -53c-30.667 -41.333 -52 -87.333 -64 -138z" />
    <glyph glyph-name="f" unicode="f" horiz-adv-x="834" 
d="M808 1208c-10.667 32 -33.3369 94.8291 -68.0039 188.496s-76 158.5 -124 194.5c-50 36.667 -85.667 17.667 -107 -57c-9.33301 -31.333 -27.666 -144 -54.999 -338s-49 -381 -65 -561c-1.33301 -8 -2.66602 -21.333 -3.99902 -40c6 0.666992 14.333 1.66699 25 3
c88 10 166.667 25.667 236 47s119.666 36 150.999 44c104.667 26.667 144.334 22.667 119.001 -12s-64.333 -62 -117 -82l-172 -66.5c-64 -24.333 -146.667 -44.166 -248 -59.499c-2 -62 -2.33301 -114.167 -1 -156.5s2 -68.5 2 -78.5c0 -40.667 3.66699 -65.5 11 -74.5
s16 -17.167 26 -24.5c9.33301 -8 17.333 -16.667 24 -26s3.33398 -32.666 -9.99902 -69.999c-14.667 -39.333 -36.334 -60.5 -65.001 -63.5s-49.667 5.5 -63 25.5c-27.333 42 -41.833 107.667 -43.5 197s-0.5 175 3.5 257c-10.667 -1.33301 -21.5 -2.33301 -32.5 -3
l-33.5 -2c-38.667 -2 -78 1 -118 9s-65.667 35 -77 81c-9.33301 46.667 32.667 67.334 126 62.001c23.333 -2 47 -3.83301 71 -5.5s48 -2.5 72 -2.5c4 64 10 144 18 240s18.167 195.333 30.5 298s26.833 202.5 43.5 299.5s35.667 179.167 57 246.5
c20 64.667 59.833 90.834 119.5 78.501s106.167 -31.5 139.5 -57.5c60.667 -52 110.834 -121 150.501 -207s66.834 -158.333 81.501 -217c10.667 -44 13.667 -75.5 9 -94.5s-15.667 -34.833 -33 -47.5c-26 -18.667 -44.667 -14.167 -56 13.5s-19 48.167 -23 61.5z" />
    <glyph glyph-name="g" unicode="g" 
d="M574 731c32.667 31.333 57.3359 40.335 74.0029 27.002c15.333 -12.667 27.666 -25 36.999 -37s11.666 -34 6.99902 -66c-6.66699 -42.667 -9.33398 -79.334 -8.00098 -110.001c2 -32.667 5.83301 -56.834 11.5 -72.501s14.834 -33.834 27.501 -54.501
c53.333 -89.333 100.333 -174.166 141 -254.499s59.334 -175.5 56.001 -285.5c-3.33301 -90 -18.5 -172.5 -45.5 -247.5s-48.5 -129.833 -64.5 -164.5c-37.333 -74 -86 -149.5 -146 -226.5s-115.667 -140.5 -167 -190.5c-73.333 -69.333 -164.666 -127 -273.999 -173
s-215 -51.667 -317 -17c-34.667 12 -72 32.833 -112 62.5s-68 62.167 -84 97.5c-26.667 60.667 -38.834 125.667 -36.501 195s8.5 137 18.5 203c6 36 12.167 55.333 18.5 58s9.5 -18 9.5 -62c0 -88.667 8.66699 -168.667 26 -240
c31.333 -120.667 112.666 -192.667 243.999 -216c126.667 -22 247.167 17 361.5 117s202.833 198 265.5 294c53.333 84.667 96.333 170.334 129 257.001c19.333 50.667 33.333 101.5 42 152.5s9.33398 109.5 2.00098 175.5c-7.33301 57.333 -28 114.166 -62 170.499
l-93 156.5l-24.5 38.5c-9 14.333 -16.5 28.5 -22.5 42.5c-22 -61.333 -63.333 -124 -124 -188s-115.334 -106 -164.001 -126c-28 -12 -64.333 -18 -109 -18s-85.334 33 -122.001 99c-48 88 -43 197.833 15 329.5s123 224.5 195 278.5c63.333 46.667 121.333 63 174 49
s93 -32 121 -54zM546.002 624.002c-16 13.333 -36.668 24.665 -62.001 33.998c-41.333 14 -81 5.66699 -119 -25c-45.333 -38 -91.666 -95.333 -138.999 -172c-43.333 -68 -63.666 -139.667 -60.999 -215c2 -57.333 19.667 -86.666 53 -87.999s60 2.66699 80 12
c37.333 17.333 83.166 59.333 137.499 126s93.5 126.334 117.5 179.001c-5.33301 24 -8.33301 53.667 -9 89c0 16 0.666992 36 2 60z" />
    <glyph glyph-name="h" unicode="h" horiz-adv-x="1024" 
d="M137 1359c10 26 30.665 33.666 61.998 22.999c35.333 -12 56.333 -35 63 -69s12 -76 16 -126c18.667 -246 18.5 -434 -0.5 -564s-36.5 -241.667 -52.5 -335c-8 -40 0 -44.333 24 -13c62 82.667 149.167 167.667 261.5 255s187.166 142 224.499 164
c70 40 120.667 41.333 152 4c16 -19.333 29.167 -45 39.5 -77s11.833 -74 4.5 -126c-8 -50.667 -15.333 -110.834 -22 -180.501s-10 -112.5 -10 -128.5c0 -23.333 5 -43.333 15 -60c10.667 -19.333 7.33398 -38.666 -9.99902 -57.999c-23.333 -26 -50.333 -42.667 -81 -50
c-40 -10.667 -60 14.666 -60 75.999c0 7.33301 1.66699 30.5 5 69.5s7.33301 81.667 12 128s8.83398 90.333 12.501 132s5.5 68.834 5.5 81.501c0 50.667 -29.333 59 -88 25c-74 -43.333 -158.667 -113.166 -254 -209.499s-167.666 -180.833 -216.999 -253.5
c-12 -18 -28 -30.5 -48 -37.5s-39.667 -13.5 -59 -19.5c-54.667 -15.333 -79 2 -73 52c4 41.333 20.333 129.5 49 264.5s47 307.833 55 518.5c2 74 1.83301 145.333 -0.5 214s-11.5 139.667 -27.5 213c-8 36 -7.33301 65 2 87z" />
    <glyph glyph-name="i" unicode="i" horiz-adv-x="442" 
d="M164 614c55.333 -79.333 87.501 -170.83 96.501 -274.497s12.5 -179.834 10.5 -228.501c-1.33301 -18 1.66699 -30.667 9 -38c9.33301 -12 8.16602 -23.167 -3.50098 -33.5s-22.5 -17.833 -32.5 -22.5c-25.333 -12.667 -48.333 -13.334 -69 -2.00098
c-16.667 8 -26.334 25.167 -29.001 51.5s-4 48.5 -4 66.5c0 22 -1.66699 72 -5 150s-20.666 153.667 -51.999 227c-14.667 31.333 -18 53.666 -10 66.999c14.667 24.667 32.667 40.667 54 48c14 4 25.667 0.333008 35 -11zM370.001 873.003c28 -19.333 31.333 -42 10 -68
c-29.333 -33.333 -67.333 -50 -114 -50c-44.667 0 -72.334 19 -83.001 57c-5.33301 16 -3.66602 33.833 5.00098 53.5s19 33.5 31 41.5c34.667 24 68.5 24.333 101.5 1z" />
    <glyph glyph-name="j" unicode="j" horiz-adv-x="518" 
d="M128 388c-30 38 -45.0029 73.665 -45.0029 106.998c0 40.667 23.333 58.667 70 54c12 -2 47.667 -44.667 107 -128c83.333 -119.333 137.833 -256 163.5 -410s13.834 -301.667 -35.499 -443c-58 -164.667 -133.833 -304.667 -227.5 -420s-197.5 -171.666 -311.5 -168.999
c-57.333 2 -106.666 26.5 -147.999 73.5s-74.666 104.167 -99.999 171.5s-42.833 138.833 -52.5 214.5s-11.834 142.834 -6.50098 201.501c7.33301 74 16.333 117.5 27 130.5s17.667 -30.833 21 -131.5c2.66699 -87.333 15.5 -173.333 38.5 -258s54.333 -153.167 94 -205.5
s86.834 -81 141.501 -86s115 28.833 181 101.5c126 139.333 207.833 325.333 245.5 558s-16.5 445.667 -162.5 639zM170.997 913.998c-23.333 56.667 -9.16699 89 42.5 97s86.167 -3.66699 103.5 -35c16 -30.667 26.667 -62.667 32 -96s8.66602 -59 9.99902 -77
c1.33301 -40 -6.66699 -56 -24 -48s-32 17.667 -44 29c-12 10 -33.667 30.667 -65 62s-49.666 54 -54.999 68z" />
    <glyph glyph-name="k" unicode="k" horiz-adv-x="922" 
d="M142 1264v22.5039c0 15 7.33301 30.5 22 46.5c20.667 21.333 48.334 19.666 83.001 -5.00098c16.667 -12 27.667 -35.667 33 -71c16.667 -120.667 25.834 -232.334 27.501 -335.001s-0.833008 -195.667 -7.5 -279c27.333 27.333 58.333 50 93 68
c75.333 40 139.5 58.167 192.5 54.5s88.833 -10.5 107.5 -20.5c22.667 -12.667 23.667 -37.667 3 -75c-8 -14 -16.333 -25.5 -25 -34.5s-29.334 -9.83301 -62.001 -2.5c-38 8 -85.5 -2.66699 -142.5 -32s-104.5 -75 -142.5 -137c-43.333 -70 -47.333 -145 -12 -225
c24 -59.333 58 -92.833 102 -100.5s92.667 -8.5 146 -2.5c71.333 8 133 23.5 185 46.5s107 50.167 165 81.5c64 34.667 99.5 50 106.5 46s-23.167 -36 -90.5 -96c-68 -61.333 -174.667 -114.5 -320 -159.5s-267 -34.5 -365 31.5c-17.333 11.333 -31.333 23.666 -42 36.999
c-14.667 -64.667 -30.667 -101.334 -48 -110.001c-37.333 -18.667 -68 -14.667 -92 12c-10 10.667 -14.667 22.667 -14 36s6.66699 38 18 74c5.33301 18 17.666 63.5 36.999 136.5s36.666 162 51.999 267s24.333 220.833 27 347.5s-9.66602 252.667 -36.999 378z" />
    <glyph glyph-name="l" unicode="l" horiz-adv-x="417" 
d="M261 1509c41.333 -20 52.998 -99.6689 34.998 -239.002c-43.333 -328 -68.166 -577.5 -74.499 -748.5s-9.83301 -291.833 -10.5 -362.5c-0.666992 -29.333 10 -44.666 32 -45.999s43 9 63 31c6 6.66699 11 6.5 15 -0.5s3.66699 -17.833 -1 -32.5
c-17.333 -50 -55.833 -89.167 -115.5 -117.5s-98.167 -0.166016 -115.5 84.501c-10 47.333 -10 137 0 269s22.333 271.5 37 418.5s27.5 284.333 38.5 412s12.5 211.167 4.5 250.5c-9.33301 42.667 -1.66602 69 23.001 79s47.667 10.667 69 2z" />
    <glyph glyph-name="m" unicode="m" horiz-adv-x="1684" 
d="M116 761c43.333 0.666992 74.001 -16.3291 92.001 -50.9961c32 -64.667 55.167 -126.834 69.5 -186.501s19.5 -128.5 15.5 -206.5c-1.33301 -22.667 7.33398 -23.334 26.001 -2.00098c15.333 16.667 41.833 43.334 79.5 80.001l121.5 113.5l125.5 108.5
c40.333 33.333 70.833 55.666 91.5 66.999c81.333 41.333 142 42 182 2c43.333 -44.667 62.5 -98 57.5 -160s-13.167 -129.333 -24.5 -202c-6 -39.333 1.66699 -45.333 23 -18c30 38 91.167 105 183.5 201s167.5 158 225.5 186c93.333 44 149.833 26.833 169.5 -51.5
s22.834 -149.166 9.50098 -212.499c-8.66699 -38.667 -24.834 -96.334 -48.501 -173.001s-35.834 -126.334 -36.501 -149.001c-1.33301 -42 10 -59.667 34 -53c6.66699 2 15 2.33301 25 1s9 -10 -3 -26c-12.667 -15.333 -35.167 -30.833 -67.5 -46.5
s-61.833 -13.5 -88.5 6.5s-37.334 57 -32.001 111s11.333 89 18 105c6 15.333 20.667 65.5 44 150.5s34.333 138.5 33 160.5s-7.5 37.333 -18.5 46s-33.833 -1 -68.5 -29c-22 -18 -51.333 -48.833 -88 -92.5l-117 -137.5c-41.333 -48 -82.5 -92.833 -123.5 -134.5
s-76.5 -69.167 -106.5 -82.5c-109.333 -48.667 -156 -32 -140 50c6 34 17.333 83.667 34 149s25.334 130 26.001 194c0 31.333 -5.16699 56 -15.5 74s-35.5 13.333 -75.5 -14c-68.667 -46.667 -137.5 -102.667 -206.5 -168s-133.833 -130.333 -194.5 -195
c-14.667 -15.333 -27.334 -36 -38.001 -62c-18.667 -42.667 -47.334 -71.334 -86.001 -86.001c-22 -8.66699 -46.5 -17.334 -73.5 -26.001s-35.833 13.333 -26.5 66c20.667 125.333 31 216.666 31 273.999s-14.333 125 -43 203
c-15.333 40.667 -26.666 68.834 -33.999 84.501s-11 39.834 -11 72.501c0 39.333 16.667 59 50 59z" />
    <glyph glyph-name="n" unicode="n" horiz-adv-x="915" 
d="M63 655c27.333 15.333 54.335 18.3291 81.002 8.99609c27.333 -9.33301 42 -32.666 44 -69.999c0.666992 -23.333 8.5 -60.166 23.5 -110.499s21.5 -109.5 19.5 -177.5c-1.33301 -24 2.16699 -33 10.5 -27s15.5 12.667 21.5 20c2.66699 2.66699 19.667 21.667 51 57
l108.5 120l124 131.5c41.667 43 74.5 73.833 98.5 92.5c68 52.667 118.667 45.334 152 -21.999c26 -54 35 -129.5 27 -226.5s-13 -163.167 -15 -198.5c-2 -36 -5 -68 -9 -96s-1.66699 -51 7 -69c12.667 -28.667 8 -50 -14 -64c-28.667 -16.667 -56.667 -12.667 -84 12
c-18.667 16.667 -28.834 32.834 -30.501 48.501s-1.16699 32.167 1.5 49.5c2 17.333 8 80 18 188s14.333 178.667 13 212c-1.33301 32.667 -7.66602 47.5 -18.999 44.5s-28 -14.167 -50 -33.5c-26.667 -23.333 -74 -72.5 -142 -147.5s-130 -146.5 -186 -214.5
c-54 -66.667 -88.667 -113.667 -104 -141c-14.667 -24 -34.334 -36.667 -59.001 -38s-42 1 -52 7c-18 10 -22.667 32.667 -14 68c3.33301 14.667 6.5 33.167 9.5 55.5s7.5 47.5 13.5 75.5c5.33301 26.667 7.16602 54.5 5.49902 83.5s-3.5 52.833 -5.5 71.5
c-2.66699 18 -8.66699 46.167 -18 84.5s-18 70.5 -26 96.5c-20 60.667 -20.333 97 -1 109z" />
    <glyph glyph-name="o" unicode="o" horiz-adv-x="720" 
d="M117 598l13.5 27c9 18 32.5 26.667 70.5 26c14 0 29 18.833 45 56.5s59 69.5 129 95.5c43.333 15.333 88.5 19.666 135.5 12.999s85.5 -50.667 115.5 -132c50.667 -137.333 34.5 -269.166 -48.5 -395.499s-159.5 -212.833 -229.5 -259.5c-62 -40 -123 -39.333 -183 2
s-94.667 112 -104 212c-6.66699 70 -3 139.5 11 208.5s29 117.833 45 146.5zM237 374c8 -26 3.83496 -43.0039 -12.498 -51.0039s-26.166 -12.333 -29.499 -13c-8.66699 -2 -14 -15.333 -16 -40c-1.33301 -17.333 -1 -36.666 1 -57.999s10.667 -43.666 26 -66.999
c16 -26 35 -36.833 57 -32.5s44.667 14.166 68 29.499c24.667 14.667 51.167 39.334 79.5 74.001s50.166 66.334 65.499 95.001c34.667 65.333 58.667 127.5 72 186.5s2 114.833 -34 167.5c-30 42.667 -72 50.667 -126 24c-56.667 -29.333 -106.334 -83 -149.001 -161
c-22.667 -39.333 -23.334 -90.666 -2.00098 -153.999z" />
    <glyph glyph-name="p" unicode="p" horiz-adv-x="1063" 
d="M146 755c15.333 -2 30 -17.502 44 -46.502s26 -58.5 36 -88.5c11.333 -34 23.5 -77.5 36.5 -130.5s21.167 -101.5 24.5 -145.5c0.666992 -8.66699 1 -23.334 1 -44.001c32.667 58 67.667 114.5 105 169.5s75 103.5 113 145.5c88.667 98.667 165.667 153.5 231 164.5
s120 3.5 164 -22.5c80 -48.667 110.333 -119.5 91 -212.5s-47.666 -169.5 -84.999 -229.5c-53.333 -86 -127 -151.5 -221 -196.5s-175.333 -60.167 -244 -45.5c-32.667 6.66699 -53.834 22.334 -63.501 47.001l-14.5 37c-34 -44.667 -53 -79.667 -57 -105
c-6 -36 -16.167 -116.667 -30.5 -242s-26.5 -208.333 -36.5 -249c-11.333 -40 -21.833 -69.333 -31.5 -88s-30.167 -37 -61.5 -55c-36.667 -20.667 -58 -18 -64 8s-9.66699 58 -11 96c-2 38.667 3.16699 107.167 15.5 205.5s25.833 170.5 40.5 216.5
c14 46.667 33 96.334 57 149.001c-1.33301 55.333 -7.83301 128.333 -19.5 219s-33.834 202.667 -66.501 336c-19.333 74.667 -3.66602 110.334 47.001 107.001zM387 243.998c56 4 84.668 -10 86.001 -42c0.666992 -22 6 -33.667 16 -35s19.667 -2 29 -2
c32 -1.33301 90.833 26 176.5 82s141.167 141 166.5 255c23.333 105.333 4.66602 157.5 -56.001 156.5s-112.667 -18.167 -156 -51.5c-58 -44 -116.167 -115.5 -174.5 -214.5z" />
    <glyph glyph-name="q" unicode="q" horiz-adv-x="787" 
d="M488 -238l-107.498 -397.501c-35.667 -131 -53.834 -199.833 -54.501 -206.5c-2 -10 -0.333008 -16.333 5 -19s12.666 3 21.999 17c115.333 188.667 197 316.334 245 383.001s97.333 127.667 148 183c50.667 56 76 77.833 76 65.5s-16.333 -40.166 -49 -83.499
c-32.667 -42.667 -92.5 -133.167 -179.5 -271.5s-181.833 -320.5 -284.5 -546.5c-6 -12.667 -10.667 -26.667 -14 -42s-18.333 -36.333 -45 -63c-38.667 -38.667 -71.667 -49.334 -99 -32.001c-10.667 7.33301 -9.66699 49.666 3 126.999c38 240 92.5 478.5 163.5 715.5
s128.5 476.167 172.5 717.5c-48 -99.333 -105 -184.333 -171 -255c-28 -30 -70.333 -49.667 -127 -59s-95.667 35.667 -117 135c-16 70 -19.167 149.5 -9.5 238.5s45.167 180.5 106.5 274.5c30.667 48 70.667 97.667 120 149s106.333 73 171 65
c43.333 -6 82.833 -22.667 118.5 -50s61.5 -53.666 77.5 -78.999c22 -36 27 -60.167 15 -72.5l-18 -18.5c6.66699 -5.33301 8.66699 -26 6 -62c-15.333 -144 -38.833 -281 -70.5 -411s-66.167 -264 -103.5 -402zM581.002 650.999c-4 14 -16.833 28.499 -38.5 43.499
s-46.167 22.5 -73.5 22.5c-50.667 0 -100.5 -32.833 -149.5 -98.5s-80.833 -118.5 -95.5 -158.5c-10 -26 -19 -55.833 -27 -89.5s-12.333 -73.5 -13 -119.5c-1.33301 -44 2.16699 -79.833 10.5 -107.5s31.833 -22.5 70.5 15.5c52 53.333 106.5 126.333 163.5 219
s90.833 163.334 101.5 212.001c6 28.667 12.5 46.5 19.5 53.5s17.5 9.5 31.5 7.5z" />
    <glyph glyph-name="r" unicode="r" 
d="M140 761c28 -39.333 52.4971 -83.502 73.4971 -132.502s39.167 -98.833 54.5 -149.5c8.66699 -26.667 21.334 -27 38.001 -1c24.667 40.667 72.334 104.167 143.001 190.5s150 154.166 238 203.499c43.333 24 82.333 32.667 117 26s62 -22.334 82 -47.001
c26.667 -36 41.667 -80.5 45 -133.5s4 -91.5 2 -115.5c-2.66699 -25.333 -7.5 -35.166 -14.5 -29.499s-13.167 20.167 -18.5 43.5c-8 30 -17.667 57.667 -29 83s-25 43 -41 53c-32 19.333 -67 19.333 -105 0c-34 -18 -68.833 -43 -104.5 -75s-67.167 -65 -94.5 -99
c-68 -84 -122.167 -181.667 -162.5 -293s-65.166 -178 -74.499 -200c-10 -22.667 -27.167 -40.167 -51.5 -52.5s-47.5 -22.5 -69.5 -30.5c-52 -17.333 -67.333 5 -46 67c8 24.667 16.333 53.167 25 85.5s17 79.5 25 141.5c2 16.667 1 35.334 -3 56.001l-12 60
c-4.66699 18.667 -17.167 54.167 -37.5 106.5l-43.5 111.5c-7.33301 16.667 -14.833 32.834 -22.5 48.501s-10.5 31.5 -8.5 47.5c2.66699 22.667 13.667 40.334 33 53.001c21.333 13.333 42 7.33301 62 -18z" />
    <glyph glyph-name="s" unicode="s" horiz-adv-x="782" 
d="M489 804c60 0 99 -8.33301 117 -25c22 -22.667 19.667 -46 -7 -70c-22.667 -19.333 -64.667 -33.333 -126 -42c-48 -7.33301 -92.833 -18.5 -134.5 -33.5s-77.5 -40.5 -107.5 -76.5c-19.333 -22 -31.166 -46.667 -35.499 -74s3.5 -43 23.5 -47
c42.667 -10 98 -4.5 166 16.5s121.667 35.5 161 43.5c64 12.667 113.667 14.667 149 6s42 -56 20 -142c-9.33301 -34 -26 -73.667 -50 -119s-54.333 -89 -91 -131c-34 -38 -67 -73 -99 -105s-63.333 -53.333 -94 -64c-36 -12 -58.667 -13.167 -68 -3.5
s-13 33.834 -11 72.501c0.666992 30 13.334 44 38.001 42c28 -3.33301 71.667 33.167 131 109.5s95.333 125.166 108 146.499c10.667 18 18.167 36.667 22.5 56s-13.5 21 -53.5 5c-34 -14 -83.167 -28.833 -147.5 -44.5s-126.166 -21.167 -185.499 -16.5
c-34.667 2 -66.334 8.16699 -95.001 18.5s-49.334 32.833 -62.001 67.5c-23.333 59.333 -4.83301 128.333 55.5 207s115.5 130 165.5 154c42 20 79.667 33 113 39s65.666 9.33301 96.999 10z" />
    <glyph glyph-name="t" unicode="t" horiz-adv-x="796" 
d="M226 1218c-8 60 2.33203 93.334 30.999 100.001c17.333 3.33301 50.333 -5 99 -25c24 -10 34.5 -38.333 31.5 -85s-2.16699 -107.667 2.5 -183c2 -37.333 3.33301 -92.833 4 -166.5s1.33398 -153.5 2.00098 -239.5c182 14.667 360.667 47 536 97
c52 14 57.333 5.66699 16 -25c-68.667 -53.333 -152.5 -100.333 -251.5 -141s-198.5 -69 -298.5 -85c0 -32 0.333008 -56 1 -72c0 -54 2.33301 -104 7 -150s7 -77 7 -93c0 -55.333 -5.83301 -92.166 -17.5 -110.499s-29.834 -33.5 -54.501 -45.5
c-25.333 -12 -44 -2.5 -56 28.5s-17.333 64.5 -16 100.5c2.66699 107.333 3.66699 216.666 3 327.999c-43.333 -2.66699 -84 -1.66699 -122 3c-16 2 -35 5 -57 9s-39 10.667 -51 20c-26 17.333 -31 51.333 -15 102c10 33.333 31.333 46.666 64 39.999
c46 -10 105.333 -14.333 178 -13c-5.33301 229.333 -19.666 431.333 -42.999 606z" />
    <glyph glyph-name="u" unicode="u" horiz-adv-x="821" 
d="M88 758c31.333 12 61 11.666 89 -1.00098c16 -8 26.167 -21.167 30.5 -39.5s7.16602 -36.166 8.49902 -53.499c0.666992 -14 5.66699 -75.5 15 -184.5s18 -190.5 26 -244.5c6.66699 -48 18.667 -60.167 36 -36.5s30.666 42.5 39.999 56.5
c8.66699 14 36.667 65.167 84 153.5s76.333 147.166 87 176.499c10 28 15.167 53.5 15.5 76.5s0.5 49.5 0.5 79.5c0 28.667 11.167 45.667 33.5 51s40.5 6 54.5 2c36 -12.667 55.333 -31.667 58 -57c4 -51.333 4.83301 -106.833 2.5 -166.5
s-2.16602 -131.167 0.500977 -214.5c0.666992 -31.333 0.833984 -61.333 0.500977 -90s0.5 -53 2.5 -73c3.33301 -35.333 13 -66.166 29 -92.499s37.333 -25.833 64 1.5c13.333 13.333 23.333 18.666 30 15.999s6.33398 -11.667 -0.999023 -27l-13.5 -28.5
c-4.33301 -9 -11.833 -19.5 -22.5 -31.5c-46 -47.333 -90.667 -48 -134 -2c-36 40 -56.167 86.667 -60.5 140s-6.5 96 -6.5 128c-0.666992 28.667 -1.33398 55.5 -2.00098 80.5s-1 44.167 -1 57.5c0 24 -4 25.333 -12 4c-23.333 -56 -50.833 -117.167 -82.5 -183.5
s-73.5 -130.5 -125.5 -192.5c-30 -34 -56.667 -50.5 -80 -49.5s-43 9.83301 -59 26.5c-22 22 -37.5 55.667 -46.5 101s-16.5 85.333 -22.5 120l-36 212c-12.667 76.667 -21.667 139.334 -27 188.001c-6 56 2.33301 88.333 25 97z" />
    <glyph glyph-name="v" unicode="v" horiz-adv-x="733" 
d="M135 730c36 -26.667 71.3311 -104.001 105.998 -232.001s61.334 -222.667 80.001 -284c8 -29.333 13.833 -40.666 17.5 -33.999s9.5 20 17.5 40c34 86 90 196 168 330s144.333 230.667 199 290c24 26 42.833 41 56.5 45s28.167 1 43.5 -9c14 -10 21.5 -27 22.5 -51
s-3.5 -35 -13.5 -33c-10 1.33301 -20.833 -1.33398 -32.5 -8.00098s-26.5 -23.334 -44.5 -50.001l-87.5 -135.5c-44.333 -68.333 -84.5 -135.5 -120.5 -201.5c-30 -56 -51.833 -110.667 -65.5 -164s-27.167 -110.666 -40.5 -171.999c-2.66699 -10 -8 -23.167 -16 -39.5
s-22.667 -29.166 -44 -38.499c-22 -10 -46 -16.5 -72 -19.5s-44 12.5 -54 46.5l-75.5 271c-40.333 146 -80.166 264.333 -119.499 355c-18 40 -11.667 71.333 19 94c11.333 8 23.5 10 36.5 6z" />
    <glyph glyph-name="w" unicode="w" horiz-adv-x="1276" 
d="M26 715c10.667 40.667 43.0039 50.667 97.0039 30c24.667 -9.33301 45 -45.333 61 -108c3.33301 -14.667 10.333 -43.334 21 -86.001l33.5 -133.5l32 -126.5c9.66699 -38 15.5 -60 17.5 -66c4 -18 13.333 -13.333 28 14c53.333 106.667 107.166 196.5 161.499 269.5
s84.833 114.5 91.5 124.5c12.667 18.667 20 33.334 22 44.001c1.33301 8 5.33301 16.833 12 26.5s23 14.5 49 14.5c54 0 87 -15.667 99 -47l61 -160.5c26.667 -69 44 -141.833 52 -218.5c2.66699 -26.667 13.667 -24.334 33 6.99902
c100.667 177.333 181.667 297.333 243 360s125.666 118.667 192.999 168c32 23.333 53.667 27 65 11s7 -33.667 -13 -53c-114 -114.667 -211 -239 -291 -373s-130 -226.667 -150 -278l-29.5 -71.5c-9 -21.667 -26.5 -39.5 -52.5 -53.5
c-26.667 -14 -55.334 -22.333 -86.001 -25s-47.334 16 -50.001 56c-3.33301 40 -4.66602 100.833 -3.99902 182.5s-16 178.5 -50 290.5c-10.667 34.667 -27.334 33.334 -50.001 -3.99902c-6 -10 -20 -32 -42 -66l-70 -110l-69 -111.5c-21.333 -35 -34.333 -58.167 -39 -69.5
c-23.333 -51.333 -50 -88 -80 -110c-24 -17.333 -47.167 -31.5 -69.5 -42.5s-38.5 5.83301 -48.5 50.5l-32 127l-51 194.5c-18 67 -35 127.5 -51 181.5s-27 83.667 -33 89c-12 10 -16.833 24.667 -14.5 44z" />
    <glyph glyph-name="x" unicode="x" horiz-adv-x="849" 
d="M130 851c21.333 0 39.3301 -7.33301 53.9971 -22s38 -40.334 70 -77.001c16 -20 35.833 -47.833 59.5 -83.5l75.5 -117.5c52 61.333 106 117.833 162 169.5s112.333 91.167 169 118.5c33.333 16.667 63 14.334 89 -6.99902c25.333 -20.667 21 -42.334 -13 -65.001
c-84 -60 -153.5 -115.5 -208.5 -166.5s-101.5 -99.5 -139.5 -145.5l119.5 -199.5c37.667 -63 65.834 -105.5 84.501 -127.5c16 -21.333 34.167 -30.833 54.5 -28.5s34.5 8.5 42.5 18.5c30 35.333 42.333 24.666 37 -32.001c-4 -34.667 -21.333 -61.667 -52 -81
c-28 -17.333 -58 -22 -90 -14c-31.333 7.33301 -58.166 30.333 -80.499 69s-41.166 70 -56.499 94l-134 205c-32 -44 -62 -87.833 -90 -131.5s-60.333 -89.167 -97 -136.5c-38.667 -48.667 -62.5 -80 -71.5 -94s-23.5 -23.333 -43.5 -28c-20 -4 -36 2.16699 -48 18.5
s-10.333 35.5 5 57.5l114 171c49.333 75.333 105.333 154 168 236c-14.667 22.667 -26 39.334 -34 50.001c-47.333 68 -90.5 125.167 -129.5 171.5s-60.167 73.5 -63.5 81.5c-17.333 42.667 -17.333 69.334 0 80.001s33 16 47 16z" />
    <glyph glyph-name="y" unicode="y" horiz-adv-x="998" 
d="M836 690c2 59.333 24.166 83 66.499 71s65.5 -44 69.5 -96c2 -24 -5.33301 -50.5 -22 -79.5s-32.334 -52.167 -47.001 -69.5l-242 -285.5l-325.5 -399.5l-318 -418c-99.667 -137.333 -173.167 -251 -220.5 -341c-18 -34 -34.333 -68.667 -49 -104
s-23.334 -70 -26.001 -104c-1.33301 -40.667 15.334 -58.667 50.001 -54c20 3.33301 38.333 -1.33398 55 -14.001s6 -25.667 -32 -39c-65.333 -22.667 -111 -13.5 -137 27.5s-31.333 91.5 -16 151.5c20 76 67.333 175.333 142 298s154.334 244.334 239.001 365.001
s163.834 228.334 237.501 323.001l137.5 175l20 24c-60 57.333 -124.833 126.333 -194.5 207s-121.167 145 -154.5 193c-18 25.333 -32.5 49.5 -43.5 72.5s0.166992 42.167 33.5 57.5c16.667 7.33301 33.334 4.5 50.001 -8.5l53 -43.5c30 -26.667 73.833 -77.667 131.5 -153
l179.5 -236c1.33301 -2 2.66602 -4.16699 3.99902 -6.5s3 -4.5 5 -6.5l179 208c65.333 76 107 126 125 150c10 13.333 20.5 33.166 31.5 59.499s17.167 51.5 18.5 75.5z" />
    <glyph glyph-name="z" unicode="z" horiz-adv-x="834" 
d="M57 668c16.667 15.333 37.168 15.333 61.501 0s45.5 -25.333 63.5 -30c114.667 -32 209.834 -42.5 285.501 -31.5l210.5 31.5c48 7.33301 79.333 2.66602 94 -14.001c14 -16 18.5 -30.5 13.5 -43.5s-10.833 -26.833 -17.5 -41.5
c-14.667 -30.667 -47.334 -63.167 -98.001 -97.5s-105.834 -68.166 -165.501 -101.499l-171 -95c-54.333 -30 -92.5 -56 -114.5 -78c-23.333 -23.333 -22.333 -36.333 3 -39c50 -7.33301 96.333 -9.83301 139 -7.5s88 7.83301 136 16.5c91.333 16 208.333 57 351 123
c74 34 107.5 37.333 100.5 10s-38.5 -58.666 -94.5 -93.999c-60 -36.667 -161.167 -81.834 -303.5 -135.501s-296.166 -61.5 -461.499 -23.5c-34.667 8.66699 -54 32 -58 70c-4.66699 33.333 7.66602 65.666 36.999 96.999c29.333 30 72.333 63.167 129 99.5
s113.5 70.666 170.5 102.999s107.5 59.833 151.5 82.5s68 35.667 72 39c19.333 15.333 15.333 20 -12 14c-104 -24 -210.5 -31.667 -319.5 -23s-173.167 23.334 -192.5 44.001c-17.333 17.333 -26.333 39.833 -27 67.5s5 46.834 17 57.501z" />
    <glyph glyph-name="Odieresis" unicode="&#xd6;" horiz-adv-x="2224" 
d="M297 148c22 20.667 47.667 30.667 77 30s52.666 -5 69.999 -13c16 -8 24.5 -21.5 25.5 -40.5s-3.16699 -35.5 -12.5 -49.5c-10.667 -16 -35 -29.667 -73 -41c-19.333 -6 -39.166 -9.83301 -59.499 -11.5s-37.833 3.5 -52.5 15.5c-15.333 10 -19.5 26.5 -12.5 49.5
s19.5 43.167 37.5 60.5zM1814 67c15.333 14 33.6689 20.499 55.002 19.499s38.333 -7.5 51 -19.5s21.667 -29 27 -51s-2.33398 -39 -23.001 -51c-45.333 -23.333 -86 -20.666 -122 8.00098c-20.667 16 -25.834 33.667 -15.501 53s19.5 33 27.5 41zM980.003 86.999
c-3.33301 15.333 -1.83301 31.167 4.5 47.5s24.5 22.5 54.5 18.5c15.333 0 45.333 -12 90 -36s83.667 -51 117 -81c32 -30 37.667 -50.5 17 -61.5s-46 -15.833 -76 -14.5c-30.667 2 -70.5 11.667 -119.5 29s-78.167 50 -87.5 98z" />
    <glyph glyph-name="edieresis" unicode="&#xeb;" horiz-adv-x="442" 
d="M249 1001c14 -1.33301 28.168 -6.5 42.501 -15.5s21.833 -25.5 22.5 -49.5c0 -38.667 -16.833 -73.667 -50.5 -105s-58.5 -53.333 -74.5 -66c-30 -24 -58 -55 -84 -93c-10 -14 -20.333 -20 -31 -18s-14.667 20 -12 54c2 32 12.667 71 32 117s39.666 84.667 60.999 116
c30 43.333 61.333 63.333 94 60z" />
    <glyph glyph-name="iacute" unicode="&#xed;" horiz-adv-x="543" 
d="M293 1012c12.667 5.33301 27.5 7.33203 44.5 5.99902s31.5 -12.333 43.5 -33c18.667 -34 20.5 -72.5 5.5 -115.5s-26.5 -74.167 -34.5 -93.5c-15.333 -38 -25 -78.333 -29 -121c-2 -17.333 -8.33301 -27.666 -19 -30.999s-23 10.334 -37 41.001
c-14 30 -23.167 69.667 -27.5 119s-4.5 93 -0.5 131c4.66699 51.333 22.667 83.666 54 96.999z" />
    <glyph glyph-name="igrave" unicode="&#xec;" horiz-adv-x="733" 
d="M116 1465c41.333 20.667 76.666 21.333 105.999 2c22 -18 29 -39.667 21 -65c-6 -18 -22.5 -34.167 -49.5 -48.5s-46.5 -31.5 -58.5 -51.5c-12 -20.667 -19.167 -42.5 -21.5 -65.5s-5.16602 -42.167 -8.49902 -57.5c-4 -17.333 -12.833 -32.333 -26.5 -45
s-30.5 -1.66699 -50.5 33c-38 66 -37.167 129.833 2.5 191.5s68.167 97.167 85.5 106.5zM518 1393c40 -7.33301 57.999 -25.001 53.999 -53.001c-4 -20.667 -23.333 -42 -58 -64c-14 -9.33301 -26.667 -24.833 -38 -46.5s-18.666 -41.5 -21.999 -59.5
c-16 -76 -39.667 -109.5 -71 -100.5s-42.333 47.167 -33 114.5c5.33301 38.667 13.5 70.667 24.5 96s23.5 48 37.5 68c18 28 38 42.833 60 44.5s37.333 1.83398 46 0.500977z" />
    <glyph glyph-name="icircumflex" unicode="&#xee;" horiz-adv-x="771" 
d="M228 1436l19.5 8.00195c13 5.33301 24.833 5.33301 35.5 0c10 -5.33301 18 -11.5 24 -18.5s13.333 -30.5 22 -70.5c8 -38.667 24.833 -76.834 50.5 -114.501s43.5 -60.5 53.5 -68.5c20.667 -19.333 30.667 -36 30 -50c-1.33301 -12.667 -7.83301 -23.667 -19.5 -33
s-21.5 -14.333 -29.5 -15s-17.333 -0.5 -28 0.5s-22.667 8.5 -36 22.5c-14 14 -38.833 51 -74.5 111s-56.167 107 -61.5 141c-6 33.333 -7 53.666 -3 60.999s9.66699 16 17 26zM541 1358c6.66699 15.333 20.167 22.998 40.5 22.998s35.833 -2.66699 46.5 -8
c7.33301 -4 21.666 -16.667 42.999 -38s38.333 -47 51 -77c9.33301 -23.333 12.833 -47.666 10.5 -72.999s-6.5 -48.333 -12.5 -69c-7.33301 -21.333 -17.666 -27 -30.999 -17s-24 22 -32 36c-18.667 31.333 -35.167 57.333 -49.5 78s-28.5 42.334 -42.5 65.001
c-23.333 36 -31.333 62.667 -24 80z" />
    <glyph glyph-name="udieresis" unicode="&#xfc;" horiz-adv-x="809" 
d="M417 737c97.333 0 180.666 -34.667 249.999 -104s104 -153 104 -251s-34.667 -181.667 -104 -251s-152.666 -104 -249.999 -104c-98 0 -181.667 34.667 -251 104s-104 153 -104 251s34.667 181.667 104 251s153 104 251 104z" />
    <glyph glyph-name="trademark" unicode="&#x2122;" horiz-adv-x="1150" 
d="M182 1043c50.667 -11.333 76.333 -26.666 77 -45.999s15.667 -42 45 -68c30 -28.667 64.333 -50.334 103 -65.001c16 -6 26.5 -14.333 31.5 -25s-7.16699 -17.667 -36.5 -21c-36 -4 -81.167 1.16699 -135.5 15.5s-95.5 34.5 -123.5 60.5c-28 25.333 -38.667 59 -32 101
c2.66699 18.667 12.167 32 28.5 40s30.5 10.667 42.5 8zM853.999 828c37.333 1.33301 66.3301 -8.00195 86.9971 -28.002c25.333 -26 22.333 -52.333 -9 -79c-14 -12 -28.333 -18.833 -43 -20.5s-35 -4.5 -61 -8.5c-52 -6.66699 -103 -21.167 -153 -43.5
s-86.667 -47.5 -110 -75.5c-21.333 -25.333 -31.166 -45.666 -29.499 -60.999s6.16699 -29 13.5 -41c4 -9.33301 14 -19.5 30 -30.5s34.333 -14.5 55 -10.5c52.667 10.667 112.667 29.667 180 57s121 40 161 38c28 -2 46.833 -4.5 56.5 -7.5s19.834 -8.5 30.501 -16.5
c30.667 -24 37.667 -62.667 21 -116c-20 -64.667 -64.833 -143.334 -134.5 -236.001s-116.5 -149.334 -140.5 -170.001c-18 -15.333 -33.667 -23.833 -47 -25.5s-24 -2.5 -32 -2.5c-30 0 -45.333 13.667 -46 41c0 12.667 0.666992 23.834 2 33.501s9 22.834 23 39.501
c20.667 25.333 57.834 68.166 111.501 128.499s86.5 100.166 98.5 119.499c10.667 18.667 16 37.334 16 56.001s-20 19.334 -60 2.00098c-40 -18 -88.333 -38.5 -145 -61.5s-115 -26.833 -175 -11.5c-53.333 13.333 -89.166 32 -107.499 56s-31.5 44.667 -39.5 62
c-6.66699 14.667 -11.334 43.334 -14.001 86.001s5.33301 79 24 109c43.333 72 107 125.667 191 161c43.333 18 87.333 31.333 132 40s82.667 14 114 16z" />
    <glyph glyph-name="acute" unicode="&#xb4;" horiz-adv-x="1618" 
d="M415 623c-11.333 20 -30.333 33.001 -57 39.001s-53 -16.333 -79 -67c-32 -60 -57.667 -121.667 -77 -185s-26 -141.666 -20 -234.999c0.666992 -20 7.5 -37 20.5 -51s32.5 -11.333 58.5 8c37.333 28 69.5 65.667 96.5 113s48.5 90 64.5 128
c-3.33301 7.33301 -5 11.666 -5 12.999c-10.667 36 -16.167 77.167 -16.5 123.5s4.5 84.166 14.5 113.499zM1543 699.001c40 16 69.002 8.00098 87.002 -23.999c6.66699 -13.333 10.834 -31.333 12.501 -54s-13.5 -59 -45.5 -109l-400.5 -610
c-177 -264.667 -338.5 -520.667 -484.5 -768c-34 -57.333 -55.333 -104.833 -64 -142.5s3.33301 -54.5 36 -50.5c32 4.66699 46.333 3.66699 43 -3s-14 -18 -32 -34c-18.667 -16 -52.834 -26.333 -102.501 -31s-67.5 31 -53.5 107c7.33301 43.333 25.833 96.333 55.5 159
s62 125 97 187l99.5 170c31.333 51.333 52.333 86.666 63 105.999c28.667 58 67.667 126 117 204l157 241c-65.333 64.667 -131 155 -197 271s-107.667 192 -125 228l-25 52c-10.667 22.667 -9.33398 45 3.99902 67c7.33301 14.667 29 18.667 65 12
c9.33301 -2 20.166 -10.833 32.499 -26.5s22.833 -31.5 31.5 -47.5c40 -77.333 86.5 -157.333 139.5 -240s103.5 -149.667 151.5 -201l120.5 182l101.5 159c22 36 41.333 75.333 58 118s36 68.667 58 78zM471.002 287.002c-26 -59.333 -55.3311 -113.996 -87.998 -163.996
s-70.334 -86.333 -113.001 -109c-34.667 -18 -75 -19.167 -121 -3.5s-73.667 55.167 -83 118.5c-16.667 108 -11.334 219.667 15.999 335s66 201.333 116 258s104.167 80.167 162.5 70.5s100.5 -36.834 126.5 -81.501c6 -10 11.167 -19.5 15.5 -28.5l12.5 -25.5
c11.333 -10 20.666 -24 27.999 -42c7.33301 -21.333 12 -50 14 -86c2.66699 -64 11.667 -107.833 27 -131.5s39 -63.834 71 -120.501c27.333 -49.333 53.833 -103.5 79.5 -162.5s38.5 -142.833 38.5 -251.5c0 -139.333 -20.333 -256 -61 -350
s-78.334 -169.333 -113.001 -226c-92 -146.667 -207.833 -227.167 -347.5 -241.5s-275.5 27.5 -407.5 125.5c-20 15.333 -50.5 49.166 -91.5 101.499s-65.5 117.5 -73.5 195.5c-7.33301 78 1.83398 138.833 27.501 182.5s55.167 76.834 88.5 99.501
c34 23.333 51.667 29.666 53 18.999s-10 -29.334 -34 -56.001c-74 -82.667 -82.333 -190 -25 -322c22 -48 60.5 -92.833 115.5 -134.5s98.833 -67.167 131.5 -76.5c55.333 -14.667 132.833 -20.5 232.5 -17.5s188.834 88.5 267.501 256.5c91.333 196 125 349.833 101 461.5
s-41 185.167 -51 220.5c-7.33301 22 -22.833 50 -46.5 84z" />
    <glyph glyph-name="dieresis" unicode="&#xa8;" horiz-adv-x="1137" 
d="M505 609c-1.33301 10.667 -5.16602 23.8301 -11.499 39.4971s-17.5 25.5 -33.5 29.5c-22.667 6 -46.667 3.33301 -72 -8s-59 -44.333 -101 -99c-30 -39.333 -53.833 -94.333 -71.5 -165s-24.834 -127 -21.501 -169c2 -39.333 14.167 -66.666 36.5 -81.999
s58.166 -8.66602 107.499 20.001c43.333 24.667 95.166 69.334 155.499 134.001s116.5 141.334 168.5 230.001c-2 30 -1.83301 59.333 0.5 88s4.83301 54.334 7.5 77.001c4 34.667 11 54.5 21 59.5s19.667 10.167 29 15.5c24 13.333 48.667 8.33301 74 -15
c12 -12.667 16.167 -33 12.5 -61s-6.16699 -55 -7.5 -81c-2 -24.667 0.333008 -55.834 7 -93.501s18.667 -69.5 36 -95.5c34 -54 61.833 -101.667 83.5 -143s48.5 -104 80.5 -188c34.667 -93.333 48.667 -186.333 42 -279s-22.834 -178.5 -48.501 -257.5s-55 -148 -88 -207
s-58.167 -102.167 -75.5 -129.5c-61.333 -92 -146.833 -199.5 -256.5 -322.5s-246.5 -204.5 -410.5 -244.5c-142 -34 -265.667 -20.5 -371 40.5s-175 120.833 -209 179.5c-33.333 59.333 -58 137.5 -74 234.5s-17.333 185.5 -4 265.5c14 81.333 24.333 116.666 31 105.999
s10.667 -39.667 12 -87c2 -46.667 6 -105.834 12 -177.501s36 -154.167 90 -247.5c79.333 -134 194.166 -203.167 344.499 -207.5s282.833 42.5 397.5 140.5c74.667 64 147.834 135.833 219.501 215.5s138.834 181.834 201.501 306.501c80.667 162 113.667 311.167 99 447.5
s-64.334 271.166 -149.001 404.499l-46 69c-17.333 25.333 -31.333 53 -42 83c-42.667 -80 -81.667 -144.333 -117 -193s-80 -97 -134 -145c-32 -28.667 -84.167 -52.167 -156.5 -70.5s-129.833 4.5 -172.5 68.5c-55.333 84 -60.666 193 -15.999 327s99 234 163 300
c85.333 86 174.333 108.333 267 67c22 -10 43.833 -27.167 65.5 -51.5s34.834 -45.166 39.501 -62.499c10.667 -41.333 3.33398 -71 -21.999 -89c-18 -12 -37.5 -16.167 -58.5 -12.5s-32.5 15.5 -34.5 35.5z" />
    <glyph glyph-name="notequal" unicode="&#x2260;" horiz-adv-x="1346" 
d="M593 584c-19.333 -86.667 -19.835 -148.504 -1.50195 -185.504s47.833 -113.167 88.5 -228.5c41.333 -118 57.833 -230.333 49.5 -337s-27 -202.167 -56 -286.5s-61 -155.166 -96 -212.499l-70.5 -115c-10 -14.667 -24.5 -34.334 -43.5 -59.001s-42.5 -51.667 -70.5 -81
c2.66699 -4.66699 7.33398 -11.667 14.001 -21c89.333 -123.333 185 -169.833 287 -139.5s196 97 282 200s157 222.333 213 358s82.667 247.167 80 334.5c-2 36 -5.66699 76.667 -11 122s-13.333 91 -24 137l-31 114l-31 107c-6 -14 -11.833 -28.667 -17.5 -44
s-11.167 -31.333 -16.5 -48c-13.333 -39.333 -38.666 -76.666 -75.999 -111.999s-77.5 -59 -120.5 -71s-84 -8.16699 -123 11.5s-66.167 65.5 -81.5 137.5c-26 114.667 -17 220.834 27 318.501s80 167.5 108 209.5c30 45.333 76 86.5 138 123.5s119.333 32.833 172 -12.5
c50 -44 78 -83.667 84 -119s6 -65.666 0 -90.999c0 -12 -2.33301 -23.667 -7 -35c-6.66699 -17.333 -8.33398 -49.166 -5.00098 -95.499s10 -86.5 20 -120.5c34.667 -126.667 65.334 -251.5 92.001 -374.5s21.667 -250.5 -15 -382.5c-32.667 -116 -86 -237.333 -160 -364
s-157.333 -230 -250 -310s-189.167 -122.5 -289.5 -127.5s-192.833 55.833 -277.5 182.5c-14.667 21.333 -26.667 41.333 -36 60c-44.667 -38 -96.334 -74.167 -155.001 -108.5s-123 -58.5 -193 -72.5c-96 -19.333 -195.5 4.83398 -298.5 72.501s-172.5 191.5 -208.5 371.5
c-35.333 180.667 -14 316.334 64 407.001s123 140.334 135 149.001c20 14 33.833 19.667 41.5 17s3.5 -13.667 -12.5 -33c-24 -28 -60.167 -72.667 -108.5 -134s-64.5 -161.666 -48.5 -300.999c10 -86 35.333 -172.833 76 -260.5s108 -142.5 202 -164.5
c71.333 -16 147.166 -8.5 227.499 22.5s156.5 78.5 228.5 142.5c-22 56 -37.667 118.167 -47 186.5s-3.66602 137.5 17.001 207.5c20 68.667 37.833 103.5 53.5 104.5s14.834 -34.167 -2.49902 -105.5c-27.333 -108.667 -17.333 -223.334 30 -344.001
c80 84 141.667 176.667 185 278c62 144 89.667 274.5 83 391.5s-23 204.833 -49 263.5c-24.667 54 -45.667 115 -63 183c-19.333 -46 -44.333 -92.833 -75 -140.5s-71.334 -90.167 -122.001 -127.5c-79.333 -57.333 -138.666 -61 -177.999 -11s-62 100.333 -68 151
c-10.667 77.333 1.33301 163.666 36 258.999s81.334 175.666 140.001 240.999c34.667 38.667 72.167 68.834 112.5 90.501s80.833 25.5 121.5 11.5c66 -24.667 105.333 -60.334 118 -107.001c17.333 -12.667 21.666 -40.334 12.999 -83.001zM468.998 634.996
c-36 24 -72.333 23.168 -109 -2.49902s-69.5 -62.334 -98.5 -110.001s-52.667 -99.667 -71 -156s-26.833 -102.833 -25.5 -139.5c0.666992 -53.333 9.33398 -84.833 26.001 -94.5s36 -9.5 58 0.5c32.667 14.667 69.667 49 111 103s68.666 98 81.999 132l13.5 33.5
c4.33301 10.333 8.5 19.5 12.5 27.5c-9.33301 60 -12 110.667 -8 152c2 22 5 40 9 54zM1135 636.997c6 11.333 14.332 20.3311 24.999 26.998c-21.333 40 -50.333 54.667 -87 44s-68 -33.667 -94 -69c-36.667 -50 -69.834 -104.167 -99.501 -162.5
s-44.5 -118.166 -44.5 -179.499c-1.33301 -102 16.334 -155 53.001 -159s70 7 100 33c24 20.667 50.167 55.334 78.5 104.001s50.5 97.667 66.5 147c-6.66699 19.333 -10 31 -10 35c-5.33301 25.333 -8.16602 55 -8.49902 89s6.5 64.333 20.5 91z" />
    <glyph glyph-name="AE" unicode="&#xc6;" horiz-adv-x="758" 
d="M679 1141c-31.333 22 -70.834 71.3311 -118.501 147.998s-80.5 126.334 -98.5 149.001c-12 14 -23.833 23.667 -35.5 29s-21.5 -8 -29.5 -40c-12.667 -52.667 -31.5 -154.334 -56.5 -305.001s-43.5 -303 -55.5 -457c24 0.666992 44.667 3 62 7c52 10 115 25.667 189 47
s136.333 40 187 56s80.5 19.167 89.5 9.5s-17.167 -31.5 -78.5 -65.5c-55.333 -31.333 -124.833 -74.166 -208.5 -128.499s-166.5 -88.5 -248.5 -102.5c0 -96 8.33301 -163.833 25 -203.5s27.667 -71.5 33 -95.5c5.33301 -26 9.66602 -52 12.999 -78s-7 -53.333 -31 -82
c-54 -64.667 -90 -61 -108 11c-12 44.667 -23.167 105.834 -33.5 183.501s-15.833 165.5 -16.5 263.5c-36 5.33301 -63.667 14.166 -83 26.499s-35.666 26.5 -48.999 42.5c-34 40 -33.333 79.667 2 119c10.667 12 24.667 15.667 42 11s35 -8.66699 53 -12
c10 -2 23.667 -4 41 -6c1.33301 18.667 2.83301 37.667 4.5 57s3.83398 39 6.50098 59c13.333 108.667 28.833 246.834 46.5 414.501s38.5 300.5 62.5 398.5c6 26 23.167 50.167 51.5 72.5s63.833 11.833 106.5 -31.5c46 -48 107.333 -123 184 -225s122 -164 136 -186
c26 -42 28.333 -74.333 7 -97c-22 -22.667 -52.333 -19 -91 11z" />
    <glyph glyph-name="Oslash" unicode="&#xd8;" horiz-adv-x="1340" 
d="M751 1274c-18 -10.667 -33.3311 -16.4971 -45.998 -17.4971s-28 8.5 -46 28.5c-12.667 14 -32.834 45.167 -60.501 93.5l-76.5 131.5c-24 40 -51.333 72 -82 96s-56 -8 -76 -96c-19.333 -86 -38.166 -209 -56.499 -369s-27.5 -328 -27.5 -504
c53.333 -7.33301 115.333 -1 186 19c119.333 32.667 195.833 54.667 229.5 66s73.834 20 120.501 26c5.33301 0.666992 15 2 29 4c0 48 2 134.5 6 259.5s14.333 237.5 31 337.5c18 108.667 59.833 194.667 125.5 258s145.834 33.333 240.501 -90
c23.333 -30 43.666 -59.5 60.999 -88.5s31.333 -53.5 42 -73.5c8 -16.667 14.333 -35.667 19 -57s3.33398 -38.333 -3.99902 -51c-19.333 -33.333 -43.666 -36.666 -72.999 -9.99902c-18 16 -37.667 43.833 -59 83.5s-44 77.5 -68 113.5c-6 8 -23.833 24.167 -53.5 48.5
s-56.5 5.16602 -80.5 -57.501c-12 -32 -23 -83.5 -33 -154.5s-18.5 -148.333 -25.5 -232s-12.167 -167.334 -15.5 -251.001s-4.33301 -153.5 -3 -209.5v-5.5v-4.5c36.667 -3.33301 73 -1 109 7l153.5 37c56.333 14 108.166 20 155.499 18c32 -2 46.833 -8.5 44.5 -19.5
s-13.833 -18.5 -34.5 -22.5c-74.667 -16 -141.834 -47 -201.501 -93s-132.5 -72 -218.5 -78h-2h-1c2.66699 -52 7.5 -101.333 14.5 -148l30.5 -202c8.66699 -60.667 -3 -99.334 -35 -116.001c-54.667 -26 -88.334 -0.666992 -101.001 76c-10 62 -17.667 139 -23 231
c-12 34 -24.833 68 -38.5 102s-27.5 64.667 -41.5 92c-14 26.667 -26.333 45.5 -37 56.5s-14 29.5 -10 55.5c2.66699 26 14.167 41 34.5 45s37.5 3 51.5 -3c16 -6.66699 28.333 -11.667 37 -15c0 24.667 0.333008 47.5 1 68.5s1 39.5 1 55.5
c-4.66699 -2.66699 -9 -4.33398 -13 -5.00098c-66 -27.333 -125.333 -64.5 -178 -111.5s-112.667 -80.167 -180 -99.5c-70 -21.333 -133 -31.333 -189 -30c10 -121.333 26.333 -217.333 49 -288s18 -122.334 -14 -155.001c-22.667 -22.667 -47.334 -29 -74.001 -19
s-44 30.667 -52 62c-18 60 -29.167 127.167 -33.5 201.5s-5.5 149.166 -3.5 224.499c-44 18.667 -82.333 49.334 -115 92.001c-40 52 -51.333 87.5 -34 106.5l26 28.5c20.667 14 52.667 10 96 -12c4 -2.66699 8.83301 -6.5 14.5 -11.5s12.5 -10.167 20.5 -15.5l4 76.5
c1.33301 25 2.66602 48.5 3.99902 70.5c1.33301 40.667 4 98.834 8 174.501s9.83301 155.334 17.5 239.001s17.667 164.667 30 243s27.5 140.166 45.5 185.499c26 68 55.167 103.667 87.5 107s62.833 -4 91.5 -22c62.667 -41.333 117.667 -100.833 165 -178.5l127 -211.5
c14 -26 18.667 -48 14 -66z" />
    <glyph glyph-name="infinity" unicode="&#x221e;" horiz-adv-x="1061" 
d="M824 1450c15.333 14 32.666 18.335 51.999 13.002c22 -8 36.667 -27.667 44 -59c7.33301 -33.333 13.5 -94.166 18.5 -182.499l13.5 -234.5c2 -65.333 2 -138.5 0 -219.5s-4.66699 -158.5 -8 -232.5s-6.83301 -138.5 -10.5 -193.5s-5.5 -88.833 -5.5 -101.5
c-1.33301 -26.667 -3 -56.667 -5 -90s-1 -57 3 -71c4 -14.667 10.333 -19.334 19 -14.001s15 10.333 19 15c18.667 21.333 25.667 20 21 -4c-2.66699 -10.667 -7.16699 -24 -13.5 -40s-18.5 -34 -36.5 -54s-36.667 -26.833 -56 -20.5s-33 28.833 -41 67.5
c-6 26.667 -8.33301 62.667 -7 108s2.33301 93.666 3 144.999c0 48 0.833008 99.833 2.5 155.5s2.16699 120.5 1.5 194.5c-40.667 -81.333 -89.334 -167.666 -146.001 -258.999s-105.667 -161 -147 -209c-32 -37.333 -76.833 -77.333 -134.5 -120s-118.167 -60 -181.5 -52
c-102.667 12 -161 83.833 -175 215.5s-9.66699 236.5 13 314.5c19.333 67.333 44.333 124 75 170s51 74.667 61 86c10.667 12 29.5 25.167 56.5 39.5s54.5 18.166 82.5 11.499c24 -6.66699 43.5 -22.167 58.5 -46.5s26.5 -50.5 34.5 -78.5
c34 -127.333 6 -237.666 -84 -330.999c-26 -26.667 -58 -41.5 -96 -44.5s-71.333 0.833008 -100 11.5c0.666992 -130 29.834 -201.5 87.501 -214.5s126.834 17.833 207.501 92.5c26 23.333 71.333 75.666 136 156.999s125.667 169.666 183 264.999l34.5 59.5l33.5 57.5
c-4 181.333 -13.333 387 -28 617c-3.33301 38.667 1.66699 64 15 76zM161 454.002c51.333 -23.333 94.001 -18.668 128.001 13.999c14 14 26.833 35 38.5 63s15.5 64 11.5 108c-4.66699 51.333 -25 67 -61 47c-18.667 -10.667 -37.334 -32.667 -56.001 -66
c-16 -27.333 -29.333 -56.666 -40 -87.999s-17.667 -57.333 -21 -78z" />
    <glyph glyph-name="plusminus" unicode="&#xb1;" horiz-adv-x="847" 
d="M541 1350c46.667 17.333 76 -0.00292969 88 -52.0029c52 -258 68.167 -508.5 48.5 -751.5s-29.5 -408.5 -29.5 -496.5c0 -26 7.33301 -39.667 22 -41c8 -1.33301 11.833 -6.16602 11.5 -14.499s-6.5 -15.833 -18.5 -22.5
c-68.667 -35.333 -107.334 -28.666 -116.001 20.001s-11.667 93.334 -9 134.001c16 256 22 456 18 600s-20.667 324 -50 540c-5.33301 45.333 6.33398 73.333 35.001 84zM97 1408c8 8 18.665 11.3311 31.998 9.99805s24 -3.66602 32 -6.99902c14 -6.66699 24.5 -18 31.5 -34
s11.833 -31 14.5 -45c20.667 -116.667 35.834 -271.667 45.501 -465s0.833984 -403.666 -26.499 -630.999c-3.33301 -25.333 1.16699 -35.833 13.5 -31.5s21.833 9.5 28.5 15.5c6 4.66699 13 8.16699 21 10.5s9.66699 -7.5 5 -29.5
c-8.66699 -40 -21.167 -75.833 -37.5 -107.5s-30.5 -55.5 -42.5 -71.5c-16 -20.667 -32.667 -29.834 -50 -27.501s-30 7.83301 -38 16.5c-16.667 20.667 -23 54.334 -19 101.001c16 254.667 24 465 24 631s-13 360.333 -39 583c-4 32 -6.5 51.5 -7.5 58.5
s3.16699 14.833 12.5 23.5z" />
    <glyph glyph-name="lessequal" unicode="&#x2264;" horiz-adv-x="771" 
d="M28 576c16 31.333 45.001 38.3291 87.001 20.9961c16 -8 33 -36 51 -84s32 -93 42 -135c4 -19.333 9.66699 -19.333 17 0c24 62 50.667 117.833 80 167.5s73 103.5 131 161.5c76 76 146.833 93.833 212.5 53.5s109.5 -94.5 131.5 -162.5
c9.33301 -29.333 9 -59.666 -1 -90.999s-38 -13 -84 55c-32.667 47.333 -64.834 70.333 -96.501 69s-60.667 -13.166 -87 -35.499s-48.666 -48.666 -66.999 -78.999s-30.166 -50.5 -35.499 -60.5c-12 -20.667 -30.333 -59.5 -55 -116.5s-41.334 -114.167 -50.001 -171.5
s-21.5 -92.666 -38.5 -105.999l-45.5 -36c-14 -11.333 -30.5 -16.5 -49.5 -15.5s-27.833 27.167 -26.5 78.5c2 64 -8.33301 133.333 -31 208c-12 38 -25.333 71.5 -40 100.5s-25 50.5 -31 64.5c-22.667 49.333 -27.334 87.333 -14.001 114z" />
    <glyph glyph-name="greaterequal" unicode="&#x2265;" horiz-adv-x="1403" 
d="M34 685c14.667 17.333 35.9941 19.998 63.9941 7.99805c29.333 -14 46 -36 50 -66c0.666992 -11.333 10.167 -42.666 28.5 -93.999l47.5 -137c41.333 61.333 98.5 135.166 171.5 221.499s141.5 147.833 205.5 184.5c46.667 26.667 87.334 35.667 122.001 27
s58 -19.334 70 -32.001c24 -24.667 44.333 -52.667 61 -84c20 26 34.667 42.333 44 49c48 40.667 96.333 60.667 145 60c57.333 0 103.333 -25.333 138 -76s46.334 -103 35.001 -157c-10 -44.667 -30 -86.334 -60 -125.001s-58.667 -68 -86 -88
c-45.333 -34 -91.833 -45.5 -139.5 -34.5l-71.5 16.5c-8.66699 -23.333 -14.167 -54 -16.5 -92s2.5 -74 14.5 -108c21.333 -66.667 89.333 -89 204 -67c86 16 179.167 59.5 279.5 130.5s174.5 128.5 222.5 172.5c38 34.667 57.833 45.667 59.5 33
s-10.166 -34.667 -35.499 -66c-53.333 -65.333 -135.666 -139 -246.999 -221s-201.666 -133.667 -270.999 -155c-38 -12 -95.167 -21.667 -171.5 -29s-136.833 52 -181.5 178c-30.667 86 -33.667 174.167 -9 264.5s55.667 167.5 93 231.5
c-14.667 28.667 -31.334 51 -50.001 67c-23.333 18.667 -49.166 24.334 -77.499 17.001s-54.166 -22.666 -77.499 -45.999c-21.333 -20.667 -59 -61 -113 -121s-97 -113.333 -129 -160c-32 -48 -56.333 -101.667 -73 -161s-33.667 -116 -51 -170
c-10 -28 -19.167 -44.833 -27.5 -50.5s-21.833 -12.5 -40.5 -20.5c-42 -18.667 -69 -17 -81 5c-9.33301 14.667 -7.33301 40 6 76c5.33301 15.333 14.333 37.833 27 67.5s21 53.5 25 71.5c6 26 3.33301 62.333 -8 109c-13.333 48.667 -31.5 100.334 -54.5 155.001
s-38.5 93.334 -46.5 116.001c-16.667 42.667 -15 76 5 100zM886.994 503.998c27.333 -14 62.001 -20.0029 104.001 -18.0029s78 33 108 93c12 24.667 15.167 46.834 9.5 66.501s-13.834 32.167 -24.501 37.5c-34 13.333 -69.333 2.33301 -106 -33
c-18.667 -17.333 -37 -39.666 -55 -66.999s-30 -53.666 -36 -78.999z" />
    <glyph glyph-name="yen" unicode="&#xa5;" horiz-adv-x="1213" 
d="M840 504c41.333 46 79.0029 38.334 113.003 -22.999c29.333 -53.333 49.666 -116.833 60.999 -190.5s14.666 -130.5 9.99902 -170.5c-4.66699 -34.667 -17 -56.834 -37 -66.501s-39 -19.5 -57 -29.5c-14 -7.33301 -27.333 -4.33301 -40 9s-18.334 31 -17.001 53
c2 46 1.5 93.833 -1.5 143.5s-18.167 112.834 -45.5 189.501c-12 33.333 -7.33301 61.666 14 84.999zM41.0029 517.001c-26.667 20.667 -30.6641 53.3359 -11.9971 98.0029c8 19.333 24 29.5 48 30.5s42.667 -5.5 56 -19.5c28.667 -30.667 52 -64.834 70 -102.501
s31.333 -72.5 40 -104.5c5.33301 -20 14 -20.667 26 -2c44 74.667 90.167 139.5 138.5 194.5s86.5 96.833 114.5 125.5c26 26 57 50 93 72s78 28 126 18c46 -10 76.5 -46.167 91.5 -108.5s25.5 -112.5 31.5 -150.5c5.33301 -32 -0.666992 -35 -18 -9
c-10 14.667 -23.167 35.5 -39.5 62.5s-32.5 48.5 -48.5 64.5c-31.333 29.333 -62.166 36.833 -92.499 22.5s-56.5 -32.833 -78.5 -55.5c-46 -46.667 -90 -99 -132 -157s-72 -107.333 -90 -148c-14 -32.667 -22 -61.334 -24 -86.001c-2 -12 -5.33301 -37.833 -10 -77.5
s-8.33398 -75.5 -11.001 -107.5c-2.66699 -28 -9 -46.5 -19 -55.5s-17.667 -14.833 -23 -17.5c-6 -2.66699 -17.5 -8.66699 -34.5 -18s-32.167 -16 -45.5 -20c-14 -4 -24.333 -2.83301 -31 3.5s-8.33398 34.166 -5.00098 83.499c3.33301 50 5.16602 122 5.49902 216
s-41.834 176.667 -126.501 248zM959.006 791.003c2 20 10.499 38 25.499 54s40.5 22 76.5 18c30 -4 49.833 -14.833 59.5 -32.5s17.5 -35.167 23.5 -52.5c10 -28 6.83301 -48 -9.5 -60s-36.166 -19 -59.499 -21c-30.667 -2 -58.667 3.66699 -84 17s-36 39 -32 77z" />
    <glyph glyph-name="uni00B5" unicode="&#xb5;" horiz-adv-x="1744" 
d="M33 611c20.667 30.667 56.332 42.0059 106.999 34.0059c28 -6 47.333 -21.167 58 -45.5s19.667 -47.5 27 -69.5c5.33301 -19.333 13.666 -19 24.999 1c34 65.333 75.333 119 124 161c47.333 40 100.333 73.333 159 100s120 35 184 25c38.667 -6 71.334 -17 98.001 -33
s43 -29 49 -39c5.33301 -9.33301 9.33301 -16.666 12 -21.999c6 4.66699 11.667 8.33398 17 11.001l8 4c25.333 3.33301 42.833 0.833008 52.5 -7.5s22.5 -27.833 38.5 -58.5c10.667 -22.667 29.167 -64.834 55.5 -126.501s41.833 -121.834 46.5 -180.501
c0.666992 -10 4 -9 10 3c15.333 35.333 51.5 84 108.5 146s110.5 109.667 160.5 143c42.667 28 98.334 45.167 167.001 51.5s115.334 -30.167 140.001 -109.5c26 -85.333 27.167 -170.333 3.5 -255s-29.5 -153 -17.5 -205c4 -18 4.16699 -34.333 0.5 -49
s-18.834 -31 -45.501 -49c-28 -18 -56.333 -23.333 -85 -16s-41.667 32.333 -39 75c2 44 11.167 95 27.5 153s26.833 135 31.5 231c2 42 -12.333 69.5 -43 82.5s-70.667 -4.5 -120 -52.5c-42 -40.667 -93.167 -101.334 -153.5 -182.001s-95.5 -148.334 -105.5 -203.001
c-10.667 -54.667 -22.334 -89.334 -35.001 -104.001s-29.667 -25 -51 -31s-42.166 -9 -62.499 -9s-31.833 24.667 -34.5 74c-11.333 170 -19 279.333 -23 328s-29 122.667 -75 222c-10.667 22.667 -14 43.667 -10 63c-22 -0.666992 -44.833 4.66602 -68.5 15.999
s-54.5 16 -92.5 14c-80 -4 -143.333 -27.833 -190 -71.5s-84 -89.5 -112 -137.5c-20.667 -35.333 -38.334 -92.5 -53.001 -171.5s-22.667 -142.5 -24 -190.5c-2 -48.667 -9.83301 -77.5 -23.5 -86.5s-38.5 -18.5 -74.5 -28.5c-36.667 -10.667 -57.5 -3.83398 -62.5 20.499
s-6.5 45.166 -4.5 62.499c2 18 4 46.833 6 86.5s3.33301 73.167 4 100.5c0.666992 28.667 -2.16602 51 -8.49902 67l-15.5 40l-25.5 53.5c-12.333 25.667 -22.833 45.5 -31.5 59.5c-9.33301 14 -19.333 32 -30 54s-12 39 -4 51z" />
    <glyph glyph-name="partialdiff" unicode="&#x2202;" horiz-adv-x="1466" 
d="M562 696c-27.333 -36 -52.665 -44.0029 -75.998 -24.0029c-22 17.333 -58.667 25.333 -110 24c-22 -1.33301 -55 -12.5 -99 -33.5s-74.333 -54.167 -91 -99.5s-22.5 -76.166 -17.5 -92.499s28.167 -23.5 69.5 -21.5c80 2.66699 144.333 9.5 193 20.5
s94.667 18.5 138 22.5c23.333 2 49.166 -3.66699 77.499 -17s33.833 -43.666 16.5 -90.999c-24 -66.667 -73.5 -148 -148.5 -244s-118.5 -150.667 -130.5 -164c-31.333 -36 -61 -56 -89 -60c-38.667 -3.33301 -60 9 -64 37c-4.66699 32 1 56.333 17 73
c26.667 28 66.667 73.167 120 135.5s88.333 113.166 105 152.499c9.33301 21.333 10.333 33.833 3 37.5s-20 4.83398 -38 3.50098c-18.667 -2 -66.334 -11.667 -143.001 -29s-138.334 -11.333 -185.001 18c-42 26 -62.167 69.167 -60.5 129.5s12.834 110.5 33.501 150.5
c20 39.333 52 77.333 96 114s97 59.334 159 68.001s108.667 7.5 140 -3.5s56 -22.5 74 -34.5c16.667 -12 22.5 -27 17.5 -45zM698.001 597.997c18 22.667 57.666 37.335 118.999 44.002c22.667 2.66699 45 5.16699 67 7.5s44 4.5 66 6.5c0.666992 50.667 1.5 96 2.5 136
s1.5 69 1.5 87c0 56 -5.83301 120.833 -17.5 194.5s-19.167 120.167 -22.5 139.5c-6.66699 28 -1.66699 47 15 57l20.5 4.5c13.667 3 27.5 1.5 41.5 -4.5c28.667 -14 49.334 -38 62.001 -72c0 -1.33301 3.33301 -19 10 -53c14 -86.667 22.167 -166.5 24.5 -239.5
s2.5 -152.5 0.5 -238.5c66 4 137.5 5.66699 214.5 5s167.167 -4 270.5 -10c44 -3.33301 66.5 -11 67.5 -23s-24.167 -21 -75.5 -27c-64 -8.66699 -140.333 -21.167 -229 -37.5l-252 -46.5c-3.33301 -98 -5.16602 -196.833 -5.49902 -296.5s-0.5 -155.5 -0.5 -167.5
c0 -32.667 -22.333 -53.334 -67 -62.001c-34 -6.66699 -54 15.666 -60 66.999c-2 15.333 -3.66699 68.5 -5 159.5s-1 182.5 1 274.5c-72 -12.667 -113.333 -19 -124 -19c-29.333 0 -54.333 -0.166992 -75 -0.5s-37.334 9.16699 -50.001 28.5c-20.667 29.333 -20.667 58 0 86
z" />
    <glyph glyph-name="summation" unicode="&#x2211;" horiz-adv-x="1668" 
d="M169 1117c-0.666992 2 -1.83496 16.001 -3.50195 42.001s-0.5 43.667 3.5 53c8 20.667 27.667 31 59 31c12 0 25.833 -3.5 41.5 -10.5s28.5 -25.5 38.5 -55.5c19.333 -63.333 35.333 -143.666 48 -240.999s21.334 -191.333 26.001 -282l233 38.5
c77.333 12.333 138 20.166 182 23.499c8 0.666992 18 1 30 1c-6.66699 68 -18.667 137.167 -36 207.5s-41.333 139.5 -72 207.5c-12.667 26 -16.834 43.833 -12.501 53.5s8.5 20.834 12.5 33.501l18 9.5c12 6.33301 22.667 7.83301 32 4.5c8 -4 18.333 -7.5 31 -10.5
s28 -25.5 46 -67.5c83.333 -202 122 -364.833 116 -488.5s-9.66699 -226.834 -11 -309.501c-1.33301 -55.333 7.33398 -72.333 26.001 -51c80 88.667 155.833 165.667 227.5 231s143.834 127 216.501 185c34 27.333 61.833 41.833 83.5 43.5s49.834 -16.5 84.501 -54.5
c7.33301 -8.66699 14.666 -25.834 21.999 -51.501s9 -54.834 5 -87.501c-8.66699 -66 -23.167 -136.5 -43.5 -211.5l-35.5 -131.5c-6 -19.333 -4.83301 -33.833 3.5 -43.5l26.5 -29.5c8 -10.667 4.66699 -26.167 -10 -46.5s-30 -36.5 -46 -48.5
c-16 -12.667 -33.833 -23.667 -53.5 -33s-38.834 0.666992 -57.501 30c-22.667 36 -20.334 110.5 6.99902 223.5l60 251.5c12 54 7.66699 74.333 -13 61s-42 -30 -64 -50l-63.5 -58c-33 -30 -68.5 -65 -106.5 -105l-153 -170.5c-49.333 -57.667 -82 -96.5 -98 -116.5
c-38 -47.333 -67.333 -74 -88 -80s-41 -10 -61 -12c-20.667 -1.33301 -36.667 2 -48 10s-9 38.667 7 92c14.667 50 29.334 126.167 44.001 228.5s17.334 215.5 8.00098 339.5c-6.66699 -2.66699 -12.334 -4.33398 -17.001 -5.00098
c-36.667 -10.667 -67.334 -20.167 -92.001 -28.5s-68.334 -24.833 -131.001 -49.5l-109 -44c-34 -13.333 -66.333 -25 -97 -35c-1.33301 -42 -2.66602 -71.667 -3.99902 -89c-6 -60 -10.667 -110.167 -14 -150.5s-4 -92.166 -2 -155.499
c0.666992 -25.333 1.83398 -44.333 3.50098 -57s-15.833 -27.667 -52.5 -45c-37.333 -16.667 -61 -21.5 -71 -14.5s-18 24.5 -24 52.5c-11.333 50 -13.833 106.167 -7.5 168.5s10.5 117.5 12.5 165.5c2 30.667 3 60 3 88
c-57.333 -7.33301 -115.666 -6.66602 -174.999 2.00098c-24 4 -37.667 15.667 -41 35s-3.33301 35.333 0 48c6 28.667 32.667 45.667 80 51c33.333 3.33301 79.333 10 138 20c-2 122 -9.33301 215.833 -22 281.5z" />
    <glyph glyph-name="product" unicode="&#x220f;" horiz-adv-x="1630" 
d="M413 608c-18 12 -54.5 12.501 -109.5 1.50098s-92.833 -68.5 -113.5 -172.5c-9.33301 -47.333 -11.833 -91.666 -7.5 -132.999s12.166 -75.333 23.499 -102c16 -40 41.833 -63.833 77.5 -71.5s71.834 5.16602 108.501 38.499c56 51.333 124.5 132.333 205.5 243
s142.167 225 183.5 343c-16 78 -42.667 181.667 -80 311c-8 26.667 -10.333 45.5 -7 56.5s8 20.5 14 28.5c14 18 30.667 27 50 27c10 0 20 -2.83301 30 -8.5s20 -22.5 30 -50.5c24 -70 51 -170.333 81 -301s38 -303 24 -517c-1.33301 -20.667 3.33398 -25.667 14.001 -15
l51.5 59l104.5 118.5l117.5 132l90.5 100.5c30.667 33.333 68 47.833 112 43.5s80.333 -36.833 109 -97.5c38.667 -84 51 -170 37 -258s-28 -166 -42 -234c-10.667 -54 0 -82.333 32 -85c10 -1.33301 20.167 -3.83301 30.5 -7.5s8.16602 -15.5 -6.50098 -35.5
c-20.667 -27.333 -46.5 -46.5 -77.5 -57.5s-55.167 -6.16699 -72.5 14.5c-18 20 -28 48.5 -30 85.5s-0.333008 73.5 5 109.5c4.66699 36 14.334 92.667 29.001 170s16.334 144.666 5.00098 201.999c-11.333 58 -47 60 -107 6c-16.667 -15.333 -43.334 -44 -80.001 -86
l-113 -133l-106 -129.5l-60 -74.5c-34 -41.333 -65.333 -71 -94 -89c-18 -12 -38.667 -19.833 -62 -23.5s-37.333 1.5 -42 15.5c-5.33301 14 -6.83301 33.5 -4.5 58.5s5.16602 47.5 8.49902 67.5c14.667 84.667 23.5 159.834 26.5 225.501s5.16699 125.834 6.5 180.501
c0 8 -0.666992 20.667 -2 38c-10 -26 -21 -51.667 -33 -77c-44 -98 -101.667 -200.333 -173 -307s-144 -173.334 -218 -200.001c-45.333 -16 -97 -19.333 -155 -10s-101 46.333 -129 111c-26 60.667 -42 136.667 -48 228s23 182.333 87 273c40 56 84.5 91.167 133.5 105.5
s88.167 17.5 117.5 9.5c46 -13.333 73.333 -37 82 -71c7.33301 -30.667 3.83301 -50.334 -10.5 -59.001s-28.833 -7.66699 -43.5 3z" />
    <glyph glyph-name="pi" unicode="&#x3c0;" horiz-adv-x="1592" 
d="M491 639c-22 -32.667 -40.667 -46.498 -56 -41.498l-23 7.5l-7 9c-4.66699 6 -10.334 12.333 -17.001 19c-24 21.333 -53.333 24.333 -88 9c-29.333 -12.667 -51.333 -33.5 -66 -62.5s-27.667 -57.5 -39 -85.5c-11.333 -27.333 -20.166 -58 -26.499 -92
s-8.5 -74 -6.5 -120c2.66699 -75.333 21.5 -124.333 56.5 -147s73.5 -22 115.5 2c68 38.667 131.333 88 190 148c106.667 112 192.334 227 257.001 345c-1.33301 72 -4 144.667 -8 218s-10.333 143.666 -19 210.999c-4 33.333 -6.66699 57.666 -8 72.999
s5.66699 34.666 21 57.999c11.333 18 30.666 16 57.999 -6c12.667 -11.333 22 -35.666 28 -72.999c13.333 -80.667 23 -176.167 29 -286.5s10.667 -217.5 14 -321.5c16 26 35.667 50 59 72c71.333 66 139.166 104.5 203.499 115.5s111.5 17.167 141.5 18.5
c70 0.666992 91.667 -24.666 65 -75.999c-8 -14 -18.833 -22.167 -32.5 -24.5l-89.5 -15.5c-75.333 -14.667 -129.333 -34.667 -162 -60s-60 -54 -82 -86c-33.333 -50 -40.333 -91.667 -21 -125s51.333 -59 96 -77c50 -20 108.167 -30.5 174.5 -31.5
s126.5 1.83301 180.5 8.5c61.333 8 115 19.167 161 33.5s83.667 28.5 113 42.5c40.667 19.333 69.334 25.333 86.001 18s5 -24.333 -35 -51c-170.667 -112 -342.5 -161.667 -515.5 -149s-285.167 45 -336.5 97c-0.666992 0 -1.16699 0.333008 -1.5 1l-0.5 1
c0 -24.667 0.166992 -46.834 0.5 -66.501s0.5 -36.5 0.5 -50.5c0 -32 -6.16699 -54.333 -18.5 -67s-29.5 -22 -51.5 -28c-22.667 -5.33301 -38 0.5 -46 17.5s-12 35.167 -12 54.5c0.666992 41.333 2.33398 102.5 5.00098 183.5s4 171.167 4 270.5
c-52 -108 -116.167 -208.167 -192.5 -300.5s-149.5 -157.5 -219.5 -195.5c-87.333 -48 -158.5 -50.667 -213.5 -8s-87.833 104 -98.5 184c-10.667 76.667 -9.66699 150.5 3 221.5s33.667 133.167 63 186.5c64.667 118 150 168 256 150c52 -10 85.667 -30.5 101 -61.5
s18.666 -53.167 9.99902 -66.5z" />
    <glyph glyph-name="integral" unicode="&#x222b;" 
d="M496 639c-7.33301 23.333 -20.3281 35 -38.9951 35c-30 0.666992 -58 -5 -84 -17s-52.333 -37 -79 -75c-28.667 -40.667 -56.834 -97.5 -84.501 -170.5s-40.5 -128.833 -38.5 -167.5c2 -39.333 14 -67.166 36 -83.499s52.667 -12.5 92 11.5s90 84.5 152 181.5
s119 198.167 171 303.5c6 86 11 176.5 15 271.5s4.66699 188.167 2 279.5c-2 52 -5 102 -9 150s2 82 18 102c20.667 25.333 52 21 94 -13c17.333 -15.333 30.166 -34.333 38.499 -57s13.5 -57 15.5 -103c7.33301 -162 -6.16699 -355.167 -40.5 -579.5
s-55.166 -396.5 -62.499 -516.5c-2.66699 -41.333 0.666016 -76.333 9.99902 -105s31.333 -53 66 -73c15.333 -8 25.5 -16.333 30.5 -25s-3.5 -14.667 -25.5 -18c-72.667 -9.33301 -125.334 10.5 -158.001 59.5s-45.334 107.167 -38.001 174.5c2 24 5 54 9 90l13 122
c-80.667 -148.667 -146.667 -249 -198 -301c-30 -30.667 -78 -60.834 -144 -90.501s-121.333 -13.167 -166 49.5s-57.167 135.5 -37.5 218.5s34.5 138.5 44.5 166.5c14.667 42 32.334 84 53.001 126s45.667 80 75 114c66 76 154.333 103.667 265 83
c44 -8.66699 73 -37.334 87 -86.001c7.33301 -30.667 1.66602 -58.667 -17.001 -84c-12.667 -17.333 -25.834 -20.666 -39.501 -9.99902s-22.5 23 -26.5 37z" />
    <glyph glyph-name="ordfeminine" unicode="&#xaa;" horiz-adv-x="783" 
d="M584 737c-22 -37.333 -49.665 -51.335 -82.998 -42.002c-60.667 14.667 -119 12.834 -175 -5.49902s-96 -50.5 -120 -96.5s-29.833 -85.833 -17.5 -119.5s52.5 -45.167 120.5 -34.5c67.333 10 115.333 21.167 144 33.5l90 38.5c34 14 62.667 18.667 86 14
s39.666 -10 48.999 -16c9.33301 -6.66699 20.5 -17.5 33.5 -32.5s12.167 -47.5 -2.5 -97.5c-29.333 -97.333 -76.666 -186.833 -141.999 -268.5s-119.333 -129.834 -162 -144.501c-32.667 -11.333 -54 -11.666 -64 -0.999023s-16 19 -18 25s-4.5 17 -7.5 33
s4.83301 31 23.5 45c71.333 52 124.666 102.333 159.999 151s59.333 87.667 72 117c10.667 24.667 12.667 42.334 6 53.001s-23 9 -49 -5c-38 -22 -106.667 -45.333 -206 -70s-174.333 -8 -225 50c-51.333 57.333 -67.833 117.833 -49.5 181.5s43.166 113.5 74.499 149.5
c68.667 78 142.667 120 222 126s153 1 221 -15c20.667 -5.33301 30.5 -15.5 29.5 -30.5s-4.5 -27.833 -10.5 -38.5z" />
    <glyph glyph-name="ordmasculine" unicode="&#xba;" horiz-adv-x="847" 
d="M597 374c-1.33301 10.667 -2.00195 23.333 -2.00195 38c-92.667 -188 -203 -313 -331 -375c-98 -47.333 -161.833 -37.166 -191.5 30.501s-32.167 147.834 -7.5 240.501c20 76 49.333 154.833 88 236.5s81 146.167 127 193.5c54 55.333 111 70.833 171 46.5
s109 -65.833 147 -124.5c0 7.33301 0.5 14.5 1.5 21.5s1.83301 13.833 2.5 20.5c3.33301 34 8.83301 55.833 16.5 65.5s17.834 16.5 30.501 20.5c25.333 6.66699 45.333 1.66699 60 -15c11.333 -12.667 16.333 -39.5 15 -80.5s-3 -80.167 -5 -117.5
c-2 -38 -4.33301 -94.333 -7 -169s8.33301 -144 33 -208c16 -44 36.833 -68.333 62.5 -73s48.5 -1.33398 68.5 9.99902c28 14.667 42.667 17 44 7s-6.66699 -24 -24 -42c-18 -19.333 -37.5 -33.5 -58.5 -42.5s-51.167 -7.83301 -90.5 3.5
c-53.333 14.667 -90.166 53.167 -110.499 115.5s-33.5 128.166 -39.5 197.499zM545.998 535.999c-24.667 44 -56.1689 81.499 -94.502 112.499s-75.5 21.833 -111.5 -27.5c-36.667 -49.333 -72.167 -111.5 -106.5 -186.5s-56.166 -134.833 -65.499 -179.5
c-9.33301 -45.333 -11.666 -80.666 -6.99902 -105.999s34.667 -22 90 10c52.667 30 108.5 86.333 167.5 169s101.5 152 127.5 208z" />
    <glyph glyph-name="Omega" unicode="&#x3a9;" horiz-adv-x="960" 
d="M109 733c-6.66699 11.333 -5.66602 23.665 3.00098 36.998s30.334 15 65.001 5c14 -4.66699 29 -10.5 45 -17.5s33.333 -10.833 52 -11.5c103.333 -5.33301 199.166 -1.16602 287.499 12.501s152.833 24.5 193.5 32.5c46 9.33301 75.833 9.66602 89.5 0.999023
s24.5 -20.334 32.5 -35.001c19.333 -37.333 -7.66699 -93.666 -81 -168.999c-20.667 -21.333 -57.667 -49.666 -111 -84.999l-173 -116.5c-62 -42.333 -122.5 -86.666 -181.5 -132.999s-104.5 -90.5 -136.5 -132.5c-22 -30 -10.333 -43 35 -39
c17.333 0.666992 62.166 13.667 134.499 39s118.5 44 138.5 56c19.333 11.333 79.833 40.666 181.5 87.999s183.834 76 246.501 86c62 10 94.167 10 96.5 0s-24.167 -23 -79.5 -39c-56 -16.667 -130.667 -52.5 -224 -107.5s-159 -92.5 -197 -112.5
c-38.667 -21.333 -102.667 -50.5 -192 -87.5s-169 -52.5 -239 -46.5s-97.833 33.167 -83.5 81.5s36.5 91.5 66.5 129.5c22.667 28 63.667 65.667 123 113l185.5 142l178 127l100.5 69c15.333 10 21 18.667 17 26s-12.333 10 -25 8c-49.333 -8 -122.833 -13.667 -220.5 -17
s-163.167 -3.66602 -196.5 -0.999023c-54.667 2.66699 -98.334 35 -131.001 97z" />
    <glyph glyph-name="ae" unicode="&#xe6;" horiz-adv-x="1061" 
d="M119 686c14.667 -2.66699 26.166 -9.16699 34.499 -19.5s16.833 -18.833 25.5 -25.5l33.5 -46l81 -109l97.5 -129l82 -106c2.66699 -2.66699 4.33398 -5 5.00098 -7l268 296l161 169c22.667 23.333 46.667 32 72 26c32 -7.33301 57.333 -23.666 76 -48.999
c10 -16.667 3.66699 -28.334 -19 -35.001c-10 -2.66699 -22.333 -10 -37 -22c-4 -3.33301 -39.5 -41 -106.5 -113l-244.5 -266l-305.5 -339.5l-288.5 -334.5c-167.333 -200.667 -287 -357 -359 -469c-18 -27.333 -21.667 -48 -11 -62c12.667 -16 13 -29.667 1 -41
c-5.33301 -4.66699 -15.5 -12.167 -30.5 -22.5s-29.5 -18.5 -43.5 -24.5c-24.667 -10.667 -46.334 -2 -65.001 26c-8 12.667 -12.167 28.5 -12.5 47.5s10.5 45.833 32.5 80.5c36.667 58 96.834 142.167 180.501 252.5s184.5 236.5 302.5 378.5l173.5 207l173.5 201
c-17.333 18 -43.333 48.167 -78 90.5l-106.5 131.5l-98 123.5c-29 37 -45.833 58.833 -50.5 65.5c-15.333 18.667 -19.333 47 -12 85c7.33301 34.667 30 48 68 40z" />
    <glyph glyph-name="oslash" unicode="&#xf8;" horiz-adv-x="1441" 
d="M299 1181c0.666992 19.333 2.33789 55.4961 5.00488 108.496s9.33398 90.833 20.001 113.5c6.66699 14.667 14.667 25.167 24 31.5s28 2.16602 56 -12.501c27.333 -14.667 41.166 -38.334 41.499 -71.001s0.166016 -66.334 -0.500977 -101.001l-8.5 -284l-10.5 -370
c4 0 7.83301 0.166992 11.5 0.5s7.5 0.833008 11.5 1.5c74 6.66699 135.667 15.167 185 25.5s114 16.833 194 19.5c29.333 0.666992 54.333 -1.33301 75 -6l3 92c4.66699 142.667 8 269.5 10 380.5s3.33301 172.5 4 184.5c0.666992 23.333 5 44.833 13 64.5
s24.667 26.167 50 19.5c30.667 -9.33301 49.334 -22.166 56.001 -38.499s11 -59.166 13 -128.499c0.666992 -48 1.16699 -131.167 1.5 -249.5s-1.5 -252.5 -5.5 -402.5c52 6.66699 119.333 17.667 202 33s157 35.333 223 60c68.667 25.333 100.167 25.833 94.5 1.5
s-23.834 -43.5 -54.501 -57.5c-72 -34 -147.5 -66.5 -226.5 -97.5s-159.833 -57.833 -242.5 -80.5c-4.66699 -105.333 -9.66699 -207 -15 -305c-2 -24 -7.33301 -57 -16 -99s-24.334 -68 -47.001 -78c-24 -10 -48.333 -12.833 -73 -8.5s-36 33.5 -34 87.5
c0 14.667 2.33301 46.5 7 95.5s10 109.5 16 181.5c-16 28.667 -29.333 47 -40 55l-62.5 42c-19.667 13.333 -34.5 36 -44.5 68c-10 31.333 -4.5 54.666 16.5 69.999s45.833 23 74.5 23h73c0 10 0.666992 26.333 2 49c-16 -7.33301 -41 -15.333 -75 -24
c-92.667 -22 -165.834 -42.667 -219.501 -62s-114.834 -34.666 -183.501 -45.999c-2.66699 -85.333 -5.16699 -159.666 -7.5 -222.999l-4.5 -123c-4 -50 -14.333 -81.667 -31 -95s-40.667 -24.666 -72 -33.999c-32 -9.33301 -48.833 -1.66602 -50.5 23.001s-2.5 48 -2.5 70
c0 8 1.16699 47.167 3.5 117.5s5.5 153.5 9.5 249.5c-50 -2.66699 -102 -1.33398 -156 3.99902s-88 22 -102 50c-11.333 24 -12.5 47.5 -3.5 70.5s28.5 36.833 58.5 41.5c33.333 4.66699 58.666 1.33398 75.999 -9.99902s39.333 -17.666 66 -18.999
c11.333 0 22.5 -0.166992 33.5 -0.5s22.167 -0.5 33.5 -0.5c4.66699 129.333 9.5 252.833 14.5 370.5s8.5 191.834 10.5 222.501z" />
  </font>
</defs>
</svg>
